<svg width="171" height="187" viewBox="0 0 171 187" fill="none" xmlns="http://www.w3.org/2000/svg">
<g clip-path="url(#clip0_1147_1909)">
<path d="M105.179 151.462H98.9936V149.397H105.117L105.179 151.462ZM92.8694 151.462H86.7444V149.396H92.8694V151.462ZM80.6211 151.462H74.4969V149.396H80.6211V151.462ZM68.3728 151.462H62.2494V149.396H68.3728V151.462ZM56.1244 151.462H50.0003V149.396H56.1244V151.462ZM43.8769 151.462H37.7528V149.396H43.8769V151.462ZM31.9011 147.802C31.4678 146.913 31.2486 145.956 31.2478 144.958V141.31H33.3128V144.958C33.3136 145.639 33.4628 146.292 33.7569 146.898L31.9011 147.802ZM111 147.732L109.134 146.848C109.414 146.256 109.554 145.62 109.554 144.958V141.243H111.621V144.958C111.621 145.928 111.412 146.862 111 147.732ZM33.3128 135.185H31.2461V129.061H33.3128V135.185ZM111.621 135.119H109.555V128.995H111.621V135.119ZM33.3128 122.938H31.2461V116.813H33.3128V122.938ZM111.621 122.871H109.555V116.747H111.621V122.871ZM33.3128 110.689H31.2461V104.564H33.3128V110.689ZM111.621 110.623H109.555V104.498H111.621V110.623ZM33.3128 98.4409H31.2461V92.3167H33.3128V98.4409ZM111.621 98.375H109.555V92.25H111.621V98.375ZM33.3128 86.1934H31.2461V80.0692H33.3128V86.1934ZM111.621 86.1267H109.555V80.0026H111.621V86.1267ZM33.3128 73.945H31.2461V67.8209H33.3128V73.945ZM111.621 73.8792H109.555V67.7551H111.621V73.8792ZM33.3128 61.6967H31.2461V55.5725H33.3128V61.6967ZM111.621 61.6301H109.555V55.5059H111.621V61.6301ZM33.3128 49.4492H31.2478V45.7659C31.2478 44.7842 31.4611 43.8409 31.8819 42.9592L33.7461 43.8509C33.4586 44.4509 33.3128 45.0951 33.3128 45.7659V49.4492ZM111.621 49.3826H109.554V45.7659C109.554 45.0767 109.402 44.4167 109.099 43.8034L110.951 42.8884C111.396 43.7884 111.621 44.7567 111.621 45.7659V49.3826ZM105.084 41.3275H98.9594V39.2617H105.084V41.3275ZM92.8361 41.3275H86.7111V39.2617H92.8361V41.3275ZM80.5869 41.3275H74.4628V39.2617H80.5869V41.3275ZM68.3403 41.3275H62.2161V39.2617H68.3403V41.3275ZM56.0911 41.3275H49.9669V39.2617H56.0911V41.3275ZM43.8436 41.3275H37.7511L37.7186 39.2617H43.8436V41.3275Z" fill="#DADADD"/>
<path d="M120.24 140.093H49.3404C46.1595 140.093 43.582 137.515 43.582 134.336V29.9408C43.582 26.7617 46.1595 24.1833 49.3404 24.1833H97.7712C107.122 39.6092 118.863 46.1017 125.997 50.0575V134.336C125.997 137.515 123.419 140.093 120.24 140.093Z" fill="#DADADD"/>
<path d="M139.682 145.537L160.589 166.447C162.105 167.962 162.105 170.421 160.589 171.936C159.073 173.452 156.617 173.452 155.1 171.936L134.192 151.027C128.934 155.114 122.327 157.547 115.152 157.547C98.0041 157.547 84.1016 143.647 84.1016 126.498C84.1016 109.35 98.0041 95.4482 115.152 95.4482C132.301 95.4482 146.202 109.35 146.202 126.498C146.202 133.673 143.768 140.28 139.682 145.537ZM115.152 149.785C128.014 149.785 138.439 139.359 138.439 126.498C138.439 113.637 128.014 103.21 115.152 103.21C102.291 103.21 91.8649 113.637 91.8649 126.498C91.8649 139.359 102.291 149.785 115.152 149.785Z" fill="#B9BAC0"/>
<path d="M97.7695 24.1833V45.9433C97.7695 48.2159 99.612 50.0583 101.884 50.0583H125.996L97.7695 24.1833Z" fill="#B9BAC0"/>
<path d="M115.482 22.6699C115.482 23.1494 115.093 23.5378 114.614 23.5378C114.135 23.5378 113.746 23.1494 113.746 22.6699C113.746 22.1904 114.135 21.802 114.614 21.802C115.093 21.802 115.482 22.1904 115.482 22.6699Z" fill="#EBEBEB"/>
<path d="M0.0211343 110.976H0.0124858V110.968H0.00864846V110.976H0V110.98H0.00864846V110.989H0.0124858V110.98H0.0211343V110.976Z" fill="#CECECE"/>
<path d="M88.1583 9.60343C86.5824 9.60343 85.3008 8.32176 85.3008 6.74593C85.3008 5.17009 86.5824 3.88843 88.1583 3.88843C89.7341 3.88843 91.0158 5.17009 91.0158 6.74593C91.0158 8.32176 89.7341 9.60343 88.1583 9.60343ZM88.1583 4.38676C86.8574 4.38676 85.7991 5.44593 85.7991 6.74593C85.7991 8.04676 86.8574 9.10509 88.1583 9.10509C89.4591 9.10509 90.5174 8.04676 90.5174 6.74593C90.5174 5.44593 89.4591 4.38676 88.1583 4.38676Z" fill="#DADADD"/>
<path d="M73.883 68.0176C73.883 69.5267 72.6588 70.7509 71.1505 70.7509C69.6413 70.7509 68.418 69.5267 68.418 68.0176C68.418 66.5084 69.6413 65.2859 71.1505 65.2859C72.6588 65.2859 73.883 66.5084 73.883 68.0176Z" fill="#93949D"/>
<path d="M103.18 68.0176C103.18 69.5267 101.956 70.7509 100.447 70.7509C98.9382 70.7509 97.7148 69.5267 97.7148 68.0176C97.7148 66.5084 98.9382 65.2859 100.447 65.2859C101.956 65.2859 103.18 66.5084 103.18 68.0176Z" fill="#93949D"/>
<path d="M76.392 89.8207C76.3695 89.8207 76.3461 89.8191 76.3228 89.8157C76.0253 89.7782 75.8145 89.5066 75.852 89.2099C75.8645 89.1066 77.2511 78.8716 85.8261 78.8716C94.4003 78.8716 95.787 89.1066 95.8003 89.2099C95.8378 89.5066 95.627 89.7782 95.3295 89.8157C95.027 89.8582 94.7586 89.6424 94.7211 89.3457C94.6728 88.9624 93.4386 79.9591 85.8261 79.9591C78.2136 79.9591 76.9795 88.9624 76.9303 89.3457C76.8953 89.6199 76.6611 89.8207 76.392 89.8207Z" fill="#93949D"/>
<path d="M144.118 96.2877C144.118 96.2998 144.108 96.3096 144.096 96.3096C144.084 96.3096 144.074 96.2998 144.074 96.2877C144.074 96.2757 144.084 96.2659 144.096 96.2659C144.108 96.2659 144.118 96.2757 144.118 96.2877Z" fill="#DADADD"/>
<path d="M102.062 50.0583H125.996V56.51C125.996 56.51 122.302 51.0208 102.062 50.0583Z" fill="#93949D"/>
</g>
<defs>
<clipPath id="clip0_1147_1909">
<rect width="171" height="187" fill="white"/>
</clipPath>
</defs>
</svg>
