<svg width="192" height="60" viewBox="0 0 192 60" fill="none" xmlns="http://www.w3.org/2000/svg">
<g clip-path="url(#clip0_240_26939)">
<path d="M160.708 13.0558C158.091 14.676 155.878 16.8794 154.25 19.4835L147.679 12.9438C149.478 10.4812 151.663 8.30716 154.137 6.51611L160.708 13.0558Z" fill="url(#paint0_linear_240_26939)"/>
<path d="M171.275 0.960449C166.552 0.960449 162.094 2.08574 158.146 4.07121L165.125 11.0174C167.067 10.3929 169.132 10.0512 171.275 10.0512C176.633 10.0512 181.665 12.125 185.447 15.8956L191.906 9.46791C186.4 3.98284 179.072 0.960449 171.275 0.960449Z" fill="url(#paint1_linear_240_26939)"/>
<path d="M175.845 49.4307C174.365 49.7783 172.832 49.9491 171.275 49.9491C160.223 49.9491 151.231 40.9998 151.231 30.0002C151.231 27.8615 151.574 25.8054 152.196 23.8729L145.222 16.9326C143.221 20.8623 142.097 25.3046 142.097 30.0002C142.097 46.0135 155.185 59.0398 171.275 59.0398C172.82 59.0398 174.347 58.922 175.845 58.6864C177.597 58.4153 179.308 57.9853 180.966 57.4079C186.944 52.5532 181.859 46.9562 181.859 46.9562C180.007 48.105 177.976 48.9417 175.851 49.4307H175.845Z" fill="url(#paint2_linear_240_26939)"/>
<path d="M188.59 53.2779C186.412 54.8687 183.807 56.4182 180.96 57.4079C186.939 52.5533 181.854 46.9563 181.854 46.9563L157.595 22.8125C159.045 20.0788 161.306 17.8282 164.053 16.3848L189.461 41.6715C192.799 44.9944 192.397 50.503 188.59 53.2779Z" fill="#3F1F58"/>
<path d="M122.881 30.5833C122.704 29.2871 122.165 28.1265 121.413 27.0601C121.289 26.8775 121.17 26.6595 120.869 26.683C120.821 26.7361 120.738 26.795 120.721 26.8657C120.543 27.6728 120.377 28.48 120.211 29.293C120.164 29.511 120.282 29.676 120.401 29.8409C120.703 30.2592 121.017 30.6716 121.289 31.1076C121.526 31.4906 121.751 31.8971 121.916 32.3213C122.183 32.9753 122.118 33.1815 121.555 33.5467C120.158 34.454 118.666 35.0609 116.944 34.8841C116.458 34.837 115.973 34.7722 115.493 34.7015C115.334 34.6779 115.186 34.5896 114.996 34.513C115.079 34.348 115.138 34.2184 115.209 34.1006C116.091 32.6866 116.535 31.1489 116.63 29.4874C116.725 27.8967 116.151 26.5181 115.292 25.2396C114.866 24.6092 114.422 24.5326 113.718 24.8036C113.226 24.9921 112.824 25.3103 112.451 25.6697C111.515 26.5652 110.734 27.5844 110.124 28.7274C109.118 30.6068 108.899 32.5628 109.568 34.6072C109.615 34.7604 109.639 34.9254 109.68 35.1434C109.349 35.2494 109.053 35.3555 108.757 35.4379C108.088 35.6265 107.395 35.6324 106.709 35.6088C105.104 35.5499 103.772 34.9195 102.725 33.7058C102.233 33.1402 101.86 32.498 101.547 31.8205C100.937 30.4831 100.582 29.075 100.392 27.6257C100.002 24.6328 97.6396 9.75648 96.574 5.49097C96.1715 3.88256 95.6032 2.32718 94.9106 0.818933C94.8218 0.62451 94.7567 0.40063 94.5199 0.312256C94.4548 0.382955 94.4015 0.412413 94.3837 0.459546C94.0937 1.38453 93.8036 2.30951 93.5313 3.24038C93.4425 3.52318 93.5372 3.7883 93.6438 4.07109C93.9694 4.94894 94.3068 5.83268 94.5732 6.73409C96.4734 13.2384 97.9948 24.3205 98.3381 27.4843C98.4979 28.9572 98.6637 30.436 99.0189 31.8794C99.3859 33.3523 99.8832 34.7781 100.742 36.0507C102.227 38.2482 104.323 39.1496 106.945 38.9375C108.431 38.8197 109.793 38.3248 111.071 37.5825C111.314 37.4411 111.563 37.2938 111.782 37.1642C111.876 37.1878 111.936 37.1877 111.989 37.2113C113.931 38.1599 116.008 38.372 118.11 38.154C120.365 37.9183 121.904 36.6752 122.615 34.4894C123.029 33.2168 123.065 31.903 122.887 30.5951L122.881 30.5833ZM112.711 33.5644C112.036 33.1461 111.509 32.716 111.095 32.1622C110.521 31.3904 110.497 30.7482 111.077 29.9705C111.433 29.4933 111.871 29.075 112.285 28.6449C112.421 28.5035 112.599 28.3975 112.77 28.3032C113.268 28.0381 113.641 28.0793 113.996 28.5094C114.653 29.3166 115.085 30.2416 115.239 31.2785C115.292 31.632 115.156 31.8971 114.884 32.0856C114.179 32.5687 113.469 33.046 112.711 33.5585V33.5644Z" fill="#5E5E5E"/>
<path d="M68.858 26.9657C68.5087 26.7183 68.1417 26.4649 67.7451 26.2057C67.7155 26.188 67.6858 26.1703 67.6562 26.1468L67.751 26.0938L68.0292 26.1468C68.3133 26.1998 68.5501 26.3471 68.704 26.5651C68.7869 26.6829 68.8402 26.8184 68.8639 26.9657H68.858Z" fill="#5E5E5E"/>
<path d="M95.5506 35.1962C95.3434 35.6263 95.0356 36.0269 94.6981 36.3686C94.2009 36.8812 93.674 37.3761 93.0998 37.7944C89.2698 40.5517 85.1615 42.7905 80.6566 44.2634C78.3775 45.0116 76.0392 45.3887 73.6299 45.1942C72.5051 45.1059 71.4278 44.8348 70.4096 44.3458C68.8527 43.5976 67.7338 42.4193 66.9169 40.9228C65.7211 38.7429 65.3837 36.4158 65.6323 33.9707C65.8573 31.7614 66.473 29.664 67.4023 27.655C67.5326 27.3722 67.6095 27.0599 67.8996 26.8949C68.1009 26.9303 68.1364 27.0776 68.1068 27.219C68.0476 27.5253 67.9825 27.8376 67.8759 28.1263C67.1419 30.1825 66.982 32.3034 67.13 34.4539C67.1952 35.3671 67.3905 36.2567 67.7161 37.1169C68.4087 38.9197 69.6518 40.1864 71.4514 40.911C72.4163 41.2999 73.4227 41.5061 74.4586 41.5945C76.424 41.7594 78.3479 41.5238 80.2363 40.9817C81.9471 40.4927 83.6046 39.8623 85.2207 39.12C87.7484 37.9594 90.1932 36.6514 92.573 35.2139C93.1353 34.8722 93.674 34.4951 94.2127 34.1121C94.4436 33.9472 94.6508 33.7469 94.858 33.5524C95.1421 33.2932 95.2191 32.9751 95.1125 32.6157C94.9823 32.1797 94.8698 31.7319 94.71 31.3077C94.1654 29.8643 93.603 28.4326 93.0584 26.9892C92.7269 26.1114 92.4191 25.2217 92.0994 24.3321C92.052 24.1966 92.0461 24.0257 91.9573 23.9315C91.614 23.5721 91.6436 23.1538 91.7146 22.7296C91.833 22.0579 91.9573 21.3804 92.0994 20.7147C92.1527 20.4731 92.2711 20.2433 92.348 20.0548C92.5789 19.9605 92.6854 20.0666 92.7742 20.1726C93.5201 21.0033 94.2719 21.8223 95.0001 22.6707C95.2191 22.924 95.3848 23.2363 95.5387 23.5367C95.592 23.6428 95.6098 23.8431 95.5506 23.9256C95.4914 24.0081 95.296 24.0375 95.1776 24.014C94.9053 23.9668 94.6449 23.8726 94.3607 23.796C94.2601 24.0905 94.4377 24.2732 94.5087 24.4735C94.9705 25.6989 95.4559 26.9185 95.9176 28.1499C96.0597 28.521 96.1426 28.9158 96.2491 29.2987C96.8293 31.3549 96.4741 33.3109 95.5624 35.1903L95.5506 35.1962Z" fill="#5E5E5E"/>
<path d="M129.032 37.1348C128.943 37.447 128.89 37.8064 128.528 38.0303C128.286 37.8476 128.262 37.5943 128.244 37.3469C128.185 36.5809 128.108 35.8092 128.084 35.0432C128.043 33.588 127.842 32.1446 127.64 30.707C127.197 27.5432 124.639 11.9659 124.177 9.08487C123.958 7.70624 123.745 6.32172 123.544 4.94308C123.497 4.62494 123.437 4.33625 123.189 4.10058C122.982 3.90616 122.928 3.66461 123.035 3.39359C123.426 2.41559 123.822 1.43169 124.219 0.459578C124.237 0.412445 124.302 0.388879 124.402 0.306396C125.054 1.10765 127.404 6.03303 127.99 7.8064C128.067 8.04206 128.221 8.27183 128.067 8.56641C127.569 8.57231 127.35 8.16579 127.054 7.88888C126.747 7.60019 126.462 7.28794 126.119 6.94033C125.965 7.23491 126.066 7.4529 126.095 7.65322C126.338 9.03185 126.599 10.4046 126.841 11.7773C127.374 14.8056 129.452 27.8319 129.736 30.2828C130.002 32.61 129.677 34.896 129.032 37.1348Z" fill="#5E5E5E"/>
<path d="M115.293 19.2595C115.174 19.6484 114.967 19.9488 114.796 20.267C114.618 20.591 114.434 20.9151 114.257 21.2391C114.073 21.5631 113.89 21.8754 113.694 22.2171C113.037 22.0109 112.546 21.6162 112.001 21.3157C111.451 21.0152 110.918 20.6912 110.273 20.3141C109.776 21.1625 109.326 21.9166 108.864 22.7061C108.189 22.5411 107.686 22.0993 107.124 21.7929C106.549 21.4807 105.993 21.1331 105.442 20.8031C105.632 20.1492 106.543 18.4877 107.064 17.8338C108.189 18.3581 109.207 19.1063 110.362 19.6719C110.989 18.9767 111.261 18.0812 111.847 17.3389C112.487 17.5156 112.996 17.9339 113.558 18.2462C114.133 18.5643 114.689 18.906 115.293 19.2654V19.2595Z" fill="#5E5E5E"/>
<path d="M124.207 21.4159C124.077 21.9933 123.201 23.6312 122.65 24.35C122.029 24.132 119.856 22.8829 119.223 22.3645C119.667 21.4042 120.27 20.5027 120.762 19.4776C119.832 18.8472 118.891 18.423 118.068 17.828C118.364 17.0562 119.282 15.4301 119.702 14.9116C120.448 15.218 122.609 16.4906 123.118 16.9265C122.603 17.8574 122.088 18.806 121.543 19.8016C122.467 20.3613 123.343 20.8916 124.207 21.4101V21.4159Z" fill="#5E5E5E"/>
<path d="M81.2837 27.5902C81.1357 28.1322 80.3306 29.6405 79.6736 30.5772C78.5311 29.9233 77.4241 29.2929 76.3467 28.6389C76.5065 28.0262 77.2938 26.5474 77.8976 25.6931C78.4659 25.864 80.378 26.9304 81.2837 27.5902Z" fill="#5E5E5E"/>
<path d="M106.963 29.8349C106.744 30.5301 106.549 31.243 106.264 31.9088C106.045 32.4154 105.649 32.7866 105.009 32.71C104.471 32.6452 104.045 32.274 103.974 31.5847C103.897 30.8306 103.82 30.0176 104.021 29.3047C104.477 27.7081 105.098 26.1645 105.661 24.6032C105.69 24.5148 105.761 24.4323 105.815 24.3499C105.868 24.3675 105.921 24.3852 105.968 24.4029C105.874 24.7564 105.785 25.104 105.684 25.4575C105.347 26.6535 104.974 27.8377 104.69 29.0455C104.601 29.4166 104.69 29.8526 104.796 30.2297C105.027 31.0191 105.672 31.1429 106.193 30.5184C106.448 30.212 106.649 29.8526 106.939 29.4284C106.951 29.6228 106.987 29.7466 106.957 29.8408L106.963 29.8349Z" fill="#5E5E5E"/>
<path d="M102.091 5.79733C101.872 6.49254 101.677 7.20542 101.392 7.87117C101.173 8.37785 100.777 8.74902 100.137 8.67243C99.5987 8.60762 99.1725 8.23645 99.1014 7.54713C99.0245 6.79301 98.9475 5.97997 99.1488 5.26709C99.6046 3.67046 100.226 2.12687 100.789 0.565594C100.818 0.477221 100.889 0.394738 100.942 0.312256C100.996 0.329931 101.049 0.347605 101.096 0.36528C101.002 0.718776 100.913 1.06638 100.812 1.41988C100.475 2.61587 100.102 3.80008 99.8177 5.00786C99.729 5.37903 99.8177 5.81501 99.9243 6.19207C100.155 6.98154 100.8 7.10526 101.321 6.48076C101.576 6.17439 101.777 5.81501 102.067 5.39081C102.079 5.58523 102.115 5.70896 102.085 5.80322L102.091 5.79733Z" fill="#5E5E5E"/>
<path d="M87.4815 18.04C87.2625 18.7352 87.0672 19.4481 86.783 20.1138C86.564 20.6205 86.1674 20.9917 85.528 20.9151C84.9893 20.8503 84.5631 20.4791 84.4921 19.7898C84.4151 19.0357 84.3382 18.2226 84.5394 17.5098C84.9953 15.9131 85.6168 14.3695 86.1792 12.8083C86.2088 12.7199 86.2798 12.6374 86.3331 12.5549C86.3864 12.5726 86.4397 12.5903 86.487 12.608C86.3923 12.9615 86.3035 13.3091 86.2029 13.6626C85.8655 14.8585 85.4925 16.0428 85.2084 17.2505C85.1196 17.6217 85.2084 18.0577 85.3149 18.4347C85.5458 19.2242 86.191 19.3479 86.712 18.7234C86.9665 18.4171 87.1678 18.0636 87.4579 17.6335C87.4697 17.8279 87.5052 17.9516 87.4756 18.0459L87.4815 18.04Z" fill="#5E5E5E"/>
<path d="M93.295 14.9821C93.076 15.6774 92.8806 16.3902 92.5965 17.056C92.3775 17.5627 91.9808 17.9338 91.3415 17.8572C90.8028 17.7924 90.3766 17.4213 90.3056 16.7319C90.2286 15.9778 90.1516 15.1648 90.3529 14.4519C90.8087 12.8553 91.4303 11.3117 91.9927 9.75041C92.0223 9.66203 92.0933 9.57955 92.1466 9.49707C92.1999 9.51475 92.2531 9.53242 92.3005 9.55009C92.2058 9.90359 92.117 10.2512 92.0163 10.6047C91.6789 11.8007 91.306 12.9849 91.0218 14.1927C90.933 14.5638 91.0218 14.9998 91.1284 15.3769C91.3593 16.1664 92.0045 16.2901 92.5255 15.6656C92.78 15.3592 92.9813 15.0057 93.2713 14.5756C93.2832 14.77 93.3187 14.8938 93.2891 14.988L93.295 14.9821Z" fill="#5E5E5E"/>
<path d="M80.9815 20.9328C80.7625 21.628 80.5672 22.3409 80.283 23.0067C80.064 23.5133 79.6674 23.8845 79.028 23.8079C78.4893 23.7431 78.0631 23.3719 77.9921 22.6826C77.9151 21.9285 77.8382 21.1155 78.0394 20.4026C78.4953 18.806 79.1168 17.2624 79.6792 15.7011C79.7088 15.6127 79.7798 15.5302 79.8331 15.4478C79.8864 15.4654 79.9397 15.4831 79.987 15.5008C79.8923 15.8543 79.8035 16.2019 79.7029 16.5554C79.3655 17.7514 78.9925 18.9356 78.7084 20.1434C78.6196 20.5145 78.7084 20.9505 78.8149 21.3276C79.0458 22.117 79.691 22.2408 80.212 21.6163C80.4665 21.3099 80.6678 20.9564 80.9579 20.5263C80.9697 20.7207 81.0052 20.8445 80.9756 20.9387L80.9815 20.9328Z" fill="#5E5E5E"/>
<path d="M78.0216 11.96C77.7256 12.6257 77.4533 13.315 77.0981 13.9454C76.8258 14.4285 76.3877 14.7526 75.7661 14.6053C75.2393 14.4816 74.8545 14.0633 74.8604 13.3739C74.8604 12.6139 74.8782 11.795 75.1564 11.1116C75.7839 9.57386 76.5771 8.10685 77.3053 6.61628C77.3467 6.5279 77.4237 6.45721 77.4888 6.38062C77.5361 6.40418 77.5894 6.42775 77.6368 6.45131C77.5065 6.78714 77.3763 7.12885 77.2401 7.46467C76.7784 8.61353 76.2752 9.75061 75.8549 10.923C75.7306 11.2824 75.7661 11.7243 75.8313 12.1131C75.9733 12.9203 76.6008 13.1147 77.1869 12.5491C77.4769 12.2722 77.7137 11.9423 78.0511 11.5475C78.0393 11.742 78.063 11.8657 78.0216 11.96Z" fill="#5E5E5E"/>
<path d="M46.6114 20.5969C46.3924 21.2921 46.197 22.005 45.9129 22.6707C45.6939 23.1774 45.2972 23.5486 44.6579 23.472C44.1192 23.4072 43.693 23.036 43.622 22.3467C43.545 21.5926 43.468 20.7795 43.6693 20.0666C44.1251 18.47 44.7467 16.9264 45.3091 15.3652C45.3387 15.2768 45.4097 15.1943 45.463 15.1118C45.5163 15.1295 45.5695 15.1472 45.6169 15.1648C45.5222 15.5183 45.4334 15.8659 45.3328 16.2194C44.9953 17.4154 44.6224 18.5996 44.3382 19.8074C44.2494 20.1786 44.3382 20.6146 44.4448 20.9916C44.6757 21.7811 45.3209 21.9048 45.8419 21.2803C46.0964 20.974 46.2977 20.6205 46.5877 20.1904C46.5996 20.3848 46.6351 20.5085 46.6055 20.6028L46.6114 20.5969Z" fill="#5E5E5E"/>
<path d="M40.8819 20.9328C40.6629 21.628 40.4675 22.3409 40.1834 23.0067C39.9644 23.5133 39.5677 23.8845 38.9284 23.8079C38.3897 23.7431 37.9635 23.3719 37.8925 22.6826C37.8155 21.9285 37.7386 21.1155 37.9398 20.4026C38.3956 18.806 39.0172 17.2624 39.5796 15.7011C39.6092 15.6127 39.6802 15.5302 39.7335 15.4478C39.7868 15.4654 39.8401 15.4831 39.8874 15.5008C39.7927 15.8543 39.7039 16.2019 39.6033 16.5554C39.2658 17.7514 38.8929 18.9356 38.6088 20.1434C38.52 20.5145 38.6088 20.9505 38.7153 21.3276C38.9462 22.117 39.5914 22.2408 40.1124 21.6163C40.3669 21.3099 40.5682 20.9564 40.8583 20.5263C40.8701 20.7207 40.9056 20.8445 40.876 20.9387L40.8819 20.9328Z" fill="#5E5E5E"/>
<path d="M8.06259 32.8928C7.84356 33.588 7.64821 34.3009 7.36406 34.9666C7.14503 35.4733 6.74841 35.8445 6.10909 35.7679C5.57039 35.7031 5.14417 35.3319 5.07314 34.6426C4.99618 33.8885 4.91922 33.0754 5.12049 32.3625C5.57631 30.7659 6.19788 29.2223 6.76025 27.6611C6.78985 27.5727 6.86089 27.4902 6.91417 27.4077C6.96744 27.4254 7.02072 27.4431 7.06808 27.4607C6.97336 27.8142 6.88457 28.1618 6.78393 28.5153C6.44651 29.7113 6.07357 30.8955 5.78942 32.1033C5.70062 32.4745 5.78942 32.9105 5.89598 33.2875C6.12684 34.077 6.77209 34.2007 7.29303 33.5762C7.54758 33.2699 7.74884 32.9164 8.03891 32.4863C8.05075 32.6807 8.08627 32.8044 8.05667 32.8987L8.06259 32.8928Z" fill="#5E5E5E"/>
<path d="M4.07236 25.593C3.85333 26.2882 3.65798 27.0011 3.37383 27.6668C3.1548 28.1735 2.75818 28.5447 2.11885 28.4681C1.58015 28.4033 1.15394 28.0321 1.0829 27.3428C1.00594 26.5887 0.928987 25.7756 1.13026 25.0627C1.58608 23.4661 2.20765 21.9225 2.77002 20.3612C2.79962 20.2729 2.87065 20.1904 2.92393 20.1079C2.97721 20.1256 3.03049 20.1433 3.07784 20.1609C2.98313 20.5144 2.89433 20.862 2.7937 21.2155C2.45627 22.4115 2.08333 23.5957 1.79918 24.8035C1.71039 25.1747 1.79918 25.6107 1.90574 25.9877C2.13661 26.7772 2.78186 26.9009 3.30279 26.2764C3.55734 25.97 3.75861 25.6166 4.04868 25.1865C4.06052 25.3809 4.09603 25.5046 4.06643 25.5989L4.07236 25.593Z" fill="#5E5E5E"/>
<path d="M13.4024 31.0368C13.1834 31.732 12.9881 32.4449 12.7039 33.1107C12.4849 33.6174 12.0883 33.9885 11.4489 33.9119C10.9102 33.8471 10.484 33.476 10.413 32.7866C10.336 32.0325 10.2591 31.2195 10.4603 30.5066C10.9162 28.91 11.5377 27.3664 12.1001 25.8051C12.1297 25.7167 12.2007 25.6342 12.254 25.5518C12.3073 25.5694 12.3606 25.5871 12.4079 25.6048C12.3132 25.9583 12.2244 26.3059 12.1238 26.6594C11.7864 27.8554 11.4134 29.0396 11.1293 30.2474C11.0405 30.6185 11.1293 31.0545 11.2358 31.4316C11.4667 32.221 12.1119 32.3448 12.6329 31.7203C12.8874 31.4139 13.0887 31.0604 13.3788 30.6303C13.3906 30.8247 13.4261 30.9485 13.3965 31.0427L13.4024 31.0368Z" fill="#5E5E5E"/>
<path d="M64.5489 29.7348C64.3299 30.43 64.1345 31.1429 63.8504 31.8087C63.6314 32.3154 63.2347 32.6865 62.5954 32.6099C62.0567 32.5451 61.6305 32.174 61.5595 31.4846C61.4825 30.7305 61.4055 29.9175 61.6068 29.2046C62.0626 27.608 62.6842 26.0644 63.2466 24.5031C63.2762 24.4147 63.3472 24.3322 63.4005 24.2498C63.4538 24.2674 63.5071 24.2851 63.5544 24.3028C63.4597 24.6563 63.3709 25.0039 63.2703 25.3574C62.9328 26.5534 62.5599 27.7376 62.2758 28.9454C62.187 29.3165 62.2757 29.7525 62.3823 30.1296C62.6132 30.919 63.2584 31.0428 63.7794 30.4183C64.0339 30.1119 64.2352 29.7584 64.5252 29.3283C64.5371 29.5227 64.5726 29.6465 64.543 29.7407L64.5489 29.7348Z" fill="#5E5E5E"/>
<path d="M98.4864 41.9716C98.2674 42.6669 98.072 43.3797 97.7879 44.0455C97.5689 44.5522 97.1722 44.9233 96.5329 44.8467C95.9942 44.7819 95.568 44.4108 95.497 43.7214C95.42 42.9673 95.3431 42.1543 95.5443 41.4414C96.0001 39.8448 96.6217 38.3012 97.1841 36.7399C97.2137 36.6515 97.2847 36.5691 97.338 36.4866C97.3913 36.5042 97.4445 36.5219 97.4919 36.5396C97.3972 36.8931 97.3084 37.2407 97.2078 37.5942C96.8703 38.7902 96.4974 39.9744 96.2132 41.1822C96.1244 41.5533 96.2133 41.9893 96.3198 42.3664C96.5507 43.1559 97.1959 43.2796 97.7168 42.6551C97.9714 42.3487 98.1727 41.9893 98.4627 41.5651C98.4746 41.7596 98.5101 41.8833 98.4805 41.9775L98.4864 41.9716Z" fill="#5E5E5E"/>
<path d="M126.392 41.9716C126.173 42.6669 125.977 43.3797 125.693 44.0455C125.474 44.5522 125.078 44.9233 124.438 44.8467C123.899 44.7819 123.473 44.4108 123.402 43.7214C123.325 42.9673 123.248 42.1543 123.45 41.4414C123.905 39.8448 124.527 38.3012 125.089 36.7399C125.119 36.6515 125.19 36.5691 125.243 36.4866C125.297 36.5042 125.35 36.5219 125.397 36.5396C125.302 36.8931 125.214 37.2407 125.113 37.5942C124.776 38.7902 124.403 39.9744 124.119 41.1822C124.03 41.5533 124.119 41.9893 124.225 42.3664C124.456 43.1559 125.101 43.2796 125.622 42.6551C125.877 42.3487 126.078 41.9893 126.368 41.5651C126.38 41.7596 126.415 41.8833 126.386 41.9775L126.392 41.9716Z" fill="#5E5E5E"/>
<path d="M111.782 1.83822C111.663 2.0621 111.539 2.09156 111.355 1.90303C110.698 1.23728 110.432 1.28441 110.142 2.17404C109.929 2.8339 109.769 3.51143 109.639 4.19486C109.242 6.28637 108.224 7.95369 106.448 9.19682C104.891 10.2868 103.139 10.8936 101.375 11.5063C101.31 11.5299 101.233 11.5063 101.162 11.5063C101.15 11.4828 101.138 11.4592 101.12 11.4356C101.286 11.3178 101.452 11.1941 101.623 11.088C103.435 9.96273 105.264 8.861 107.052 7.69446C107.614 7.32919 108.058 6.78127 108.543 6.30405C108.62 6.22746 108.662 6.06249 108.644 5.94466C108.52 4.81937 108.07 3.8119 107.531 2.8339C107.436 2.66304 107.312 2.59823 107.105 2.72785C106.702 2.98119 106.418 2.68072 106.152 2.45094C105.897 2.22706 105.666 1.96194 105.897 1.57899C106.016 1.38457 106.134 1.19014 106.235 0.983937C106.401 0.636333 106.691 0.530284 106.992 0.724707C107.365 0.966263 107.75 1.23728 108.011 1.58488C108.579 2.35079 108.839 3.2522 109.058 4.20075C109.094 4.04757 109.124 3.88849 109.159 3.73531C109.349 2.98119 109.502 2.22117 109.745 1.48472C109.887 1.05464 110.136 0.630442 110.426 0.276946C110.751 -0.123683 111.178 -0.0765498 111.545 0.294621C111.995 0.760057 112.078 1.2903 111.787 1.83822H111.782Z" fill="#5E5E5E"/>
<path d="M67.4196 1.48452C67.3249 1.66716 67.2242 1.69072 67.0762 1.53754C66.5494 1.00141 66.3304 1.03676 66.0995 1.76142C65.9278 2.29167 65.7976 2.84548 65.6969 3.3934C65.3773 5.08428 64.5544 6.42757 63.1219 7.43503C61.8669 8.31877 60.4521 8.80188 59.0314 9.29677C58.9781 9.31445 58.913 9.29677 58.8597 9.29677C58.8478 9.2791 58.836 9.25553 58.8301 9.23786C58.9662 9.14359 59.0965 9.04343 59.2326 8.95506C60.6948 8.04186 62.1747 7.15812 63.6132 6.21547C64.069 5.92089 64.4301 5.47902 64.8149 5.09017C64.88 5.02537 64.9096 4.89575 64.8978 4.80149C64.7971 3.89418 64.4361 3.07525 63.998 2.29167C63.921 2.15027 63.8204 2.10314 63.6547 2.20329C63.3291 2.4095 63.0982 2.16794 62.8851 1.97941C62.6838 1.79677 62.4944 1.58468 62.6779 1.27831C62.7726 1.11924 62.8673 0.966058 62.9502 0.801093C63.0864 0.518297 63.3172 0.435815 63.5599 0.588996C63.8618 0.783419 64.1697 1.00141 64.3828 1.2842C64.8445 1.90282 65.0517 2.63338 65.2293 3.3934C65.2589 3.26967 65.2826 3.14006 65.3122 3.01633C65.4661 2.4095 65.5904 1.79088 65.7857 1.20172C65.9041 0.854118 66.0995 0.512405 66.3363 0.229609C66.6027 -0.094429 66.946 -0.0590794 67.2361 0.241392C67.6031 0.612562 67.6682 1.04265 67.4314 1.48452H67.4196Z" fill="#5E5E5E"/>
<path d="M35.0567 5.79733C34.8377 6.49254 34.6423 7.20542 34.3582 7.87117C34.1392 8.37785 33.7426 8.74902 33.1032 8.67243C32.5645 8.60762 32.1383 8.23645 32.0673 7.54713C31.9903 6.79301 31.9134 5.97997 32.1146 5.26709C32.5705 3.67046 33.192 2.12687 33.7544 0.565594C33.784 0.477221 33.855 0.394738 33.9083 0.312256C33.9616 0.329931 34.0149 0.347605 34.0622 0.36528C33.9675 0.718776 33.8787 1.06638 33.7781 1.41988C33.4406 2.61587 33.0677 3.80008 32.7836 5.00786C32.6948 5.37903 32.7836 5.81501 32.8901 6.19207C33.121 6.98154 33.7662 7.10526 34.2872 6.48076C34.5417 6.17439 34.743 5.81501 35.033 5.39081C35.0449 5.58523 35.0804 5.70896 35.0508 5.80322L35.0567 5.79733Z" fill="#5E5E5E"/>
<path d="M60.0619 4.96658C59.8725 5.55574 59.7126 6.15669 59.4699 6.72817C59.2864 7.15826 58.949 7.4764 58.4044 7.4116C57.9486 7.35857 57.5875 7.04042 57.5283 6.45716C57.4631 5.81497 57.398 5.12566 57.5697 4.52471C57.9545 3.16965 58.4872 1.86171 58.9608 0.536104C58.9904 0.459514 59.0496 0.388814 59.0911 0.318115C59.1325 0.33579 59.1799 0.347573 59.2213 0.359356C59.1443 0.653936 59.0674 0.954408 58.9845 1.25488C58.7004 2.26823 58.3807 3.2757 58.138 4.30083C58.061 4.61309 58.138 4.99015 58.2268 5.3083C58.4221 5.97994 58.9667 6.0801 59.4107 5.54985C59.6298 5.29062 59.8014 4.99015 60.0441 4.62487C60.0501 4.78984 60.0856 4.88999 60.056 4.97248L60.0619 4.96658Z" fill="#5E5E5E"/>
<path d="M43.7171 2.14437C43.5987 2.36825 43.4744 2.39771 43.2908 2.20918C42.6338 1.54343 42.3674 1.59056 42.0773 2.48019C41.8642 3.14005 41.7044 3.81758 41.5741 4.50101C41.1775 6.59253 40.1593 8.25985 38.3834 9.50297C36.8265 10.5929 35.0743 11.1998 33.3102 11.8125C33.2451 11.836 33.1681 11.8125 33.0971 11.8125C33.0853 11.7889 33.0734 11.7653 33.0557 11.7418C33.2214 11.6239 33.3872 11.5002 33.5588 11.3942C35.3703 10.2689 37.1995 9.16715 38.9872 8.00062C39.5496 7.63534 39.9936 7.08742 40.479 6.6102C40.5559 6.53361 40.5974 6.36864 40.5796 6.25081C40.4553 5.12552 40.0054 4.11806 39.4667 3.14005C39.372 2.96919 39.2477 2.90439 39.0405 3.034C38.638 3.28734 38.3538 2.98687 38.0874 2.7571C37.8329 2.53322 37.602 2.26809 37.8329 1.88514C37.9513 1.69072 38.0697 1.4963 38.1703 1.29009C38.336 0.942486 38.6261 0.836437 38.928 1.03086C39.301 1.27241 39.6857 1.54343 39.9462 1.89103C40.5145 2.65694 40.775 3.55835 40.994 4.5069C41.0295 4.35372 41.0591 4.19465 41.0946 4.04146C41.2841 3.28734 41.438 2.52732 41.6807 1.79088C41.8228 1.36079 42.0714 0.936594 42.3615 0.583098C42.687 0.18247 43.1133 0.229603 43.4803 0.600773C43.9302 1.06621 44.0131 1.59645 43.723 2.14437H43.7171Z" fill="#5E5E5E"/>
<path d="M90.986 2.07381C90.8676 2.2977 90.7433 2.32715 90.5598 2.13862C89.9027 1.47287 89.6363 1.52 89.3463 2.41553C89.1331 3.07539 88.9733 3.75292 88.8431 4.43634C88.63 5.57931 88.2274 6.59267 87.6177 7.4823C87.5289 7.61191 87.4342 7.72385 87.2566 7.94773C86.5403 8.84915 86.0016 9.35583 85.2972 10.0628C83.7284 11.6418 83.5805 11.9422 82.3314 13.0675C82.0413 13.3327 81.7927 13.5448 81.627 13.6861C81.6684 13.5683 81.7513 13.3562 81.8637 13.1088C82.8701 10.9348 84.7111 9.71521 86.5226 7.73564C86.7061 7.53532 87.1086 7.08167 87.3395 6.38057C87.3809 6.25685 87.4934 5.89157 87.5112 5.39667C87.5112 5.39667 87.5408 4.56007 86.7357 3.06949C86.712 3.02236 86.6528 2.9281 86.5581 2.89864C86.493 2.88096 86.4101 2.89864 86.3094 2.96345C85.9069 3.21678 85.6228 2.91631 85.3564 2.68654C85.1018 2.46266 84.871 2.19754 85.1018 1.81458C85.2202 1.62016 85.3386 1.42574 85.4393 1.21953C85.605 0.871929 85.8951 0.76588 86.191 0.960303C86.564 1.20186 86.9488 1.47287 87.2092 1.82048C87.7775 2.58638 88.038 3.4878 88.257 4.43634C88.2925 4.28316 88.3221 4.12409 88.3577 3.97091C88.5471 3.21678 88.701 2.45677 88.9437 1.72032C89.0858 1.29023 89.3344 0.866037 89.6245 0.512542C89.9501 0.111913 90.3763 0.159046 90.7433 0.530216C91.1932 0.995652 91.2761 1.5259 90.9801 2.07381H90.986Z" fill="#5E5E5E"/>
<path d="M90.471 26.9305C90.3526 27.1544 90.2283 27.1838 90.0448 26.9953C89.3877 26.3296 89.1213 26.3767 88.8312 27.2663C88.6181 27.9262 88.4583 28.6037 88.328 29.2871C87.9314 31.3787 86.9132 33.046 85.1373 34.2891C83.5804 35.379 81.8282 35.9859 80.0641 36.5986C79.999 36.6222 79.922 36.5986 79.851 36.5986C79.8392 36.575 79.8273 36.5515 79.8096 36.5279C79.9753 36.4101 80.1411 36.2864 80.3127 36.1803C82.1242 35.055 83.9534 33.9533 85.7411 32.7867C86.3035 32.4215 86.7475 31.8736 87.2329 31.3963C87.3099 31.3197 87.3513 31.1548 87.3335 31.0369C87.2092 29.9117 86.7593 28.9042 86.2206 27.9262C86.1259 27.7553 86.0016 27.6905 85.7944 27.8201C85.3919 28.0735 85.1077 27.773 84.8413 27.5432C84.5868 27.3193 84.3559 27.0542 84.5868 26.6713C84.7052 26.4769 84.8236 26.2824 84.9242 26.0762C85.09 25.7286 85.38 25.6226 85.6819 25.817C86.0549 26.0585 86.4396 26.3296 86.7001 26.6772C87.2684 27.4431 87.5289 28.3445 87.7479 29.293C87.7834 29.1399 87.813 28.9808 87.8485 28.8276C88.038 28.0735 88.1919 27.3135 88.4346 26.577C88.5767 26.1469 88.8253 25.7227 89.1154 25.3692C89.4409 24.9686 89.8672 25.0157 90.2342 25.3869C90.6841 25.8523 90.767 26.3826 90.4769 26.9305H90.471Z" fill="#5E5E5E"/>
<path d="M21.7434 28.044C21.625 28.2679 21.5007 28.2974 21.3172 28.1088C20.6601 27.4431 20.3937 27.4902 20.1037 28.3798C19.8906 29.0397 19.7307 29.7172 19.6005 30.4007C19.2039 32.4922 18.1857 34.1595 16.4098 35.4026C14.8529 36.4926 13.1007 37.0994 11.3366 37.7121C11.2715 37.7357 11.1945 37.7121 11.1235 37.7121C11.1116 37.6886 11.0998 37.665 11.082 37.6414C11.2478 37.5236 11.4135 37.3999 11.5852 37.2938C13.3966 36.1685 15.2258 35.0668 17.0136 33.9003C17.576 33.535 18.0199 32.9871 18.5054 32.5099C18.5823 32.4333 18.6237 32.2683 18.606 32.1505C18.4817 31.0252 18.0318 30.0177 17.4931 29.0397C17.3984 28.8689 17.2741 28.804 17.0669 28.9337C16.6643 29.187 16.3802 28.8865 16.1138 28.6568C15.8592 28.4329 15.6284 28.1678 15.8592 27.7848C15.9776 27.5904 16.096 27.396 16.1967 27.1897C16.3624 26.8421 16.6525 26.7361 16.9544 26.9305C17.3273 27.1721 17.7121 27.4431 17.9726 27.7907C18.5409 28.5566 18.8013 29.458 19.0204 30.4066C19.0559 30.2534 19.0855 30.0943 19.121 29.9411C19.3104 29.187 19.4643 28.427 19.7071 27.6905C19.8491 27.2604 20.0978 26.8363 20.3878 26.4828C20.7134 26.0821 21.1396 26.1293 21.5067 26.5004C21.9566 26.9659 22.0394 27.4961 21.7494 28.044H21.7434Z" fill="#5E5E5E"/>
<path d="M110.799 11.3706C105.069 13.851 101.831 15.3298 101.079 15.8247C100.741 16.0721 100.582 16.6024 100.593 17.4154C100.593 17.6393 100.866 17.9457 101.404 18.3286C101.943 18.7116 102.34 18.906 102.594 18.9001C102.884 18.9001 103.05 18.6055 103.092 18.0281C102.346 17.8278 101.718 17.4802 101.191 16.9735C101.842 16.4669 104.441 15.2178 108.988 13.2206C113.114 11.3883 116.677 9.91541 119.673 8.8019C120.146 8.07723 120.253 7.71195 119.998 7.71784C119.566 7.71784 116.5 8.94329 110.799 11.3706Z" fill="#5E5E5E"/>
<path d="M43.2736 10.6106C37.5433 13.091 34.3052 14.5698 33.5534 15.0647C33.216 15.3121 33.0562 15.8424 33.068 16.6554C33.068 16.8793 33.3403 17.1856 33.879 17.5686C34.4177 17.9515 34.8143 18.146 35.0689 18.1401C35.3589 18.1401 35.5247 17.8455 35.5661 17.2681C34.8202 17.0678 34.1927 16.7202 33.6659 16.2135C34.3171 15.7069 36.9158 14.4578 41.4621 12.4606C45.5882 10.6283 49.1519 9.1554 52.1472 8.04189C52.6208 7.31722 52.7274 6.95194 52.4728 6.95783C52.0407 6.95783 48.9743 8.18329 43.2736 10.6106Z" fill="#5E5E5E"/>
<path d="M13.8164 13.4622C9.39435 15.3711 6.89623 16.52 6.3161 16.897C6.05563 17.0856 5.93132 17.498 5.94315 18.1284C5.94315 18.2992 6.15627 18.5349 6.56473 18.8354C6.97911 19.1358 7.28693 19.2772 7.48228 19.2772C7.70723 19.2772 7.83154 19.0475 7.86706 18.6056C7.29285 18.4524 6.80744 18.1814 6.4049 17.7926C6.90807 17.4037 8.91485 16.4375 12.4193 14.8939C15.6041 13.4799 18.3509 12.3428 20.6655 11.4886C21.0325 10.9289 21.1154 10.6461 20.9141 10.6519C20.5767 10.6519 18.2147 11.5946 13.8164 13.4681" fill="#5E5E5E"/>
<path d="M13.8164 19.1888C9.39435 21.0977 6.89623 22.2465 6.3161 22.6236C6.05563 22.8121 5.93132 23.2245 5.94315 23.8549C5.94315 24.0258 6.15627 24.2615 6.56473 24.5619C6.97911 24.8624 7.28693 25.0038 7.48228 25.0038C7.70723 25.0038 7.83154 24.774 7.86706 24.3322C7.29285 24.179 6.80744 23.908 6.4049 23.5191C6.90807 23.1303 8.91485 22.1641 12.4193 20.6205C15.6041 19.2065 18.3509 18.0694 20.6655 17.2151C21.0325 16.6554 21.1154 16.3726 20.9141 16.3785C20.5767 16.3785 18.2147 17.3212 13.8164 19.1947" fill="#5E5E5E"/>
<path d="M119.2 0.30634C118.685 0.276882 118.312 0.954416 118.075 2.34483C117.927 3.09306 117.809 3.83541 117.72 4.58364C117.501 4.15944 117.329 3.78827 117.211 3.46424C116.406 1.90296 115.642 1.13116 114.92 1.16062C114.523 1.16062 114.369 1.56714 114.458 2.38607C114.488 2.56282 114.707 2.76314 115.109 2.98702C115.512 3.2109 115.766 3.31105 115.867 3.2816C115.926 3.22268 115.967 3.15787 115.997 3.08717C116.571 3.57028 116.974 4.24782 117.211 5.12566C117.418 5.81498 117.613 6.15669 117.803 6.15669C117.951 6.18615 118.11 5.41435 118.288 3.8413C118.466 2.26824 118.768 1.48466 119.194 1.48466C119.401 1.48466 119.685 1.72032 120.052 2.18576C120.17 2.18576 120.259 2.00901 120.318 1.66141C120.407 1.29613 120.407 1.07225 120.318 0.983874C119.963 0.530221 119.59 0.30634 119.194 0.30634H119.2Z" fill="#5E5E5E"/>
<path d="M49.9682 0.30634C49.4532 0.276882 49.0802 0.954416 48.8435 2.34483C48.6955 3.09306 48.5771 3.83541 48.4883 4.58364C48.2693 4.15944 48.0976 3.78827 47.9792 3.46424C47.1741 1.90296 46.4105 1.13116 45.6883 1.16062C45.2916 1.16062 45.1377 1.56714 45.2265 2.38607C45.2561 2.56282 45.4751 2.76314 45.8777 2.98702C46.2802 3.2109 46.5348 3.31105 46.6354 3.2816C46.6946 3.22268 46.736 3.15787 46.7656 3.08717C47.3399 3.57028 47.7424 4.24782 47.9792 5.12566C48.1864 5.81498 48.3817 6.15669 48.5712 6.15669C48.7191 6.18615 48.879 5.41435 49.0566 3.8413C49.2342 2.26824 49.5361 1.48466 49.9623 1.48466C50.1695 1.48466 50.4536 1.72032 50.8206 2.18576C50.939 2.18576 51.0278 2.00901 51.087 1.66141C51.1758 1.29613 51.1758 1.07225 51.087 0.983874C50.7319 0.530221 50.3589 0.30634 49.9623 0.30634H49.9682Z" fill="#5E5E5E"/>
<path d="M18.3391 2.40951C18.2207 2.63339 18.0964 2.66285 17.9129 2.47431C17.2558 1.80856 16.9894 1.8557 16.6994 2.74533C16.4863 3.40519 16.3264 4.08272 16.1962 4.76615C15.7996 6.85766 14.7814 8.52498 13.0055 9.76811C11.4486 10.8581 9.69636 11.4649 7.93228 12.0776C7.86717 12.1012 7.79021 12.0776 7.71917 12.0776C7.70733 12.054 7.69549 12.0305 7.67773 12.0069C7.84349 11.8891 8.00924 11.7654 8.18091 11.6593C9.99235 10.534 11.8215 9.43229 13.6093 8.26575C14.1717 7.90047 14.6156 7.35256 15.1011 6.87534C15.178 6.79875 15.2194 6.63378 15.2017 6.51595C15.0774 5.39066 14.6275 4.38319 14.0888 3.40519C13.9941 3.23433 13.8698 3.16952 13.6626 3.29914C13.26 3.55248 12.9759 3.25201 12.7095 3.02223C12.4549 2.79835 12.2241 2.53323 12.4549 2.15028C12.5733 1.95585 12.6917 1.76143 12.7924 1.55523C12.9581 1.20762 13.2482 1.10157 13.5501 1.296C13.923 1.53755 14.3078 1.80856 14.5683 2.15617C15.1366 2.92208 15.397 3.82349 15.6161 4.77204C15.6516 4.61886 15.6812 4.45978 15.7167 4.3066C15.9061 3.55248 16.06 2.79246 16.3028 2.05601C16.4448 1.62593 16.6935 1.20173 16.9835 0.848235C17.3091 0.447606 17.7353 0.494739 18.1024 0.86591C18.5523 1.33135 18.6351 1.86159 18.3451 2.40951H18.3391Z" fill="#5E5E5E"/>
<path d="M63.9626 40.1218C63.5364 40.0982 63.2286 40.6638 63.0332 41.8127C62.9089 42.4313 62.8142 43.0499 62.7432 43.6685C62.5597 43.315 62.4176 43.0087 62.3229 42.7436C61.6539 41.4474 61.0205 40.8111 60.4226 40.8347C60.0911 40.8347 59.9668 41.1764 60.0379 41.8539C60.0615 42.0012 60.2391 42.1662 60.5766 42.3547C60.914 42.5432 61.1212 42.6257 61.204 42.6022C61.2514 42.555 61.2869 42.502 61.3165 42.4372C61.7901 42.8378 62.1275 43.4034 62.3229 44.1281C62.4945 44.6996 62.6603 44.9824 62.8142 44.9824C62.9385 45.0059 63.0687 44.3696 63.2167 43.0676C63.3647 41.7656 63.6134 41.1116 63.9626 41.1116C64.1343 41.1116 64.3711 41.306 64.673 41.6949C64.7677 41.6949 64.8447 41.5476 64.892 41.2589C64.9631 40.9584 64.9631 40.7699 64.892 40.6933C64.602 40.3162 64.2882 40.1277 63.9626 40.1277V40.1218Z" fill="#5E5E5E"/>
<path d="M5.14417 0.571289C4.53444 0.571289 4.1615 1.21347 4.02535 2.49784C3.98983 3.74686 3.97799 4.64827 3.97799 5.1903V5.23743C3.49849 4.15338 2.9006 3.26964 2.19024 2.59211C1.54499 2.01473 0.976694 1.72604 0.479438 1.72604C0.165693 1.72604 0.00585938 2.18559 0.00585938 3.11057C0.00585938 3.24018 0.278169 3.47585 0.822783 3.81167C1.3674 4.14749 1.70482 4.31834 1.84097 4.31834C1.90609 4.31834 1.97121 4.17694 2.04224 3.90004C2.35599 4.08268 2.72893 4.5599 3.16107 5.3317C3.53993 5.97388 3.74712 6.40986 3.78264 6.63963C3.46889 6.63963 3.19659 6.88119 2.96572 7.35841C2.76445 7.72368 2.66973 8.07718 2.66973 8.41889C2.66973 8.58386 2.68749 8.66634 2.71709 8.66634C2.78221 8.66634 2.88284 8.53083 3.01308 8.25982C3.14331 7.98881 3.3209 7.8533 3.53401 7.8533C3.86551 7.8533 4.11414 7.91811 4.27989 8.05361C3.67016 8.15377 3.14923 8.44246 2.71709 8.91968C2.20207 9.46171 1.94752 10.0921 1.94752 10.7991C1.94752 11.3765 2.21983 12.7728 2.76445 14.9998C3.30906 17.5214 3.69976 19.4538 3.93063 20.803C3.96615 20.9857 4.01351 21.0917 4.07863 21.1271C4.17926 21.1271 4.22662 20.9209 4.22662 20.5084C4.22662 19.9664 3.59913 16.6612 2.33823 10.6047C2.30271 10.3278 2.67565 10.0332 3.44522 9.72683C4.21478 9.42046 4.95474 9.23782 5.66511 9.17302C5.73023 9.17302 5.82494 9.0434 5.93742 8.77828C6.05581 8.51316 6.09725 8.29517 6.06173 8.11253C6.02621 7.98291 5.76574 7.70601 5.26848 7.28771C4.77123 6.8694 4.43972 6.65731 4.27397 6.65731C4.33909 5.14317 4.40421 3.82345 4.47524 2.70405C4.47524 2.09721 4.72979 1.79085 5.24481 1.79085C5.59407 1.79085 5.88414 1.96171 6.115 2.30931C6.28076 2.53908 6.39323 2.53908 6.46427 2.30931C6.5649 1.73193 6.5649 1.39611 6.46427 1.29596C6.00253 0.818736 5.56447 0.577181 5.15009 0.577181L5.14417 0.571289Z" fill="#5E5E5E"/>
<path d="M111.497 44.1161L113.717 41.6122C113.717 41.6122 114.303 40.0156 113.262 39.9331C112.22 39.8506 110.213 41.8773 106.631 41.8243C103.05 41.7713 102.192 40.2807 102.008 40.1747C101.825 40.0686 101.392 41.1055 101.712 41.3471C102.032 41.5887 102.861 43.1558 102.647 44.2458C102.647 44.2458 103.612 43.2324 103.02 42.1955C103.02 42.1955 104.731 43.58 108.076 42.8848C111.42 42.1955 112.409 41.0466 112.971 41.1291C113.534 41.2116 112.782 42.007 112.516 42.3251C112.249 42.6432 111.58 43.7096 111.497 44.1103V44.1161Z" fill="#5E5E5E"/>
<path d="M27.7872 41.9716C27.5682 42.6669 27.3728 43.3797 27.0887 44.0455C26.8696 44.5522 26.473 44.9233 25.8337 44.8467C25.295 44.7819 24.8688 44.4108 24.7977 43.7214C24.7208 42.9673 24.6438 42.1543 24.8451 41.4414C25.3009 39.8448 25.9225 38.3012 26.4849 36.7399C26.5145 36.6515 26.5855 36.5691 26.6388 36.4866C26.6921 36.5042 26.7453 36.5219 26.7927 36.5396C26.698 36.8931 26.6092 37.2407 26.5085 37.5942C26.1711 38.7902 25.7982 39.9744 25.514 41.1822C25.4252 41.5533 25.514 41.9893 25.6206 42.3664C25.8515 43.1559 26.4967 43.2796 27.0176 42.6551C27.2722 42.3487 27.4734 41.9893 27.7635 41.5651C27.7754 41.7596 27.8109 41.8833 27.7813 41.9775L27.7872 41.9716Z" fill="#5E5E5E"/>
<path d="M39.5619 44.1161L41.7818 41.6122C41.7818 41.6122 42.3678 40.0156 41.3259 39.9331C40.2841 39.8506 38.2773 41.8773 34.6959 41.8243C31.1144 41.7713 30.2561 40.2807 30.0726 40.1747C29.8891 40.0686 29.4569 41.1055 29.7766 41.3471C30.0963 41.5887 30.925 43.1558 30.7119 44.2458C30.7119 44.2458 31.6768 43.2324 31.0848 42.1955C31.0848 42.1955 32.7956 43.58 36.1403 42.8848C39.4849 42.1955 40.4735 41.0466 41.0359 41.1291C41.5982 41.2116 40.8465 42.007 40.5801 42.3251C40.3137 42.6432 39.6447 43.7096 39.5619 44.1103V44.1161Z" fill="#5E5E5E"/>
<path d="M0.00585938 58.1793V57.8612C0.935255 57.7905 1.03589 57.7256 1.03589 56.7712V52.3996C1.03589 51.4393 0.935255 51.3686 0.00585938 51.3097V50.9739H3.11371V51.3097C2.19023 51.3686 2.09552 51.4393 2.09552 52.3996V56.7712C2.09552 57.7256 2.19615 57.7963 3.11371 57.8612V58.1793H0.00585938Z" fill="#3F1F58"/>
<path d="M13.8518 52.7591C13.7275 52.2053 13.6091 51.9107 13.4611 51.7222C13.2717 51.463 13.0704 51.3805 12.2061 51.3805H11.4306V56.7831C11.4306 57.6609 11.5313 57.7905 12.6087 57.8612V58.1794H9.23443V57.8612C10.2763 57.7905 10.3769 57.6727 10.3769 56.7831V51.3805H9.71392C8.72533 51.3805 8.48854 51.4865 8.33463 51.7222C8.19256 51.9107 8.09192 52.2348 7.94393 52.7591H7.60059C7.65386 52.0403 7.70714 51.3039 7.73082 50.6912H7.97353C8.13928 50.974 8.28727 50.974 8.61878 50.974H13.2302C13.544 50.974 13.6505 50.9033 13.8222 50.6912H14.0649C14.0649 51.1978 14.1241 52.058 14.1774 52.7238L13.834 52.7591H13.8518Z" fill="#3F1F58"/>
<path d="M26.5022 60C25.9221 60.0235 25.3123 59.9469 24.9631 59.8468C24.596 59.7466 23.6844 59.3224 22.2755 58.3327C21.6007 58.3091 20.5706 58.0499 19.8247 57.3782C19.1144 56.736 18.623 55.7875 18.623 54.6975C18.623 52.6296 20.1326 50.8091 22.6603 50.8091C24.6552 50.8091 26.4371 52.2879 26.4371 54.5149C26.4371 56.465 25.1407 57.7494 23.7673 58.1618C24.4421 58.6037 25.5136 59.2694 26.6028 59.7525L26.514 60H26.5022ZM23.051 57.6433C23.1635 57.7022 23.27 57.7729 23.3707 57.8495C24.2586 57.608 25.1821 56.63 25.1821 54.8271C25.1821 52.5471 23.939 51.2274 22.3643 51.2274C21.062 51.2274 19.8662 52.335 19.8662 54.3971C19.8662 56.2706 20.8666 57.6257 22.2282 57.8967L23.051 57.6492V57.6433Z" fill="#3F1F58"/>
<path d="M35.1102 58.1795V57.8613C35.8206 57.7612 35.9153 57.6669 35.7673 57.2191C35.6075 56.7773 35.4003 56.2293 35.1576 55.5872H32.7127C32.5233 56.0938 32.3694 56.5298 32.2273 56.9658C31.9846 57.6374 32.0734 57.7671 32.9377 57.8613V58.1795H30.4277V57.8613C31.1677 57.7494 31.3275 57.6728 31.7301 56.6889L34.1216 50.9092L34.5183 50.8091C35.2464 52.771 35.9804 54.7447 36.7322 56.6889C37.0993 57.6669 37.2591 57.7847 37.9931 57.8613V58.1795H35.1161H35.1102ZM33.9914 52.3291H33.9677C33.6007 53.2482 33.2455 54.1909 32.9022 55.0864H34.9859L33.9914 52.3291Z" fill="#3F1F58"/>
<path d="M50.3057 51.3039C49.6723 51.3334 49.4 51.463 49.3468 51.9697C49.3112 52.3232 49.2757 52.824 49.2757 53.855V58.2855H48.9087L43.9065 52.5117H43.8888V55.216C43.8829 56.2411 43.9243 56.7595 43.9598 57.0777C44.0131 57.6551 44.2736 57.7906 45.055 57.8495V58.1676H42.326V57.8495C42.9831 57.8024 43.2731 57.661 43.3205 57.1072C43.3678 56.7596 43.4093 56.2352 43.4093 55.2101V52.8299C43.4093 52.0168 43.3738 51.9579 43.1666 51.6928C42.9298 51.4218 42.6871 51.3275 42.1543 51.2921V50.9563H43.9065L48.7548 56.4296H48.7844V53.8432C48.7844 52.8122 48.737 52.3114 48.7074 51.9932C48.6541 51.4689 48.3878 51.3275 47.5708 51.2863V50.9504H50.288V51.2863L50.3057 51.3039Z" fill="#3F1F58"/>
<path d="M68.6866 56.2763C68.5327 56.8065 68.2249 57.6785 68.0236 58.032C67.6862 58.1086 66.6857 58.3501 65.8392 58.3501C62.8971 58.3501 61.5889 56.4177 61.5889 54.6679C61.5889 52.3348 63.4832 50.803 66.1293 50.803C67.106 50.803 67.9289 51.0681 68.2485 51.1211C68.3373 51.7515 68.4261 52.2287 68.4913 52.8591L68.1479 52.9357C67.8342 51.7103 67.0764 51.2213 65.8333 51.2213C63.8916 51.2213 62.8557 52.7826 62.8557 54.4322C62.8557 56.5237 64.1403 57.92 65.9339 57.92C67.112 57.92 67.7631 57.2896 68.361 56.1467L68.6866 56.2763Z" fill="#3F1F58"/>
<path d="M77.5898 58.1795V57.8613C78.3001 57.7612 78.3949 57.6669 78.2469 57.2191C78.087 56.7773 77.8798 56.2293 77.6371 55.5872H75.1923C75.0029 56.0938 74.849 56.5298 74.7069 56.9658C74.4642 57.6374 74.553 57.7671 75.4172 57.8613V58.1795H72.9014V57.8613C73.6413 57.7494 73.8012 57.6728 74.2037 56.6889L76.5953 50.9092L76.9919 50.8091C77.72 52.771 78.4541 54.7447 79.2059 56.6889C79.5729 57.6669 79.7327 57.7847 80.4727 57.8613V58.1795H77.5957H77.5898ZM76.471 52.3291H76.4473C76.0803 53.2482 75.7251 54.1909 75.3817 55.0864H77.4655L76.471 52.3291Z" fill="#3F1F58"/>
<path d="M87.8606 50.9739C88.6775 50.9739 89.3286 51.1035 89.7845 51.4334C90.2403 51.7692 90.5303 52.2818 90.5303 53.0124C90.5303 54.4617 89.4174 55.1569 88.3045 55.2865C88.1269 55.3101 87.8961 55.3101 87.7718 55.3042L86.9193 55.0921V56.783C86.9193 57.7315 87.02 57.7905 88.0559 57.867V58.1852H84.8711V57.867C85.7768 57.7905 85.8774 57.7021 85.8774 56.7771V52.4055C85.8774 51.4157 85.7768 51.3686 84.9303 51.3156V50.9798H87.8546L87.8606 50.9739ZM86.9252 54.7033C87.0673 54.7563 87.3811 54.8388 87.7422 54.8388C88.4525 54.8388 89.3464 54.4617 89.3464 53.0477C89.3464 51.8399 88.5709 51.3451 87.6711 51.3451C87.3574 51.3451 87.1206 51.404 87.0496 51.4806C86.9726 51.5571 86.9252 51.675 86.9252 51.9872V54.7033Z" fill="#3F1F58"/>
<path d="M95.0586 58.1793V57.8612C95.988 57.7905 96.0886 57.7256 96.0886 56.7712V52.3996C96.0886 51.4393 95.988 51.3686 95.0586 51.3097V50.9739H98.1664V51.3097C97.243 51.3686 97.1483 51.4393 97.1483 52.3996V56.7712C97.1483 57.7256 97.2489 57.7963 98.1664 57.8612V58.1793H95.0586Z" fill="#3F1F58"/>
<path d="M108.905 52.7591C108.78 52.2053 108.662 51.9107 108.514 51.7222C108.324 51.463 108.123 51.3805 107.259 51.3805H106.483V56.7831C106.483 57.6609 106.584 57.7905 107.661 57.8612V58.1794H104.287V57.8612C105.329 57.7905 105.43 57.6727 105.43 56.7831V51.3805H104.767C103.778 51.3805 103.541 51.4865 103.387 51.7222C103.245 51.9107 103.145 52.2348 102.997 52.7591H102.653C102.707 52.0403 102.76 51.3039 102.784 50.6912H103.026C103.192 50.974 103.34 50.974 103.672 50.974H108.283C108.597 50.974 108.703 50.9033 108.875 50.6912H109.118C109.118 51.1978 109.177 52.058 109.23 52.7238L108.887 52.7591H108.905Z" fill="#3F1F58"/>
<path d="M117.352 58.1795V57.8613C118.063 57.7612 118.157 57.6669 118.009 57.2191C117.85 56.7773 117.642 56.2293 117.4 55.5872H114.955C114.765 56.0938 114.612 56.5298 114.47 56.9658C114.227 57.6374 114.316 57.7671 115.18 57.8613V58.1795H112.67V57.8613C113.41 57.7494 113.57 57.6728 113.972 56.6889L116.364 50.9092L116.76 50.8091C117.489 52.771 118.223 54.7447 118.974 56.6889C119.341 57.6669 119.501 57.7847 120.241 57.8613V58.1795H117.364H117.352ZM116.234 52.3291H116.21C115.843 53.2482 115.488 54.1909 115.144 55.0864H117.228L116.234 52.3291Z" fill="#3F1F58"/>
<path d="M130.257 56.3883C130.18 56.7653 129.943 57.8376 129.831 58.1793H124.574V57.8612C125.551 57.7905 125.646 57.7198 125.646 56.7476V52.3996C125.646 51.4393 125.569 51.3686 124.627 51.3097V50.9739H127.712V51.3097C126.812 51.3686 126.705 51.4334 126.705 52.3996V56.7123C126.705 57.3191 126.759 57.5312 126.972 57.6432C127.191 57.7669 127.581 57.7846 128.031 57.7846C128.635 57.7846 129.038 57.7139 129.298 57.4311C129.511 57.219 129.724 56.8537 129.914 56.3234L130.257 56.3941V56.3883Z" fill="#3F1F58"/>
<path d="M63.9684 36.734C63.9684 38.1244 63.6073 38.8255 62.8733 38.8432H62.8555C59.9726 38.8432 58.1731 35.8797 57.4508 29.9528L56.1248 19.3656C55.1836 12.2486 53.9937 6.13897 52.798 3.41116C52.7624 3.311 52.8631 2.79844 53.1058 1.86167C53.3485 0.924909 53.5024 0.459473 53.5616 0.459473C53.6385 0.459473 53.8694 0.936692 54.2364 1.89113C54.6863 2.9634 55.0474 4.03567 55.3257 5.10794C55.8466 7.16411 56.4623 10.811 56.9122 13.6743C56.699 14.0808 56.5333 14.5109 56.4031 14.9528C56.1899 15.6775 56.0834 16.4728 56.0834 17.3212C56.0834 18.1696 56.3557 18.7588 56.8826 18.9826C56.9891 19.0298 57.0957 19.0828 57.22 19.1535C57.3798 19.2419 57.5456 19.3479 57.7172 19.4658C58.475 25.1865 58.9426 28.5447 59.1261 29.5522C59.8306 33.8 61.3105 35.9269 63.56 35.9269H63.5837C63.8382 35.9445 63.9684 36.2156 63.9684 36.7458V36.734Z" fill="#5E5E5E"/>
<path d="M82.935 2.8101C82.935 3.92361 82.5443 5.23744 81.757 6.75747C80.7566 8.72526 79.4483 10.8286 77.8204 13.0733C77.1929 13.9099 76.8377 14.3046 76.7608 14.2457C76.7253 14.228 76.7016 14.1868 76.7016 14.1279C76.7016 13.8981 77.1219 12.979 77.9625 11.3765C78.8031 9.77985 79.7266 8.29517 80.727 6.92832C81.313 6.12707 81.609 5.52612 81.609 5.11371C81.609 4.41261 81.2065 4.05912 80.4014 4.05912C78.6018 4.05912 74.1324 6.03869 66.9992 9.99784C61.1623 13.2147 58.2439 15.0057 58.2439 15.3769C58.2439 15.6302 59.5285 16.5375 62.0917 18.0929C62.6186 18.4051 62.8435 18.6408 62.7666 18.794C62.6896 18.9531 62.4114 18.9413 61.9437 18.7645C61.7839 18.7292 61.5057 18.6762 61.0913 18.6231C61.7543 19.2653 64.2228 20.9916 68.4969 23.8019C71.8474 26.0053 73.5227 28.197 73.5227 30.3828C73.5227 32.215 73.2149 33.5289 72.6111 34.3301C71.7409 35.5143 70.4208 36.5277 68.6448 37.3761C68.5561 37.2052 68.485 37.0226 68.414 36.84C68.189 36.2508 68.0292 35.6263 67.9404 34.9959C68.5087 34.772 69.0829 34.501 69.6749 34.1887C71.6698 33.1341 72.6703 32.2857 72.6703 31.6436C72.6703 30.3415 71.3975 28.7802 68.8461 26.9656C68.4969 26.7182 68.1298 26.4649 67.7332 26.2056C67.7036 26.1879 67.674 26.1703 67.6444 26.1467C63.4651 23.4248 60.7184 21.3686 59.416 19.9782C58.8004 19.3183 58.1847 18.8176 57.5691 18.4758C57.4388 18.4051 57.3086 18.3344 57.1784 18.2814C56.9475 18.1813 56.8291 17.8631 56.8291 17.3152C56.8291 16.5434 56.9238 15.8246 57.1192 15.1589C57.3323 14.4283 57.6579 13.7685 58.0959 13.1616C59.3095 11.5238 63.2165 9.0493 69.8229 5.73233C75.8551 2.70994 79.697 1.1958 81.3426 1.1958C82.4023 1.1958 82.9291 1.73194 82.9291 2.80421L82.935 2.8101Z" fill="#5E5E5E"/>
<path d="M64.791 35.8384C64.3885 35.8914 63.9919 35.915 63.6012 35.915H63.5834C62.8494 35.9268 62.4883 36.6279 62.4883 38.0242C62.4883 38.5544 62.6185 38.8254 62.879 38.8431H62.9027C63.5893 38.8431 64.2997 38.7724 65.0219 38.631C64.8502 37.7414 64.7733 36.8164 64.8029 35.8443L64.791 35.8384Z" fill="#5E5E5E"/>
<path d="M31.9726 29.016C31.9312 28.7804 31.5345 25.3691 30.765 18.7823C30.1967 14.0278 29.5337 8.70771 28.7108 5.31415C28.4385 4.20064 28.0656 3.06945 27.592 1.92059C27.2013 0.948475 26.9527 0.459473 26.858 0.459473C26.7988 0.459473 26.6212 0.948475 26.3311 1.92059C26.0351 2.89859 25.9108 3.43473 25.9463 3.52899C27.5151 6.68689 28.9239 16.1606 30.2322 29.4579C30.8597 35.6971 33.1329 38.8196 37.0517 38.8196C37.7976 38.8196 38.1705 38.1185 38.1705 36.7163C38.1705 36.1684 38.0344 35.8974 37.7562 35.8974C34.6187 35.8974 32.6889 33.6056 31.9667 29.0219" fill="#5E5E5E"/>
<path d="M43.184 25.5459L41.9349 27.7258L38.9691 25.9937L37.4951 28.639L40.5556 30.4241L41.8106 28.2384L44.7823 29.9764L46.2504 27.3369L43.184 25.5459Z" fill="#5E5E5E"/>
<path d="M49.4945 39.6091L48.2454 41.789L45.2797 40.0569L43.8057 42.6963L46.8721 44.4874L48.1211 42.3016L51.0928 44.0337L52.5609 41.4002L49.4945 39.6091Z" fill="#5E5E5E"/>
<path d="M44.0192 34.2478C43.3148 33.4878 43.1253 32.7278 43.4628 31.9678C43.5397 31.7733 43.5397 31.6555 43.4628 31.6143C43.2852 31.5141 43.0306 31.7026 42.6991 32.1681C42.0539 33.1225 41.5329 33.912 41.1422 34.5365C40.3016 35.3554 39.1828 35.8032 37.7917 35.8798C37.0458 35.8798 36.6729 36.5809 36.6729 37.9831C36.6729 38.531 36.809 38.802 37.0813 38.802C39.0999 38.802 40.8522 37.5176 42.3439 34.943C42.5215 35.921 42.7761 36.5927 43.1076 36.9638C43.6344 37.5707 44.333 37.8888 45.1913 37.93C45.9372 37.93 46.3101 37.2289 46.3101 35.8267C46.3101 35.2788 46.174 35.0078 45.9017 35.0078C45.1558 35.0078 44.5283 34.7545 44.0192 34.2478Z" fill="#5E5E5E"/>
<path d="M55.2845 40.1216L53.8164 42.7551L56.8828 44.5462L58.3509 41.9126L55.2845 40.1216Z" fill="#5E5E5E"/>
<path d="M55.8765 29.894C55.5627 29.2518 55.3259 28.9277 55.172 28.9277C55.095 28.9277 54.9707 29.3284 54.805 30.1296C54.6392 30.9309 54.5564 31.3963 54.5564 31.5318C55.1246 32.5628 55.4088 33.1815 55.4088 33.3759C55.4088 33.5703 55.1424 33.7765 54.6155 33.9886C54.065 34.2596 53.4494 34.3951 52.7627 34.3951C51.999 34.3951 51.6143 35.0962 51.6143 36.4984C51.6143 37.0051 51.7504 37.2585 52.0227 37.2585C55.0003 37.2585 56.4921 35.7679 56.4921 32.7808C56.4921 31.6909 56.2849 30.7247 55.8765 29.8881V29.894Z" fill="#5E5E5E"/>
<path d="M50.4539 33.317C50.004 32.7926 49.7791 32.3508 49.7791 32.0032C49.8205 31.5554 49.7791 31.3139 49.6607 31.2726C49.5008 31.2314 49.2759 31.5731 48.9858 32.2978L48.459 33.7294C47.9321 34.566 47.0678 34.9843 45.872 34.9843C45.1084 34.9843 44.7236 35.6854 44.7236 37.0876C44.7236 37.6532 44.8598 37.936 45.1321 37.936C46.7363 37.936 47.8256 37.2349 48.3939 35.8327C48.6306 35.2259 48.8023 34.8901 48.9207 34.8076C49.5304 36.4454 50.5782 37.2644 52.0641 37.2644C52.7863 37.2644 53.1533 36.5633 53.1533 35.1611C53.1533 34.6544 53.0053 34.4011 52.7152 34.4011C51.7918 34.4011 51.04 34.0417 50.4539 33.317Z" fill="#5E5E5E"/>
<path d="M23.3118 6.15668C23.7617 6.64568 24.1228 7.02274 24.4011 7.29965C24.697 7.6119 24.8983 7.76508 25.0167 7.76508C25.0581 7.6119 25.0937 7.49407 25.1351 7.41159C24.8214 6.4925 24.4188 5.47914 23.9275 4.37152C22.8501 1.76155 22.27 0.453613 22.193 0.453613C22.0924 0.453613 21.9089 0.754085 21.6366 1.36092C21.2814 2.19753 21.0209 2.8456 20.8433 3.29336C20.7664 3.45244 20.9143 3.66453 21.2814 3.93555C21.2814 5.18456 21.8674 9.88017 23.0987 17.0974C24.4721 24.7388 25.2121 29.6936 25.3305 31.956C25.3719 32.5982 25.3305 33.1284 25.2121 33.5349C24.8569 34.454 22.7317 36.0212 18.8365 38.2423C14.5447 40.7168 11.1587 41.954 8.66646 41.954C3.77086 41.954 1.32009 39.5856 1.32009 34.8487C1.32009 33.4053 1.60424 31.8853 2.17253 30.2886C2.29093 29.8821 2.35012 29.5758 2.35012 29.3813C2.35012 29.2282 2.30869 29.1457 2.23173 29.1457C2.01862 29.1457 1.75224 29.4697 1.43849 30.1119C0.479497 32.2564 0 34.5306 0 36.9285C0 37.3762 0.0414362 37.8535 0.118392 38.3601C0.763641 42.8849 3.19664 45.1473 7.40556 45.1473C10.324 45.1473 13.8877 43.91 18.1025 41.4356C21.5478 39.3912 23.8979 37.606 25.141 36.0978C26.3842 34.5895 26.9465 32.3507 26.8281 29.3872C25.5968 20.3613 24.4425 12.3075 23.3059 6.16257L23.3118 6.15668Z" fill="#5E5E5E"/>
<path d="M69.2551 12.8612C69.0657 13.0556 68.8703 13.2795 68.6809 13.5211C68.3198 13.9865 68.0001 14.4873 67.7278 15.0352C67.4555 15.5831 67.3371 16.1605 67.3845 16.7791C67.4022 16.9382 67.4792 17.056 67.6094 17.1267C67.7396 17.1974 67.8758 17.2622 68.012 17.3153C68.4855 17.4272 68.9591 17.4331 69.4327 17.3388C69.9063 17.2446 70.368 17.1739 70.8297 17.1208C71.2678 17.0678 71.6999 16.9971 72.1262 16.897C72.5524 16.8027 72.9786 16.8263 73.4107 16.9794C73.5942 17.0325 73.7482 17.1798 73.8902 17.4272C74.0264 17.6688 74.0737 17.8043 74.0264 17.8278C74.0501 17.8278 73.8784 17.8573 73.5114 17.9103C73.1443 17.9633 72.6945 18.0399 72.1676 18.1283C71.6348 18.2226 71.0784 18.3109 70.4923 18.4052C69.9063 18.4936 69.4031 18.5761 68.9887 18.6527C68.669 18.688 68.3435 18.7175 68.0238 18.7528C67.7041 18.7882 67.3845 18.7528 67.0648 18.6468C66.7451 18.5878 66.4551 18.4877 66.1828 18.3404C65.9164 18.1931 65.6204 18.0576 65.3066 17.928C65.431 18.1813 65.579 18.4229 65.7388 18.6468C65.8986 18.8706 66.0703 19.1004 66.242 19.3302C66.4195 19.4952 66.6267 19.613 66.8635 19.6778C67.1003 19.7426 67.3312 19.7721 67.5621 19.7544C68.4796 19.6778 69.4031 19.5658 70.3384 19.4186C71.2678 19.2713 72.1735 19.0945 73.0496 18.8765C73.2331 18.8412 73.3989 18.8058 73.5528 18.7764C73.7008 18.7469 73.8606 18.6821 74.0264 18.5702C74.1921 18.4406 74.3105 18.2697 74.3875 18.0576C74.4644 17.8455 74.4763 17.6157 74.4289 17.3742C74.3816 17.1326 74.2868 16.9028 74.1507 16.679C74.0086 16.4551 73.831 16.2607 73.6061 16.0957C73.4285 15.9543 73.2272 15.8777 72.9964 15.8659C72.7655 15.8541 72.5405 15.8659 72.3097 15.9072C71.7118 15.9955 71.1139 16.1016 70.516 16.2135C69.9181 16.3255 69.3202 16.3962 68.7223 16.4138C68.5388 16.4315 68.3139 16.4138 68.0534 16.3726C67.7929 16.3255 67.6745 16.2135 67.7041 16.0368C67.7574 15.7893 67.858 15.5537 68.006 15.3298C68.154 15.1059 68.2961 14.8761 68.4441 14.6287C68.6394 14.3636 68.8407 14.0926 69.0597 13.8157C69.2788 13.5387 69.5333 13.3384 69.8411 13.2147C69.9595 13.1499 70.0424 13.1617 70.0957 13.2442C70.149 13.3267 70.2082 13.3915 70.2792 13.4386C70.3325 13.256 70.3917 13.0674 70.4568 12.8671C70.5219 12.6668 70.4982 12.4842 70.3917 12.3192C70.3266 12.2014 70.2496 12.1601 70.1549 12.1896C70.0602 12.219 69.9714 12.2544 69.8767 12.2956C69.6399 12.4665 69.4268 12.655 69.2373 12.8494L69.2551 12.8612Z" fill="#5E5E5E"/>
<path d="M52.3004 24.1378C52.1524 24.1378 52.0755 24.2851 52.0755 24.5797C52.0755 25.2808 51.815 25.6343 51.2941 25.6343C50.7731 25.6343 50.5127 25.1924 50.5127 24.3028C50.5127 23.3071 50.7909 22.1229 51.3473 20.7561C51.5308 20.2023 51.6256 19.4069 51.6256 18.37C51.6256 16.5612 51.1579 14.8409 50.2344 13.2148C49.974 12.773 49.7905 12.5491 49.678 12.5491C49.601 12.5491 49.5004 12.7612 49.3702 13.1854C49.2399 13.6096 49.1748 13.8806 49.1748 13.9866C49.1748 14.0927 49.2458 14.2282 49.3998 14.3755C50.4416 15.5243 50.9626 16.9796 50.9626 18.7588C50.9626 19.5365 50.8678 20.2023 50.6843 20.7561C50.1634 22.0876 49.9029 23.3602 49.9029 24.5797C49.9029 25.2455 50.0687 25.8169 50.4061 26.3001C50.6666 26.7419 50.9448 26.9658 51.2408 26.9658C52.0577 26.9658 52.4662 26.3001 52.4662 24.9686C52.4662 24.4147 52.4129 24.1378 52.3004 24.1378Z" fill="#5E5E5E"/>
</g>
<defs>
<linearGradient id="paint0_linear_240_26939" x1="145.24" y1="5.57346" x2="162.139" y2="19.7276" gradientUnits="userSpaceOnUse">
<stop stop-color="#B5B5B5"/>
<stop offset="0.15" stop-color="#B1B0B2"/>
<stop offset="0.31" stop-color="#A6A2A9"/>
<stop offset="0.49" stop-color="#948C9B"/>
<stop offset="0.67" stop-color="#7B6C87"/>
<stop offset="0.86" stop-color="#5C436E"/>
<stop offset="1" stop-color="#3F1F58"/>
</linearGradient>
<linearGradient id="paint1_linear_240_26939" x1="157.932" y1="-1.42565" x2="198.757" y2="20.4936" gradientUnits="userSpaceOnUse">
<stop stop-color="#B5B5B5"/>
<stop offset="0.13" stop-color="#AFADB0"/>
<stop offset="0.31" stop-color="#9F9AA4"/>
<stop offset="0.53" stop-color="#867990"/>
<stop offset="0.78" stop-color="#634D74"/>
<stop offset="1" stop-color="#3F1F58"/>
</linearGradient>
<linearGradient id="paint2_linear_240_26939" x1="140.729" y1="30.6129" x2="181.554" y2="52.5322" gradientUnits="userSpaceOnUse">
<stop stop-color="#B5B5B5"/>
<stop offset="0.15" stop-color="#B1B0B2"/>
<stop offset="0.31" stop-color="#A6A2A9"/>
<stop offset="0.49" stop-color="#948C9B"/>
<stop offset="0.67" stop-color="#7B6C87"/>
<stop offset="0.86" stop-color="#5C436E"/>
<stop offset="1" stop-color="#3F1F58"/>
</linearGradient>
<clipPath id="clip0_240_26939">
<rect width="192" height="60" fill="white"/>
</clipPath>
</defs>
</svg>
