<svg width="237" height="109" viewBox="0 0 237 109" fill="none" xmlns="http://www.w3.org/2000/svg">
<path d="M222.722 55.0572C222.401 52.7241 221.424 50.6349 220.062 48.7155C219.836 48.3867 219.622 47.9943 219.074 48.0367C218.989 48.1322 218.838 48.2382 218.806 48.3655C218.484 49.8184 218.184 51.2712 217.883 52.7347C217.798 53.1271 218.012 53.424 218.227 53.7209C218.774 54.4739 219.343 55.2162 219.836 56.001C220.265 56.6903 220.673 57.422 220.974 58.1856C221.456 59.3627 221.338 59.7339 220.319 60.3914C217.787 62.0246 215.083 63.1169 211.961 62.7987C211.081 62.7139 210.201 62.5972 209.332 62.47C209.042 62.4275 208.774 62.2685 208.431 62.1306C208.581 61.8337 208.688 61.6004 208.817 61.3883C210.416 58.8431 211.22 56.0752 211.392 53.0847C211.564 50.2213 210.523 47.7398 208.967 45.4385C208.195 44.3038 207.39 44.166 206.113 44.6538C205.223 44.9931 204.493 45.5658 203.817 46.2127C202.122 47.8246 200.706 49.6593 199.6 51.7166C197.776 55.0996 197.379 58.6204 198.592 62.3003C198.678 62.576 198.721 62.873 198.796 63.2653C198.195 63.4562 197.658 63.6471 197.122 63.7956C195.91 64.1349 194.654 64.1455 193.41 64.1031C190.502 63.9971 188.088 62.8623 186.189 60.6777C185.298 59.6597 184.622 58.5037 184.053 57.2842C182.948 54.8769 182.305 52.3423 181.961 49.7335C181.253 44.3462 176.972 17.5689 175.041 9.89102C174.311 6.99589 173.281 4.1962 172.026 1.48135C171.865 1.13139 171.747 0.728409 171.318 0.569336C171.2 0.696594 171.103 0.749619 171.071 0.834458C170.545 2.49942 170.019 4.16439 169.526 5.83996C169.365 6.34899 169.536 6.82621 169.73 7.33524C170.32 8.91537 170.931 10.5061 171.414 12.1286C174.858 23.8364 177.616 43.7842 178.238 49.479C178.528 52.1302 178.828 54.792 179.472 57.3902C180.137 60.0415 181.038 62.6078 182.594 64.8985C185.287 68.8541 189.086 70.4766 193.839 70.0949C196.532 69.8828 199 68.992 201.317 67.6557C201.757 67.4012 202.208 67.1361 202.605 66.9028C202.776 66.9452 202.884 66.9452 202.98 66.9876C206.5 68.695 210.266 69.0768 214.075 68.6844C218.162 68.2602 220.952 66.0226 222.24 62.0882C222.991 59.7975 223.055 57.4327 222.733 55.0784L222.722 55.0572ZM204.289 60.4232C203.066 59.6703 202.111 58.8961 201.36 57.8993C200.319 56.51 200.276 55.3541 201.328 53.9543C201.972 53.0953 202.766 52.3423 203.517 51.5682C203.764 51.3136 204.085 51.1228 204.397 50.9531C205.298 50.4759 205.974 50.5501 206.618 51.3242C207.809 52.7771 208.592 54.4421 208.871 56.3085C208.967 56.9448 208.721 57.422 208.227 57.7614C206.95 58.631 205.663 59.49 204.289 60.4126V60.4232Z" fill="white"/>
<path d="M124.806 48.5458C124.172 48.1004 123.507 47.6444 122.788 47.1778C122.735 47.146 122.681 47.1142 122.627 47.0718L122.799 46.9763L123.303 47.0718C123.818 47.1672 124.248 47.4323 124.527 47.8247C124.677 48.0368 124.773 48.2807 124.816 48.5458H124.806Z" fill="white"/>
<path d="M173.185 63.3607C172.809 64.1349 172.251 64.856 171.64 65.4711C170.738 66.3937 169.783 67.2845 168.743 68.0375C161.801 73.0006 154.354 77.0304 146.189 79.6816C142.058 81.0284 137.82 81.7071 133.453 81.3572C131.415 81.1981 129.462 80.7103 127.617 79.8301C124.795 78.4833 122.767 76.3623 121.286 73.6687C119.119 69.7449 118.507 65.5559 118.958 61.1549C119.366 57.1781 120.481 53.4028 122.166 49.7865C122.402 49.2775 122.541 48.7154 123.067 48.4185C123.432 48.4821 123.496 48.7472 123.443 49.0017C123.335 49.5532 123.217 50.1152 123.024 50.6349C121.694 54.336 121.404 58.1537 121.672 62.0245C121.79 63.6683 122.144 65.2696 122.735 66.8179C123.99 70.063 126.243 72.3431 129.505 73.6475C131.254 74.3474 133.078 74.7185 134.955 74.8776C138.518 75.1745 142.005 74.7504 145.427 73.7747C148.528 72.8945 151.533 71.7598 154.462 70.4236C159.043 68.3344 163.474 65.9801 167.788 63.3925C168.807 62.7775 169.783 62.0987 170.76 61.4094C171.178 61.1125 171.554 60.7519 171.929 60.402C172.444 59.9354 172.584 59.3627 172.391 58.7158C172.155 57.931 171.951 57.1251 171.661 56.3615C170.674 53.7633 169.655 51.1863 168.668 48.5881C168.067 47.008 167.509 45.4067 166.929 43.8053C166.844 43.5614 166.833 43.2539 166.672 43.0842C166.05 42.4373 166.103 41.6844 166.232 40.9208C166.447 39.7119 166.672 38.4923 166.929 37.294C167.026 36.8592 167.24 36.4456 167.38 36.1062C167.798 35.9365 167.992 36.1274 168.153 36.3183C169.504 37.8136 170.867 39.2877 172.187 40.8148C172.584 41.2708 172.884 41.8328 173.163 42.3737C173.26 42.5646 173.292 42.9251 173.185 43.0736C173.077 43.2221 172.723 43.2751 172.509 43.2327C172.015 43.1478 171.543 42.9782 171.028 42.8403C170.846 43.3705 171.168 43.6993 171.296 44.0599C172.133 46.2657 173.013 48.4609 173.85 50.6773C174.107 51.3454 174.258 52.0559 174.451 52.7453C175.502 56.4464 174.858 59.9672 173.206 63.3501L173.185 63.3607Z" fill="white"/>
<path d="M233.871 66.8499C233.71 67.4119 233.613 68.0589 232.959 68.4618C232.519 68.1331 232.476 67.6771 232.444 67.2317C232.336 65.853 232.197 64.4638 232.154 63.0852C232.079 60.4658 231.714 57.8676 231.349 55.28C230.545 49.5852 225.909 21.5459 225.073 16.3601C224.676 13.8786 224.289 11.3864 223.924 8.90487C223.839 8.33221 223.731 7.81257 223.281 7.38838C222.905 7.03841 222.809 6.60361 223.002 6.11579C223.71 4.35538 224.429 2.58437 225.148 0.834565C225.18 0.749726 225.298 0.707306 225.48 0.558838C226.661 2.0011 230.92 10.8668 231.982 14.0588C232.122 14.483 232.401 14.8966 232.122 15.4269C231.221 15.4375 230.824 14.7057 230.287 14.2073C229.729 13.6877 229.214 13.1256 228.592 12.4999C228.313 13.0302 228.495 13.4225 228.549 13.7831C228.989 16.2647 229.461 18.7356 229.901 21.2065C230.866 26.6574 234.632 50.1048 235.148 54.5164C235.63 58.7053 235.04 62.82 233.871 66.8499Z" fill="white"/>
<path d="M208.968 34.6747C208.753 35.3746 208.377 35.9155 208.066 36.4882C207.744 37.0714 207.412 37.6547 207.09 38.238C206.757 38.8212 206.425 39.3833 206.071 39.9984C204.88 39.6272 203.989 38.9167 203.002 38.3758C202.004 37.835 201.039 37.2517 199.869 36.573C198.968 38.1001 198.152 39.4575 197.315 40.8786C196.092 40.5816 195.18 39.7863 194.161 39.2348C193.12 38.6728 192.112 38.0471 191.114 37.4532C191.457 36.2761 193.109 33.2855 194.054 32.1083C196.092 33.0522 197.938 34.399 200.03 35.4171C201.167 34.1657 201.661 32.5537 202.723 31.2175C203.882 31.5357 204.805 32.2886 205.824 32.8507C206.865 33.4233 207.873 34.0384 208.968 34.6853V34.6747Z" fill="white"/>
<path d="M225.126 38.5559C224.89 39.5952 223.302 42.5434 222.304 43.8372C221.178 43.4448 217.24 41.1965 216.092 40.2633C216.896 38.5347 217.991 36.9122 218.881 35.0669C217.197 33.9322 215.491 33.1686 214 32.0976C214.536 30.7083 216.199 27.7814 216.961 26.8481C218.313 27.3996 222.229 29.6903 223.152 30.475C222.218 32.1506 221.285 33.858 220.298 35.6502C221.972 36.6577 223.559 37.6121 225.126 38.5453V38.5559Z" fill="white"/>
<path d="M147.326 49.6699C147.058 50.6455 145.599 53.3604 144.408 55.0466C142.337 53.8694 140.331 52.7347 138.378 51.5576C138.668 50.4547 140.095 47.7928 141.189 46.2551C142.219 46.5627 145.685 48.4822 147.326 49.6699Z" fill="white"/>
<path d="M193.871 53.7103C193.474 54.9617 193.12 56.2449 192.605 57.4432C192.208 58.3552 191.489 59.0233 190.33 58.8855C189.354 58.7688 188.581 58.1007 188.452 56.8599C188.313 55.5025 188.173 54.039 188.538 52.7559C189.364 49.8819 190.491 47.1035 191.51 44.2932C191.564 44.1341 191.693 43.9856 191.789 43.8372C191.886 43.869 191.982 43.9008 192.068 43.9326C191.897 44.5689 191.736 45.1946 191.553 45.8309C190.942 47.9837 190.266 50.1152 189.751 52.2892C189.59 52.9573 189.751 53.7421 189.944 54.4208C190.362 55.8419 191.532 56.0646 192.476 54.9405C192.937 54.389 193.302 53.7421 193.828 52.9786C193.849 53.3285 193.914 53.5512 193.86 53.7209L193.871 53.7103Z" fill="white"/>
<path d="M185.041 10.4425C184.644 11.6938 184.29 12.977 183.775 14.1754C183.378 15.0874 182.659 15.7555 181.5 15.6176C180.524 15.501 179.751 14.8329 179.622 13.5921C179.483 12.2347 179.343 10.7712 179.708 9.48803C180.534 6.61411 181.661 3.83564 182.68 1.02535C182.734 0.866272 182.863 0.717804 182.959 0.569336C183.056 0.601151 183.152 0.632965 183.238 0.66478C183.066 1.30107 182.906 1.92676 182.723 2.56305C182.112 4.71584 181.436 6.84742 180.921 9.02142C180.76 9.68952 180.921 10.4743 181.114 11.153C181.532 12.574 182.702 12.7968 183.646 11.6726C184.107 11.1212 184.472 10.4743 184.998 9.71073C185.019 10.0607 185.084 10.2834 185.03 10.4531L185.041 10.4425Z" fill="white"/>
<path d="M158.56 32.4793C158.163 33.7307 157.809 35.0139 157.294 36.2122C156.897 37.1243 156.178 37.7924 155.019 37.6545C154.043 37.5379 153.271 36.8698 153.142 35.629C153.002 34.2716 152.863 32.8081 153.228 31.5249C154.054 28.651 155.18 25.8725 156.2 23.0622C156.253 22.9031 156.382 22.7547 156.479 22.6062C156.575 22.638 156.672 22.6698 156.758 22.7016C156.586 23.3379 156.425 23.9636 156.243 24.5999C155.631 26.7527 154.955 28.8843 154.44 31.0583C154.279 31.7264 154.44 32.5112 154.633 33.1899C155.052 34.6109 156.221 34.8336 157.165 33.7095C157.627 33.158 157.992 32.5218 158.517 31.7476C158.539 32.0976 158.603 32.3203 158.549 32.4899L158.56 32.4793Z" fill="white"/>
<path d="M169.097 26.9754C168.7 28.2268 168.346 29.51 167.831 30.7083C167.434 31.6204 166.715 32.2885 165.556 32.1506C164.58 32.034 163.807 31.3658 163.678 30.1251C163.539 28.7677 163.399 27.3042 163.764 26.021C164.59 23.1471 165.717 20.3686 166.736 17.5583C166.79 17.3992 166.919 17.2508 167.015 17.1023C167.112 17.1341 167.208 17.1659 167.294 17.1977C167.123 17.834 166.962 18.4597 166.779 19.096C166.168 21.2488 165.492 23.3804 164.977 25.5544C164.816 26.2225 164.977 27.0072 165.17 27.686C165.588 29.107 166.758 29.3297 167.702 28.2056C168.163 27.6541 168.528 27.0178 169.054 26.2437C169.075 26.5937 169.14 26.8164 169.086 26.986L169.097 26.9754Z" fill="white"/>
<path d="M146.779 37.6864C146.382 38.9377 146.028 40.2209 145.513 41.4193C145.116 42.3313 144.398 42.9994 143.239 42.8615C142.262 42.7449 141.49 42.0768 141.361 40.836C141.222 39.4786 141.082 38.0151 141.447 36.7319C142.273 33.858 143.4 31.0795 144.419 28.2692C144.473 28.1102 144.601 27.9617 144.698 27.8132C144.795 27.845 144.891 27.8769 144.977 27.9087C144.805 28.545 144.644 29.1707 144.462 29.8069C143.85 31.9597 143.174 34.0913 142.659 36.2653C142.498 36.9334 142.659 37.7182 142.852 38.3969C143.271 39.8179 144.44 40.0406 145.385 38.9165C145.846 38.3651 146.211 37.7288 146.737 36.9546C146.758 37.3046 146.822 37.5273 146.769 37.697L146.779 37.6864Z" fill="white"/>
<path d="M141.415 21.5352C140.878 22.7336 140.385 23.9744 139.741 25.1091C139.247 25.9787 138.453 26.562 137.327 26.2968C136.372 26.0741 135.674 25.3212 135.685 24.0804C135.685 22.7124 135.717 21.2383 136.222 20.0081C137.359 17.2403 138.797 14.5997 140.116 11.9166C140.192 11.7576 140.331 11.6303 140.449 11.4924C140.535 11.5349 140.631 11.5773 140.717 11.6197C140.481 12.2242 140.245 12.8393 139.998 13.4437C139.162 15.5117 138.25 17.5584 137.488 19.6688C137.262 20.3157 137.327 21.111 137.445 21.811C137.702 23.2638 138.84 23.6138 139.902 22.5957C140.428 22.0973 140.857 21.5034 141.468 20.7929C141.447 21.1429 141.49 21.3656 141.415 21.5352Z" fill="white"/>
<path d="M84.484 37.0819C84.087 38.3332 83.733 39.6164 83.218 40.8148C82.821 41.7268 82.1021 42.3949 80.9433 42.2571C79.9669 42.1404 79.1944 41.4723 79.0657 40.2315C78.9262 38.8741 78.7867 37.4106 79.1515 36.1274C79.9777 33.2535 81.1043 30.475 82.1236 27.6647C82.1772 27.5057 82.306 27.3572 82.4025 27.2087C82.4991 27.2406 82.5957 27.2724 82.6815 27.3042C82.5098 27.9405 82.3489 28.5662 82.1665 29.2025C81.5549 31.3552 80.8789 33.4868 80.3639 35.6608C80.203 36.3289 80.3639 37.1137 80.5571 37.7924C80.9755 39.2135 82.145 39.4362 83.0892 38.312C83.5506 37.7606 83.9154 37.1243 84.4411 36.3501C84.4626 36.7001 84.527 36.9228 84.4733 37.0925L84.484 37.0819Z" fill="white"/>
<path d="M74.0978 37.6864C73.7008 38.9377 73.3467 40.2209 72.8317 41.4193C72.4347 42.3313 71.7159 42.9994 70.5571 42.8615C69.5807 42.7449 68.8082 42.0768 68.6794 40.836C68.5399 39.4786 68.4005 38.0151 68.7653 36.7319C69.5914 33.858 70.718 31.0795 71.7373 28.2692C71.791 28.1102 71.9197 27.9617 72.0163 27.8132C72.1129 27.845 72.2094 27.8769 72.2953 27.9087C72.1236 28.545 71.9626 29.1707 71.7802 29.8069C71.1687 31.9597 70.4927 34.0913 69.9777 36.2653C69.8168 36.9334 69.9777 37.7182 70.1708 38.3969C70.5893 39.8179 71.7588 40.0406 72.703 38.9165C73.1644 38.3651 73.5292 37.7288 74.0549 36.9546C74.0764 37.3046 74.1407 37.5273 74.0871 37.697L74.0978 37.6864Z" fill="white"/>
<path d="M14.6134 59.2144C14.2165 60.4658 13.8624 61.749 13.3474 62.9474C12.9504 63.8594 12.2315 64.5275 11.0727 64.3896C10.0963 64.273 9.32381 63.6049 9.19506 62.3641C9.05558 61.0067 8.91609 59.5432 9.28089 58.26C10.1071 55.3861 11.2337 52.6076 12.253 49.7973C12.3066 49.6382 12.4354 49.4898 12.5319 49.3413C12.6285 49.3731 12.7251 49.4049 12.8109 49.4368C12.6392 50.073 12.4783 50.6987 12.2959 51.335C11.6843 53.4878 11.0083 55.6194 10.4933 57.7934C10.3324 58.4615 10.4933 59.2463 10.6865 59.925C11.1049 61.346 12.2744 61.5687 13.2186 60.4446C13.68 59.8932 14.0448 59.2569 14.5705 58.4827C14.592 58.8327 14.6564 59.0554 14.6027 59.225L14.6134 59.2144Z" fill="white"/>
<path d="M7.382 46.0748C6.98501 47.3262 6.63094 48.6094 6.11592 49.8077C5.71893 50.7197 5.00005 51.3878 3.84127 51.25C2.86488 51.1333 2.09236 50.4652 1.96361 49.2244C1.82413 47.867 1.68464 46.4035 2.04945 45.1204C2.87562 42.2464 4.00222 39.468 5.02152 36.6577C5.07516 36.4986 5.20391 36.3501 5.30048 36.2017C5.39704 36.2335 5.49361 36.2653 5.57945 36.2971C5.40777 36.9334 5.24683 37.5591 5.06443 38.1954C4.45285 40.3482 3.77689 42.4797 3.26187 44.6537C3.10093 45.3218 3.26188 46.1066 3.45501 46.7853C3.87346 48.2064 5.04297 48.4291 5.98716 47.305C6.44853 46.7535 6.81334 46.1172 7.33908 45.3431C7.36054 45.693 7.42492 45.9157 7.37127 46.0854L7.382 46.0748Z" fill="white"/>
<path d="M24.2917 55.8739C23.8947 57.1252 23.5406 58.4084 23.0256 59.6068C22.6286 60.5188 21.9097 61.1869 20.7509 61.049C19.7746 60.9324 19.002 60.2643 18.8733 59.0235C18.7338 57.6661 18.5943 56.2026 18.9591 54.9194C19.7853 52.0455 20.9119 49.267 21.9312 46.4567C21.9848 46.2977 22.1136 46.1492 22.2101 46.0007C22.3067 46.0325 22.4033 46.0644 22.4891 46.0962C22.3174 46.7325 22.1565 47.3582 21.9741 47.9944C21.3625 50.1472 20.6866 52.2788 20.1715 54.4528C20.0106 55.1209 20.1715 55.9057 20.3647 56.5844C20.7831 58.0054 21.9526 58.2281 22.8968 57.104C23.3582 56.5526 23.723 55.9163 24.2487 55.1421C24.2702 55.4921 24.3346 55.7148 24.2809 55.8845L24.2917 55.8739Z" fill="white"/>
<path d="M116.994 53.5301C116.597 54.7815 116.243 56.0647 115.728 57.263C115.331 58.1751 114.612 58.8432 113.454 58.7053C112.477 58.5886 111.705 57.9205 111.576 56.6798C111.436 55.3223 111.297 53.8589 111.662 52.5757C112.488 49.7018 113.615 46.9233 114.634 44.113C114.687 43.9539 114.816 43.8055 114.913 43.657C115.009 43.6888 115.106 43.7206 115.192 43.7524C115.02 44.3887 114.859 45.0144 114.677 45.6507C114.065 47.8035 113.389 49.9351 112.874 52.1091C112.713 52.7772 112.874 53.5619 113.067 54.2406C113.486 55.6617 114.655 55.8844 115.599 54.7603C116.061 54.2088 116.426 53.5725 116.951 52.7984C116.973 53.1483 117.037 53.371 116.984 53.5407L116.994 53.5301Z" fill="white"/>
<path d="M178.507 75.5565C178.11 76.8079 177.755 78.0911 177.24 79.2894C176.843 80.2014 176.125 80.8695 174.966 80.7317C173.989 80.615 173.217 79.9469 173.088 78.7061C172.949 77.3487 172.809 75.8852 173.174 74.602C174 71.7281 175.127 68.9497 176.146 66.1394C176.2 65.9803 176.328 65.8318 176.425 65.6833C176.522 65.7152 176.618 65.747 176.704 65.7788C176.532 66.4151 176.371 67.0408 176.189 67.6771C175.577 69.8299 174.901 71.9614 174.386 74.1354C174.225 74.8035 174.386 75.5883 174.58 76.267C174.998 77.6881 176.167 77.9108 177.112 76.7866C177.573 76.2352 177.938 75.5883 178.464 74.8248C178.485 75.1747 178.549 75.3974 178.496 75.5671L178.507 75.5565Z" fill="white"/>
<path d="M229.085 75.5565C228.688 76.8079 228.334 78.0911 227.819 79.2894C227.422 80.2014 226.703 80.8695 225.544 80.7317C224.568 80.615 223.795 79.9469 223.667 78.7061C223.527 77.3487 223.388 75.8852 223.753 74.602C224.579 71.7281 225.705 68.9497 226.725 66.1394C226.778 65.9803 226.907 65.8318 227.004 65.6833C227.1 65.7152 227.197 65.747 227.283 65.7788C227.111 66.4151 226.95 67.0408 226.768 67.6771C226.156 69.8299 225.48 71.9614 224.965 74.1354C224.804 74.8035 224.965 75.5883 225.158 76.267C225.577 77.6881 226.746 77.9108 227.69 76.7866C228.152 76.2352 228.516 75.5883 229.042 74.8248C229.064 75.1747 229.128 75.3974 229.074 75.5671L229.085 75.5565Z" fill="white"/>
<path d="M202.605 3.31602C202.39 3.719 202.165 3.77203 201.832 3.43267C200.641 2.23432 200.158 2.31916 199.632 3.9205C199.246 5.10824 198.957 6.3278 198.721 7.55797C198.002 11.3227 196.156 14.3239 192.937 16.5615C190.115 18.5234 186.94 19.6157 183.742 20.7186C183.624 20.761 183.485 20.7186 183.356 20.7186C183.334 20.6762 183.313 20.6338 183.281 20.5914C183.581 20.3793 183.882 20.1566 184.193 19.9657C187.476 17.9401 190.791 15.957 194.032 13.8573C195.051 13.1998 195.856 12.2135 196.736 11.3545C196.875 11.2166 196.95 10.9197 196.918 10.7076C196.693 8.68209 195.877 6.86865 194.901 5.10824C194.729 4.8007 194.504 4.68405 194.128 4.91736C193.399 5.37336 192.884 4.83252 192.401 4.41893C191.939 4.01594 191.521 3.53872 191.939 2.84941C192.154 2.49944 192.369 2.14948 192.551 1.77831C192.851 1.15263 193.377 0.961739 193.924 1.3117C194.6 1.7465 195.298 2.23432 195.77 2.86001C196.8 4.23864 197.272 5.86119 197.669 7.56857C197.733 7.29285 197.787 7.00651 197.851 6.73079C198.195 5.37336 198.474 4.00534 198.914 2.67973C199.171 1.90557 199.622 1.14202 200.148 0.505729C200.738 -0.215402 201.51 -0.130563 202.175 0.537544C202.991 1.37533 203.141 2.32977 202.615 3.31602H202.605Z" fill="white"/>
<path d="M122.198 2.67965C122.026 3.0084 121.844 3.05082 121.576 2.7751C120.621 1.81005 120.224 1.87368 119.805 3.17808C119.494 4.13252 119.258 5.12938 119.076 6.11563C118.496 9.15923 117.005 11.5771 114.408 13.3906C112.134 14.9813 109.569 15.8509 106.994 16.7417C106.898 16.7735 106.78 16.7417 106.683 16.7417C106.662 16.7099 106.64 16.6675 106.629 16.6357C106.876 16.466 107.112 16.2857 107.359 16.1266C110.009 14.4829 112.692 12.8921 115.299 11.1954C116.125 10.6651 116.779 9.86975 117.477 9.16983C117.595 9.05318 117.649 8.81987 117.627 8.65019C117.445 7.01704 116.79 5.54297 115.996 4.13252C115.857 3.878 115.674 3.79316 115.374 3.97345C114.784 4.34462 114.365 3.90982 113.979 3.57046C113.614 3.24171 113.271 2.85994 113.604 2.30848C113.775 2.02215 113.947 1.74642 114.097 1.44949C114.344 0.940454 114.762 0.791986 115.202 1.06771C115.749 1.41767 116.307 1.81005 116.694 2.31909C117.531 3.4326 117.906 4.7476 118.228 6.11563C118.282 5.89293 118.325 5.65962 118.378 5.43692C118.657 4.34462 118.882 3.23111 119.237 2.17062C119.451 1.54493 119.805 0.929849 120.234 0.420815C120.717 -0.162453 121.34 -0.0988234 121.865 0.442025C122.53 1.11013 122.649 1.88429 122.219 2.67965H122.198Z" fill="white"/>
<path d="M63.5402 10.4425C63.1432 11.6938 62.7891 12.977 62.2741 14.1754C61.8771 15.0874 61.1583 15.7555 59.9995 15.6176C59.0231 15.501 58.2506 14.8329 58.1218 13.5921C57.9823 12.2347 57.8428 10.7712 58.2076 9.48803C59.0338 6.61411 60.1604 3.83564 61.1797 1.02535C61.2334 0.866272 61.3621 0.717804 61.4587 0.569336C61.5552 0.601151 61.6518 0.632965 61.7376 0.66478C61.566 1.30107 61.405 1.92676 61.2226 2.56305C60.6111 4.71584 59.9351 6.84742 59.4201 9.02142C59.2591 9.68952 59.4201 10.4743 59.6132 11.153C60.0317 12.574 61.2012 12.7968 62.1454 11.6726C62.6067 11.1212 62.9715 10.4743 63.4973 9.71073C63.5187 10.0607 63.5831 10.2834 63.5295 10.4531L63.5402 10.4425Z" fill="white"/>
<path d="M108.862 8.94732C108.518 10.0078 108.228 11.0895 107.789 12.1182C107.456 12.8923 106.844 13.465 105.857 13.3483C105.031 13.2529 104.377 12.6802 104.269 11.6304C104.151 10.4744 104.033 9.23365 104.344 8.15196C105.042 5.71284 106.007 3.35855 106.866 0.972458C106.919 0.834595 107.027 0.707337 107.102 0.580078C107.177 0.611893 107.263 0.633102 107.338 0.654312C107.198 1.18456 107.059 1.7254 106.909 2.26625C106.394 4.09029 105.814 5.90372 105.374 7.74897C105.235 8.31103 105.374 8.98974 105.535 9.5624C105.889 10.7714 106.877 10.9516 107.681 9.9972C108.078 9.53059 108.389 8.98974 108.829 8.33224C108.84 8.62917 108.904 8.80946 108.851 8.95792L108.862 8.94732Z" fill="white"/>
<path d="M79.2374 3.86753C79.0228 4.27052 78.7975 4.32354 78.4648 3.98419C77.2739 2.78584 76.7911 2.87068 76.2653 4.47201C75.879 5.65976 75.5893 6.87932 75.3533 8.10948C74.6344 11.8742 72.789 14.8754 69.5701 17.113C66.7483 19.0749 63.5723 20.1672 60.375 21.2701C60.2569 21.3125 60.1174 21.2701 59.9887 21.2701C59.9672 21.2277 59.9458 21.1853 59.9136 21.1429C60.214 20.9308 60.5144 20.7081 60.8256 20.5172C64.1088 18.4916 67.4242 16.5085 70.6645 14.4088C71.6838 13.7513 72.4885 12.765 73.3683 11.906C73.5078 11.7682 73.5829 11.4712 73.5508 11.2591C73.3254 9.2336 72.51 7.42016 71.5336 5.65976C71.3619 5.35222 71.1366 5.23556 70.7611 5.46887C70.0315 5.92488 69.5165 5.38403 69.0336 4.97044C68.5723 4.56745 68.1538 4.09024 68.5723 3.40092C68.7869 3.05096 69.0014 2.701 69.1838 2.32983C69.4843 1.70414 70.01 1.51325 70.5572 1.86321C71.2332 2.29801 71.9306 2.78584 72.4027 3.41152C73.4327 4.79016 73.9048 6.4127 74.3018 8.12009C74.3662 7.84436 74.4198 7.55803 74.4842 7.2823C74.8276 5.92488 75.1065 4.55685 75.5464 3.23124C75.8039 2.45709 76.2546 1.69353 76.7803 1.05724C77.3704 0.336112 78.143 0.420951 78.8082 1.08906C79.6236 1.92684 79.7738 2.88128 79.2481 3.86753H79.2374Z" fill="white"/>
<path d="M164.912 3.74034C164.697 4.14332 164.472 4.19635 164.14 3.85699C162.949 2.65864 162.466 2.74348 161.94 4.35542C161.554 5.54316 161.264 6.76272 161.028 7.99289C160.642 10.0502 159.912 11.8743 158.807 13.4756C158.646 13.7089 158.474 13.9104 158.152 14.3134C156.854 15.9359 155.878 16.848 154.601 18.1205C151.758 20.9626 151.489 21.5035 149.226 23.529C148.7 24.0062 148.249 24.388 147.949 24.6425C148.024 24.4304 148.174 24.0487 148.378 23.6033C150.202 19.6901 153.539 17.4949 156.822 13.9316C157.155 13.5711 157.884 12.7545 158.303 11.4925C158.378 11.2698 158.582 10.6123 158.614 9.72148C158.614 9.72148 158.667 8.21559 157.208 5.53256C157.165 5.44772 157.058 5.27804 156.886 5.22502C156.768 5.1932 156.618 5.22502 156.436 5.34167C155.706 5.79768 155.191 5.25683 154.708 4.84324C154.247 4.44026 153.828 3.96304 154.247 3.27372C154.462 2.92376 154.676 2.5738 154.859 2.20263C155.159 1.57694 155.685 1.38605 156.221 1.73602C156.897 2.17082 157.595 2.65864 158.067 3.28433C159.097 4.66296 159.569 6.28551 159.966 7.99289C160.03 7.71716 160.084 7.43083 160.148 7.1551C160.491 5.79768 160.77 4.42965 161.21 3.10404C161.468 2.32989 161.919 1.56634 162.444 0.930046C163.034 0.208914 163.807 0.293753 164.472 0.96186C165.288 1.79965 165.438 2.75408 164.901 3.74034H164.912Z" fill="white"/>
<path d="M163.979 48.4823C163.764 48.8853 163.539 48.9383 163.206 48.5989C162.015 47.4006 161.532 47.4854 161.007 49.0868C160.62 50.2745 160.331 51.4941 160.095 52.7242C159.376 56.489 157.53 59.4901 154.311 61.7278C151.489 63.6897 148.314 64.782 145.116 65.8849C144.998 65.9273 144.859 65.8849 144.73 65.8849C144.708 65.8424 144.687 65.8 144.655 65.7576C144.955 65.5455 145.256 65.3228 145.567 65.1319C148.85 63.1064 152.165 61.1233 155.406 59.0235C156.425 58.366 157.23 57.3798 158.11 56.5208C158.249 56.3829 158.324 56.086 158.292 55.8739C158.067 53.8483 157.251 52.0349 156.275 50.2745C156.103 49.967 155.878 49.8503 155.502 50.0836C154.773 50.5396 154.258 49.9988 153.775 49.5852C153.313 49.1822 152.895 48.705 153.313 48.0157C153.528 47.6657 153.743 47.3157 153.925 46.9446C154.225 46.3189 154.751 46.128 155.298 46.478C155.974 46.9128 156.672 47.4006 157.144 48.0263C158.174 49.4049 158.646 51.0274 159.043 52.7348C159.107 52.4591 159.161 52.1728 159.225 51.897C159.569 50.5396 159.848 49.1716 160.288 47.846C160.545 47.0718 160.996 46.3083 161.522 45.672C162.112 44.9509 162.884 45.0357 163.549 45.7038C164.365 46.5416 164.515 47.496 163.989 48.4823H163.979Z" fill="white"/>
<path d="M39.4092 50.4864C39.1947 50.8894 38.9693 50.9424 38.6367 50.6031C37.4458 49.4047 36.9629 49.4896 36.4372 51.0909C36.0509 52.2787 35.7612 53.4982 35.5252 54.7284C34.8063 58.4931 32.9608 61.4943 29.742 63.7319C26.9201 65.6938 23.7442 66.7861 20.5468 67.889C20.4288 67.9314 20.2893 67.889 20.1606 67.889C20.1391 67.8466 20.1176 67.8042 20.0854 67.7618C20.3859 67.5497 20.6863 67.327 20.9975 67.1361C24.2807 65.1105 27.5961 63.1274 30.8364 61.0277C31.8557 60.3702 32.6604 59.3839 33.5402 58.5249C33.6797 58.3871 33.7548 58.0901 33.7226 57.878C33.4973 55.8525 32.6819 54.0391 31.7055 52.2787C31.5338 51.9711 31.3085 51.8545 30.933 52.0878C30.2034 52.5438 29.6883 52.0029 29.2055 51.5893C28.7441 51.1864 28.3257 50.7091 28.7441 50.0198C28.9587 49.6699 29.1733 49.3199 29.3557 48.9487C29.6562 48.323 30.1819 48.1321 30.7291 48.4821C31.4051 48.9169 32.1025 49.4047 32.5746 50.0304C33.6046 51.4091 34.0767 53.0316 34.4737 54.739C34.5381 54.4633 34.5917 54.1769 34.6561 53.9012C34.9994 52.5438 35.2784 51.1757 35.7183 49.8501C35.9758 49.076 36.4265 48.3124 36.9522 47.6761C37.5423 46.955 38.3148 47.0398 38.9801 47.708C39.7955 48.5457 39.9457 49.5002 39.42 50.4864H39.4092Z" fill="white"/>
<path d="M200.824 20.4748C190.438 24.9395 184.569 27.6013 183.206 28.4921C182.595 28.9375 182.305 29.8919 182.326 31.3554C182.326 31.7584 182.82 32.3098 183.796 32.9992C184.773 33.6885 185.491 34.0384 185.953 34.0278C186.479 34.0278 186.779 33.4976 186.854 32.4583C185.502 32.0977 184.365 31.4721 183.41 30.56C184.59 29.648 189.3 27.3998 197.541 23.8047C205.019 20.5066 211.478 17.8554 216.907 15.8511C217.766 14.5467 217.959 13.8892 217.498 13.8998C216.714 13.8998 211.156 16.1056 200.824 20.4748Z" fill="white"/>
<path d="M78.4323 19.1066C68.0462 23.5713 62.1772 26.2331 60.8145 27.1239C60.2029 27.5693 59.9132 28.5238 59.9347 29.9872C59.9347 30.3902 60.4283 30.9417 61.4046 31.631C62.381 32.3203 63.0999 32.6703 63.5613 32.6597C64.087 32.6597 64.3874 32.1294 64.4625 31.0901C63.1106 30.7296 61.9733 30.1039 61.0184 29.1919C62.1986 28.2799 66.9089 26.0316 75.1491 22.4366C82.6275 19.1385 89.0867 16.4872 94.5158 14.4829C95.3742 13.1785 95.5673 12.521 95.1059 12.5316C94.3227 12.5316 88.7648 14.7374 78.4323 19.1066Z" fill="white"/>
<path d="M25.0426 24.2393C17.0277 27.6753 12.4998 29.7433 11.4484 30.422C10.9763 30.7613 10.7509 31.5037 10.7724 32.6384C10.7724 32.9459 11.1587 33.3701 11.899 33.911C12.6501 34.4518 13.208 34.7064 13.5621 34.7064C13.9698 34.7064 14.1951 34.2928 14.2595 33.4974C13.2187 33.2217 12.3389 32.7339 11.6093 32.0339C12.5213 31.334 16.1586 29.5948 22.5105 26.8163C28.2829 24.2712 33.2614 22.2244 37.4566 20.6867C38.1219 19.6793 38.2721 19.1702 37.9073 19.1808C37.2957 19.1808 33.0146 20.8776 25.0426 24.25" fill="white"/>
<path d="M25.0426 34.5475C17.0277 37.9834 12.4998 40.0514 11.4484 40.7301C10.9763 41.0695 10.7509 41.8118 10.7724 42.9465C10.7724 43.2541 11.1587 43.6782 11.899 44.2191C12.6501 44.7599 13.208 45.0145 13.5621 45.0145C13.9698 45.0145 14.1951 44.6009 14.2595 43.8055C13.2187 43.5298 12.3389 43.042 11.6093 42.342C12.5213 41.6421 16.1586 39.9029 22.5105 37.1244C28.2829 34.5793 33.2614 32.5325 37.4566 30.9948C38.1219 29.9874 38.2721 29.4783 37.9073 29.4889C37.2957 29.4889 33.0146 31.1857 25.0426 34.5581" fill="white"/>
<path d="M216.049 0.558786C215.115 0.505761 214.439 1.72532 214.01 4.22807C213.742 5.57489 213.527 6.9111 213.366 8.25792C212.969 7.49437 212.658 6.82626 212.444 6.243C210.984 3.43271 209.6 2.04347 208.291 2.09649C207.572 2.09649 207.293 2.82823 207.454 4.30231C207.508 4.62045 207.905 4.98102 208.635 5.384C209.364 5.78699 209.826 5.96727 210.008 5.91425C210.115 5.8082 210.19 5.69154 210.244 5.56428C211.285 6.43388 212.014 7.65344 212.444 9.23357C212.819 10.4743 213.173 11.0894 213.516 11.0894C213.785 11.1424 214.074 9.75321 214.396 6.92171C214.718 4.09021 215.265 2.67976 216.038 2.67976C216.413 2.67976 216.928 3.10395 217.594 3.94174C217.808 3.94174 217.969 3.62359 218.076 2.99791C218.237 2.3404 218.237 1.93742 218.076 1.77835C217.433 0.961771 216.757 0.558786 216.038 0.558786H216.049Z" fill="white"/>
<path d="M90.5677 0.558786C89.6342 0.505761 88.9583 1.72532 88.5291 4.22807C88.2608 5.57489 88.0463 6.9111 87.8853 8.25792C87.4883 7.49437 87.1772 6.82626 86.9626 6.243C85.5034 3.43271 84.1193 2.04347 82.8103 2.09649C82.0914 2.09649 81.8124 2.82823 81.9734 4.30231C82.027 4.62045 82.424 4.98102 83.1536 5.384C83.8832 5.78699 84.3446 5.96727 84.527 5.91425C84.6343 5.8082 84.7094 5.69154 84.763 5.56428C85.8038 6.43388 86.5334 7.65344 86.9626 9.23357C87.3381 10.4743 87.6922 11.0894 88.0355 11.0894C88.3038 11.1424 88.5935 9.75321 88.9153 6.92171C89.2372 4.09021 89.7844 2.67976 90.5569 2.67976C90.9325 2.67976 91.4475 3.10395 92.1127 3.94174C92.3273 3.94174 92.4883 3.62359 92.5956 2.99791C92.7565 2.3404 92.7565 1.93742 92.5956 1.77835C91.9518 0.961771 91.2758 0.558786 90.5569 0.558786H90.5677Z" fill="white"/>
<path d="M33.2398 4.34483C33.0252 4.74781 32.7999 4.80084 32.4673 4.46148C31.2763 3.26313 30.7935 3.34797 30.2677 4.94931C29.8815 6.13705 29.5918 7.35661 29.3557 8.58678C28.6369 12.3515 26.7914 15.3527 23.5725 17.5903C20.7507 19.5522 17.5748 20.6445 14.3774 21.7474C14.2594 21.7898 14.1199 21.7474 13.9911 21.7474C13.9697 21.705 13.9482 21.6626 13.916 21.6202C14.2164 21.4081 14.5169 21.1854 14.828 20.9945C18.1112 18.9689 21.4267 16.9858 24.667 14.8861C25.6863 14.2286 26.491 13.2423 27.3708 12.3833C27.5103 12.2455 27.5854 11.9485 27.5532 11.7364C27.3279 9.71089 26.5124 7.89746 25.5361 6.13705C25.3644 5.82951 25.1391 5.71286 24.7635 5.94616C24.0339 6.40217 23.5189 5.86132 23.0361 5.44774C22.5747 5.04475 22.1563 4.56753 22.5747 3.87821C22.7893 3.52825 23.0039 3.17829 23.1863 2.80712C23.4867 2.18143 24.0125 1.99055 24.5597 2.34051C25.2356 2.77531 25.933 3.26313 26.4051 3.88882C27.4352 5.26745 27.9073 6.89 28.3042 8.59738C28.3686 8.32166 28.4223 8.03532 28.4867 7.7596C28.83 6.40217 29.109 5.03414 29.5489 3.70854C29.8064 2.93438 30.257 2.17083 30.7828 1.53454C31.3729 0.813406 32.1454 0.898245 32.8106 1.56635C33.6261 2.40414 33.7763 3.35858 33.2505 4.34483H33.2398Z" fill="white"/>
<path d="M115.932 72.2264C115.159 72.184 114.601 73.202 114.247 75.27C114.022 76.3835 113.85 77.497 113.722 78.6105C113.389 77.9742 113.131 77.4228 112.96 76.9455C111.747 74.6125 110.599 73.4671 109.516 73.5096C108.915 73.5096 108.689 74.1246 108.818 75.3442C108.861 75.6093 109.183 75.9063 109.795 76.2456C110.406 76.585 110.782 76.7334 110.932 76.691C111.018 76.6062 111.082 76.5107 111.136 76.3941C111.994 77.1152 112.606 78.1333 112.96 79.4377C113.271 80.4664 113.571 80.9754 113.85 80.9754C114.076 81.0178 114.312 79.8725 114.58 77.5288C114.848 75.1851 115.299 74.008 115.932 74.008C116.243 74.008 116.672 74.3579 117.219 75.0579C117.391 75.0579 117.531 74.7927 117.616 74.2731C117.745 73.7323 117.745 73.3929 117.616 73.255C117.091 72.5763 116.522 72.237 115.932 72.237V72.2264Z" fill="white"/>
<path d="M9.32393 1.03589C8.2188 1.03589 7.54284 2.19182 7.29606 4.50368C7.23168 6.75191 7.21022 8.37446 7.21022 9.35011V9.43495C6.34114 7.48365 5.25746 5.89292 3.96992 4.67336C2.80041 3.63408 1.77038 3.11444 0.869104 3.11444C0.300441 3.11444 0.0107422 3.94162 0.0107422 5.60659C0.0107422 5.83989 0.504304 6.26409 1.49142 6.86857C2.47853 7.47304 3.09011 7.78059 3.33689 7.78059C3.45491 7.78059 3.57293 7.52607 3.70169 7.02764C4.27035 7.35639 4.94631 8.21538 5.72956 9.60462C6.41624 10.7606 6.79178 11.5453 6.85616 11.9589C6.28749 11.9589 5.79393 12.3937 5.37548 13.2527C5.01068 13.9102 4.83901 14.5465 4.83901 15.1616C4.83901 15.4585 4.8712 15.607 4.92485 15.607C5.04287 15.607 5.22527 15.3631 5.46132 14.8752C5.69737 14.3874 6.01925 14.1435 6.40551 14.1435C7.00636 14.1435 7.457 14.2602 7.75743 14.5041C6.65229 14.6844 5.7081 15.204 4.92485 16.063C3.99138 17.0386 3.53001 18.1734 3.53001 19.4459C3.53001 20.4852 4.02357 22.9986 5.01068 27.0072C5.9978 31.5461 6.70594 35.0245 7.12439 37.453C7.18877 37.7818 7.27461 37.9726 7.39263 38.0363C7.57503 38.0363 7.66087 37.6651 7.66087 36.9228C7.66087 35.9471 6.52354 29.9978 4.23816 19.096C4.17378 18.5976 4.84974 18.0673 6.24458 17.5159C7.63941 16.9644 8.98059 16.6357 10.2681 16.519C10.3862 16.519 10.5578 16.2857 10.7617 15.8085C10.9763 15.3313 11.0514 14.9389 10.987 14.6101C10.9226 14.3768 10.4505 13.8784 9.54925 13.1254C8.64797 12.3725 8.04712 11.9907 7.7467 11.9907C7.86472 9.26527 7.98275 6.88978 8.1115 4.87485C8.1115 3.78255 8.57288 3.2311 9.50634 3.2311C10.1394 3.2311 10.6651 3.53864 11.0836 4.16432C11.384 4.57791 11.5879 4.57791 11.7166 4.16432C11.899 3.12505 11.899 2.52057 11.7166 2.34029C10.8797 1.48129 10.0857 1.04649 9.33466 1.04649L9.32393 1.03589Z" fill="white"/>
<path d="M202.09 79.4167L206.113 74.9096C206.113 74.9096 207.176 72.0357 205.287 71.8872C203.399 71.7388 199.762 75.3868 193.27 75.2914C186.779 75.1959 185.223 72.5129 184.89 72.322C184.558 72.1311 183.775 73.9976 184.354 74.4324C184.933 74.8672 186.436 77.6881 186.049 79.65C186.049 79.65 187.798 77.826 186.725 75.9595C186.725 75.9595 189.826 78.4516 195.888 77.2003C201.95 75.9595 203.742 73.8915 204.761 74.04C205.781 74.1885 204.418 75.6201 203.935 76.1928C203.452 76.7655 202.24 78.685 202.09 79.4061V79.4167Z" fill="white"/>
<path d="M50.3644 75.5565C49.9674 76.8079 49.6133 78.0911 49.0983 79.2894C48.7013 80.2014 47.9825 80.8695 46.8237 80.7317C45.8473 80.615 45.0748 79.9469 44.946 78.7061C44.8065 77.3487 44.6671 75.8852 45.0319 74.602C45.858 71.7281 46.9846 68.9497 48.0039 66.1394C48.0576 65.9803 48.1863 65.8318 48.2829 65.6833C48.3795 65.7152 48.476 65.747 48.5619 65.7788C48.3902 66.4151 48.2293 67.0408 48.0469 67.6771C47.4353 69.8299 46.7593 71.9614 46.2443 74.1354C46.0833 74.8035 46.2443 75.5883 46.4374 76.267C46.8559 77.6881 48.0254 77.9108 48.9696 76.7866C49.431 76.2352 49.7958 75.5883 50.3215 74.8248C50.343 75.1747 50.4073 75.3974 50.3537 75.5671L50.3644 75.5565Z" fill="white"/>
<path d="M71.705 79.4167L75.7286 74.9096C75.7286 74.9096 76.7908 72.0357 74.9024 71.8872C73.014 71.7388 69.3767 75.3868 62.8854 75.2914C56.3941 75.1959 54.8383 72.5129 54.5057 72.322C54.1731 72.1311 53.3898 73.9976 53.9692 74.4324C54.5486 74.8672 56.0507 77.6881 55.6645 79.65C55.6645 79.65 57.4134 77.826 56.3404 75.9595C56.3404 75.9595 59.4412 78.4516 65.5034 77.2003C71.5656 75.9595 73.3574 73.8915 74.3767 74.04C75.396 74.1885 74.0333 75.6201 73.5505 76.1928C73.0677 76.7655 71.8553 78.685 71.705 79.4061V79.4167Z" fill="white"/>
<path d="M0.0107422 104.731V104.158C1.69527 104.031 1.87768 103.914 1.87768 102.196V94.3271C1.87768 92.5985 1.69527 92.4713 0.0107422 92.3652V91.7607H5.64372V92.3652C3.96992 92.4713 3.79825 92.5985 3.79825 94.3271V102.196C3.79825 103.914 3.98065 104.041 5.64372 104.158V104.731H0.0107422Z" fill="white"/>
<path d="M25.1072 94.974C24.8819 93.9772 24.6673 93.4469 24.399 93.1076C24.0557 92.6409 23.6909 92.4925 22.1244 92.4925H20.7188V102.217C20.7188 103.797 20.9012 104.031 22.854 104.158V104.73H16.7382V104.158C18.6266 104.031 18.809 103.818 18.809 102.217V92.4925H17.6073C15.8155 92.4925 15.3863 92.6834 15.1073 93.1076C14.8498 93.4469 14.6674 94.0302 14.3992 94.974H13.7769C13.8734 93.6802 13.97 92.3546 14.0129 91.2517H14.4528C14.7532 91.7607 15.0215 91.7607 15.6223 91.7607H23.9806C24.5493 91.7607 24.7424 91.6335 25.0535 91.2517H25.4934C25.4934 92.1637 25.6007 93.712 25.6973 94.9104L25.075 94.974H25.1072Z" fill="white"/>
<path d="M48.0358 108.007C46.9843 108.05 45.8792 107.912 45.2462 107.732C44.5809 107.551 42.9286 106.788 40.375 105.006C39.1518 104.964 37.2849 104.497 35.933 103.288C34.6454 102.132 33.7549 100.425 33.7549 98.4631C33.7549 94.7408 36.4909 91.4639 41.0724 91.4639C44.6882 91.4639 47.9178 94.1257 47.9178 98.1343C47.9178 101.645 45.568 103.956 43.0788 104.699C44.302 105.494 46.244 106.692 48.2182 107.562L48.0573 108.007H48.0358ZM41.7805 103.766C41.9844 103.872 42.1775 103.999 42.3599 104.137C43.9694 103.702 45.6431 101.941 45.6431 98.6964C45.6431 94.5923 43.39 92.2168 40.5359 92.2168C38.1754 92.2168 36.0081 94.2105 36.0081 97.9222C36.0081 101.295 37.8214 103.734 40.2891 104.222L41.7805 103.776V103.766Z" fill="white"/>
<path d="M63.6364 104.731V104.158C64.924 103.978 65.0956 103.808 64.8274 103.002C64.5377 102.207 64.1622 101.22 63.7223 100.064H59.291C58.9477 100.976 58.6687 101.761 58.4112 102.546C57.9713 103.755 58.1322 103.988 59.6987 104.158V104.731H55.1494V104.158C56.4906 103.956 56.7803 103.819 57.5099 102.048L61.8446 91.6442L62.5635 91.4639C63.8832 94.9953 65.2137 98.5479 66.5763 102.048C67.2415 103.808 67.5312 104.02 68.8617 104.158V104.731H63.6472H63.6364ZM61.6086 94.1999H61.5656C60.9004 95.8543 60.2567 97.5511 59.6343 99.163H63.4111L61.6086 94.1999Z" fill="white"/>
<path d="M91.1793 92.3546C90.0312 92.4076 89.5377 92.6409 89.4411 93.5529C89.3767 94.1892 89.3123 95.0906 89.3123 96.9465V104.921H88.6471L79.5807 94.5285H79.5485V99.3962C79.5378 101.241 79.6129 102.175 79.6773 102.747C79.7738 103.787 80.2459 104.031 81.6622 104.137V104.709H76.7159V104.137C77.9069 104.052 78.4327 103.797 78.5185 102.8C78.6043 102.175 78.6794 101.231 78.6794 99.3856V95.1012C78.6794 93.6377 78.6151 93.5317 78.2395 93.0545C77.8104 92.5666 77.3704 92.397 76.4048 92.3333V91.7289H79.5807L88.3682 101.581H88.4218V96.9252C88.4218 95.0694 88.336 94.168 88.2823 93.5953C88.1858 92.6515 87.7029 92.397 86.2223 92.3227V91.7183H91.1471V92.3227L91.1793 92.3546Z" fill="white"/>
<path d="M124.494 101.305C124.215 102.259 123.657 103.829 123.292 104.465C122.681 104.603 120.867 105.038 119.333 105.038C114.001 105.038 111.629 101.56 111.629 98.4099C111.629 94.2104 115.063 91.4531 119.859 91.4531C121.629 91.4531 123.121 91.9303 123.7 92.0258C123.861 93.1605 124.022 94.0195 124.14 95.1542L123.518 95.2921C122.949 93.0863 121.576 92.2061 119.322 92.2061C115.803 92.2061 113.926 95.0164 113.926 97.9857C113.926 101.75 116.254 104.264 119.505 104.264C121.64 104.264 122.82 103.129 123.904 101.072L124.494 101.305Z" fill="white"/>
<path d="M140.632 104.731V104.158C141.919 103.978 142.091 103.808 141.823 103.002C141.533 102.207 141.157 101.22 140.717 100.064H136.286C135.943 100.976 135.664 101.761 135.406 102.546C134.966 103.755 135.127 103.988 136.694 104.158V104.731H132.134V104.158C133.475 103.956 133.765 103.819 134.494 102.048L138.829 91.6442L139.548 91.4639C140.868 94.9953 142.198 98.5479 143.561 102.048C144.226 103.808 144.516 104.02 145.857 104.158V104.731H140.642H140.632ZM138.604 94.1999H138.561C137.896 95.8543 137.252 97.5511 136.629 99.163H140.406L138.604 94.1999Z" fill="white"/>
<path d="M159.247 91.7607C160.728 91.7607 161.908 91.9941 162.734 92.5879C163.56 93.1924 164.086 94.115 164.086 95.43C164.086 98.0388 162.069 99.2902 160.052 99.5235C159.73 99.5659 159.311 99.5659 159.086 99.5553L157.541 99.1736V102.217C157.541 103.925 157.723 104.031 159.601 104.168V104.741H153.829V104.168C155.47 104.031 155.653 103.872 155.653 102.207V94.3377C155.653 92.5561 155.47 92.4713 153.936 92.3758V91.7713H159.236L159.247 91.7607ZM157.552 98.4736C157.809 98.5691 158.378 98.7175 159.032 98.7175C160.32 98.7175 161.94 98.0388 161.94 95.4937C161.94 93.3197 160.535 92.4289 158.904 92.4289C158.335 92.4289 157.906 92.5349 157.777 92.6728C157.638 92.8106 157.552 93.0227 157.552 93.5848V98.4736Z" fill="white"/>
<path d="M172.294 104.731V104.158C173.978 104.031 174.161 103.914 174.161 102.196V94.3271C174.161 92.5985 173.978 92.4713 172.294 92.3652V91.7607H177.927V92.3652C176.253 92.4713 176.081 92.5985 176.081 94.3271V102.196C176.081 103.914 176.264 104.041 177.927 104.158V104.731H172.294Z" fill="white"/>
<path d="M197.39 94.974C197.165 93.9772 196.95 93.4469 196.682 93.1076C196.339 92.6409 195.974 92.4925 194.408 92.4925H193.002V102.217C193.002 103.797 193.184 104.031 195.137 104.158V104.73H189.021V104.158C190.91 104.031 191.092 103.818 191.092 102.217V92.4925H189.89C188.099 92.4925 187.67 92.6834 187.391 93.1076C187.133 93.4469 186.951 94.0302 186.682 94.974H186.06C186.157 93.6802 186.253 92.3546 186.296 91.2517H186.736C187.036 91.7607 187.305 91.7607 187.906 91.7607H196.264C196.832 91.7607 197.026 91.6335 197.337 91.2517H197.777C197.777 92.1637 197.884 93.712 197.981 94.9104L197.358 94.974H197.39Z" fill="white"/>
<path d="M212.701 104.731V104.158C213.989 103.978 214.161 103.808 213.892 103.002C213.603 102.207 213.227 101.22 212.787 100.064H208.356C208.013 100.976 207.734 101.761 207.476 102.546C207.036 103.755 207.197 103.988 208.764 104.158V104.731H204.214V104.158C205.556 103.956 205.845 103.819 206.575 102.048L210.91 91.6442L211.628 91.4639C212.948 94.9953 214.279 98.5479 215.641 102.048C216.306 103.808 216.596 104.02 217.937 104.158V104.731H212.723H212.701ZM210.673 94.1999H210.631C209.965 95.8543 209.322 97.5511 208.699 99.163H212.476L210.673 94.1999Z" fill="white"/>
<path d="M236.091 101.507C235.952 102.185 235.523 104.115 235.319 104.731H225.791V104.158C227.561 104.031 227.733 103.903 227.733 102.154V94.3271C227.733 92.5985 227.594 92.4713 225.888 92.3652V91.7607H231.478V92.3652C229.847 92.4713 229.654 92.5879 229.654 94.3271V102.09C229.654 103.182 229.75 103.564 230.136 103.765C230.533 103.988 231.242 104.02 232.057 104.02C233.151 104.02 233.881 103.893 234.353 103.384C234.739 103.002 235.126 102.344 235.469 101.39L236.091 101.517V101.507Z" fill="white"/>
<path d="M115.943 66.1287C115.943 68.6314 115.288 69.8934 113.958 69.9252H113.926C108.7 69.9252 105.439 64.591 104.13 53.9225L101.726 34.8655C100.02 22.0548 97.8635 11.0576 95.6962 6.14751C95.6318 5.96723 95.8142 5.04461 96.2541 3.35843C96.694 1.67226 96.973 0.834473 97.0803 0.834473C97.2197 0.834473 97.6382 1.69347 98.3034 3.41146C99.1189 5.34154 99.7734 7.27163 100.278 9.20172C101.222 12.9028 102.338 19.4672 103.153 24.6212C102.767 25.3529 102.466 26.1271 102.23 26.9225C101.844 28.2269 101.651 29.6585 101.651 31.1856C101.651 32.7127 102.145 33.7732 103.1 34.1762C103.293 34.261 103.486 34.3565 103.711 34.4837C104.001 34.6428 104.301 34.8337 104.612 35.0458C105.986 45.3431 106.833 51.3879 107.166 53.2013C108.443 60.8474 111.125 64.6758 115.202 64.6758H115.245C115.707 64.7076 115.943 65.1954 115.943 66.1499V66.1287Z" fill="white"/>
<path d="M150.32 5.06589C150.32 7.07021 149.612 9.4351 148.185 12.1712C146.371 15.7132 144 19.4991 141.05 23.5396C139.912 25.0455 139.269 25.756 139.129 25.6499C139.065 25.6181 139.022 25.5439 139.022 25.4378C139.022 25.0243 139.784 23.3699 141.307 20.4854C142.831 17.6115 144.505 14.939 146.318 12.4787C147.38 11.0364 147.917 9.95474 147.917 9.2124C147.917 7.95042 147.187 7.31412 145.728 7.31412C142.466 7.31412 134.365 10.8774 121.436 18.0038C110.857 23.7941 105.567 27.018 105.567 27.6861C105.567 28.1421 107.896 29.7752 112.541 32.5749C113.496 33.137 113.904 33.5612 113.765 33.8369C113.625 34.1232 113.121 34.102 112.273 33.7839C111.984 33.7202 111.479 33.6248 110.728 33.5294C111.93 34.6853 116.404 37.7925 124.151 42.851C130.224 46.8173 133.26 50.7623 133.26 54.6967C133.26 57.9948 132.702 60.3597 131.608 61.8019C130.03 63.9335 127.638 65.7576 124.419 67.2847C124.258 66.9771 124.129 66.6484 124.001 66.3196C123.593 65.2591 123.303 64.135 123.142 63.0003C124.172 62.5973 125.213 62.1095 126.286 61.5474C129.902 59.6492 131.715 58.1221 131.715 56.9661C131.715 54.6225 129.408 51.8122 124.784 48.5459C124.151 48.1005 123.486 47.6444 122.767 47.1778C122.713 47.146 122.659 47.1142 122.606 47.0718C115.031 42.1723 110.052 38.4712 107.692 35.9685C106.576 34.7807 105.46 33.8793 104.344 33.2642C104.108 33.137 103.872 33.0097 103.636 32.9143C103.218 32.734 103.003 32.1613 103.003 31.1751C103.003 29.7858 103.175 28.492 103.529 27.2937C103.915 25.9787 104.505 24.7909 105.299 23.6986C107.499 20.7505 114.58 16.2964 126.554 10.3259C137.487 4.88561 144.451 2.16016 147.434 2.16016C149.354 2.16016 150.309 3.1252 150.309 5.05529L150.32 5.06589Z" fill="white"/>
<path d="M117.434 64.5168C116.704 64.6123 115.986 64.6547 115.277 64.6547H115.245C113.915 64.6759 113.26 65.9379 113.26 68.4513C113.26 69.4057 113.496 69.8935 113.968 69.9253H114.011C115.256 69.9253 116.543 69.7981 117.852 69.5436C117.541 67.9422 117.402 66.2773 117.455 64.5274L117.434 64.5168Z" fill="white"/>
<path d="M57.9499 52.2363C57.8748 51.8121 57.1559 45.6719 55.7611 33.8156C54.7311 25.2575 53.5294 15.6813 52.038 9.57289C51.5444 7.56857 50.8685 5.53243 50.0101 3.46448C49.302 1.71468 48.8513 0.834473 48.6796 0.834473C48.5723 0.834473 48.2505 1.71468 47.7247 3.46448C47.1882 5.22489 46.9629 6.18993 47.0273 6.35961C49.8706 12.0438 52.4242 29.0965 54.7954 53.0317C55.9328 64.2622 60.0529 69.8828 67.1558 69.8828C68.5077 69.8828 69.1837 68.6208 69.1837 66.0969C69.1837 65.1106 68.9369 64.6228 68.4326 64.6228C62.746 64.6228 59.2482 60.4975 57.9392 52.2469" fill="white"/>
<path d="M78.2715 45.99L76.0076 49.9138L70.6321 46.796L67.9604 51.5575L73.5076 54.7708L75.7822 50.8364L81.1684 53.9649L83.8293 49.2139L78.2715 45.99Z" fill="white"/>
<path d="M89.709 71.304L87.4451 75.2278L82.0696 72.1099L79.3979 76.8609L84.9558 80.0848L87.2197 76.1504L92.6059 79.2682L95.2668 74.5278L89.709 71.304Z" fill="white"/>
<path d="M79.7845 61.6534C78.5077 60.2853 78.1644 58.9173 78.776 57.5493C78.9154 57.1993 78.9154 56.9872 78.776 56.913C78.4541 56.7327 77.9927 57.0721 77.3918 57.9098C76.2223 59.6278 75.2781 61.0489 74.57 62.173C73.0464 63.6471 71.0185 64.4531 68.4971 64.5909C67.1452 64.5909 66.4692 65.8529 66.4692 68.3769C66.4692 69.3631 66.716 69.8509 67.2096 69.8509C70.8683 69.8509 74.0443 67.5391 76.7481 62.9047C77.07 64.6652 77.5313 65.8741 78.1322 66.5422C79.0871 67.6345 80.3532 68.2072 81.909 68.2814C83.2609 68.2814 83.9368 67.0194 83.9368 64.4955C83.9368 63.5092 83.6901 63.0214 83.1965 63.0214C81.8446 63.0214 80.7073 62.5654 79.7845 61.6534Z" fill="white"/>
<path d="M100.202 72.2266L97.5415 76.9669L103.099 80.1908L105.76 75.4504L100.202 72.2266Z" fill="white"/>
<path d="M101.276 53.8164C100.707 52.6604 100.278 52.0771 99.9987 52.0771C99.8592 52.0771 99.6339 52.7983 99.3335 54.2405C99.0331 55.6828 98.8828 56.5206 98.8828 56.7645C99.9129 58.6204 100.428 59.7339 100.428 60.0838C100.428 60.4338 99.9451 60.805 98.9901 61.1867C97.9923 61.6746 96.8764 61.9185 95.6318 61.9185C94.2477 61.9185 93.5503 63.1805 93.5503 65.7044C93.5503 66.6164 93.7971 67.0724 94.2906 67.0724C99.6875 67.0724 102.391 64.3894 102.391 59.0127C102.391 57.0508 102.016 55.3116 101.276 53.8057V53.8164Z" fill="white"/>
<path d="M91.4472 59.9779C90.6317 59.034 90.224 58.2387 90.224 57.613C90.2991 56.807 90.224 56.3722 90.0094 56.298C89.7197 56.2238 89.312 56.8388 88.7863 58.1432L87.8313 60.7202C86.8764 62.2261 85.3099 62.9791 83.1425 62.9791C81.7584 62.9791 81.061 64.241 81.061 66.765C81.061 67.7831 81.3078 68.2921 81.8014 68.2921C84.709 68.2921 86.6833 67.0301 87.7133 64.5062C88.1425 63.4139 88.4536 62.8094 88.6682 62.6609C89.7734 65.6091 91.6725 67.0831 94.3656 67.0831C95.6746 67.0831 96.3398 65.8212 96.3398 63.2972C96.3398 62.3852 96.0716 61.9292 95.5458 61.9292C93.872 61.9292 92.5094 61.2823 91.4472 59.9779Z" fill="white"/>
<path d="M42.2527 11.0895C43.0681 11.9697 43.7226 12.6484 44.2269 13.1468C44.7634 13.7089 45.1282 13.9846 45.3428 13.9846C45.4179 13.7089 45.4823 13.4968 45.5574 13.3483C44.9887 11.694 44.2591 9.86993 43.3686 7.87621C41.4158 3.17826 40.3643 0.823975 40.2248 0.823975C40.0424 0.823975 39.7098 1.36482 39.2163 2.45712C38.5725 3.96302 38.1004 5.12955 37.7785 5.93552C37.639 6.22185 37.9073 6.60363 38.5725 7.09145C38.5725 9.33969 39.6347 17.7918 41.8664 30.7827C44.3557 44.5373 45.6969 53.4559 45.9114 57.5282C45.9865 58.6841 45.9114 59.6386 45.6969 60.3703C45.0531 62.0247 41.2012 64.8456 34.1412 68.8436C26.3623 73.2977 20.2251 75.5247 15.708 75.5247C6.83468 75.5247 2.39267 71.2615 2.39267 62.7352C2.39267 60.137 2.90769 57.401 3.93772 54.527C4.15231 53.7953 4.2596 53.2438 4.2596 52.8939C4.2596 52.6182 4.18449 52.4697 4.04501 52.4697C3.65875 52.4697 3.17593 53.053 2.60726 54.2089C0.869088 58.0691 0 62.1625 0 66.4787C0 67.2847 0.0751031 68.1437 0.214586 69.0557C1.3841 77.2003 5.79391 81.2725 13.4226 81.2725C18.7122 81.2725 25.1714 79.0455 32.8108 74.5915C39.0553 70.9116 43.3149 67.6983 45.5681 64.9834C47.8213 62.2686 48.8406 58.2387 48.626 52.9045C46.3943 36.6578 44.302 22.161 42.242 11.1001L42.2527 11.0895Z" fill="white"/>
<path d="M125.524 23.1578C125.181 23.5078 124.827 23.9107 124.483 24.3455C123.829 25.1833 123.25 26.0847 122.756 27.071C122.262 28.0573 122.048 29.0965 122.134 30.21C122.166 30.4964 122.305 30.7085 122.541 30.8357C122.777 30.963 123.024 31.0796 123.271 31.1751C124.129 31.3766 124.988 31.3872 125.846 31.2175C126.704 31.0478 127.541 30.9206 128.378 30.8251C129.172 30.7297 129.956 30.6024 130.728 30.4221C131.501 30.2525 132.273 30.2949 133.056 30.5706C133.389 30.6661 133.668 30.9312 133.925 31.3766C134.172 31.8114 134.258 32.0553 134.172 32.0977C134.215 32.0977 133.904 32.1507 133.239 32.2462C132.574 32.3416 131.758 32.4795 130.803 32.6386C129.838 32.8082 128.829 32.9673 127.767 33.137C126.704 33.2961 125.792 33.4445 125.041 33.5824C124.462 33.646 123.872 33.699 123.293 33.7627C122.713 33.8263 122.134 33.7627 121.554 33.5718C120.975 33.4657 120.449 33.2855 119.956 33.0203C119.473 32.7552 118.936 32.5113 118.368 32.278C118.593 32.734 118.861 33.1688 119.151 33.5718C119.441 33.9748 119.752 34.3884 120.063 34.802C120.385 35.0989 120.76 35.311 121.19 35.4276C121.619 35.5443 122.037 35.5973 122.456 35.5655C124.119 35.4276 125.792 35.2261 127.488 34.961C129.172 34.6959 130.814 34.3778 132.402 33.9854C132.734 33.9217 133.035 33.8581 133.314 33.8051C133.582 33.7521 133.872 33.6354 134.172 33.4339C134.473 33.2006 134.687 32.8931 134.827 32.5113C134.966 32.1295 134.988 31.7159 134.902 31.2811C134.816 30.8463 134.644 30.4327 134.398 30.0298C134.14 29.6268 133.818 29.2768 133.41 28.9799C133.089 28.7254 132.724 28.5875 132.305 28.5663C131.887 28.5451 131.479 28.5663 131.061 28.6405C129.977 28.7996 128.893 28.9905 127.81 29.192C126.726 29.3935 125.642 29.5207 124.559 29.5525C124.226 29.5844 123.818 29.5525 123.346 29.4783C122.874 29.3935 122.659 29.192 122.713 28.8738C122.81 28.4284 122.992 28.0042 123.26 27.6012C123.529 27.1983 123.786 26.7847 124.054 26.3393C124.408 25.862 124.773 25.3742 125.17 24.8758C125.567 24.3774 126.029 24.0168 126.586 23.7941C126.801 23.6774 126.951 23.6987 127.048 23.8471C127.144 23.9956 127.252 24.1122 127.38 24.1971C127.477 23.8683 127.584 23.529 127.702 23.1684C127.82 22.8078 127.777 22.4791 127.584 22.1822C127.466 21.9701 127.327 21.8958 127.155 21.9488C126.983 22.0019 126.823 22.0655 126.651 22.1397C126.222 22.4473 125.835 22.7866 125.492 23.1366L125.524 23.1578Z" fill="white"/>
<path d="M94.795 43.4555C94.5268 43.4555 94.3873 43.7206 94.3873 44.2509C94.3873 45.5128 93.9152 46.1491 92.971 46.1491C92.0268 46.1491 91.5548 45.3538 91.5548 43.7524C91.5548 41.9602 92.059 39.8286 93.0676 37.3683C93.4002 36.3714 93.5719 34.9398 93.5719 33.0733C93.5719 29.8176 92.7243 26.721 91.0505 23.7941C90.5784 22.9987 90.2458 22.5957 90.0419 22.5957C89.9024 22.5957 89.72 22.9775 89.484 23.741C89.2479 24.5046 89.1299 24.9924 89.1299 25.1833C89.1299 25.3742 89.2586 25.6181 89.5376 25.8832C91.426 27.9512 92.3702 30.5706 92.3702 33.7732C92.3702 35.1731 92.1985 36.3714 91.8659 37.3683C90.9217 39.765 90.4496 42.0556 90.4496 44.2509C90.4496 45.4492 90.75 46.4779 91.3616 47.3475C91.8337 48.1428 92.338 48.5458 92.8745 48.5458C94.3551 48.5458 95.0955 47.3475 95.0955 44.9508C95.0955 43.9539 94.9989 43.4555 94.795 43.4555Z" fill="white"/>
</svg>
