<svg width="192" height="60" viewBox="0 0 192 60" fill="none" xmlns="http://www.w3.org/2000/svg">
<g clip-path="url(#clip0_1229_190)">
<path d="M18.6113 13.0558C15.9948 14.676 13.7808 16.8794 12.1529 19.4835L5.58203 12.9438C7.38162 10.4812 9.566 8.30716 12.0404 6.51611L18.6113 13.0558Z" fill="url(#paint0_linear_1229_190)"/>
<path d="M29.1788 0.960449C24.4548 0.960449 19.9973 2.08574 16.0488 4.07121L23.0282 11.0174C24.9698 10.3929 27.0358 10.0512 29.1788 10.0512C34.5361 10.0512 39.5679 12.125 43.3506 15.8956L49.809 9.46791C44.3036 3.98284 36.975 0.960449 29.1788 0.960449Z" fill="url(#paint1_linear_1229_190)"/>
<path d="M33.7483 49.4307C32.2684 49.7783 30.7352 49.9491 29.1783 49.9491C18.1262 49.9491 9.13412 40.9998 9.13412 30.0002C9.13412 27.8615 9.47746 25.8054 10.099 23.8729L3.12561 16.9326C1.12475 20.8623 0 25.3046 0 30.0002C0 46.0135 13.0885 59.0398 29.1783 59.0398C30.7233 59.0398 32.2506 58.922 33.7483 58.6864C35.5005 58.4153 37.2113 57.9853 38.8688 57.4079C44.8478 52.5532 39.7627 46.9562 39.7627 46.9562C37.9098 48.105 35.8794 48.9417 33.7542 49.4307H33.7483Z" fill="url(#paint2_linear_1229_190)"/>
<path d="M46.4937 53.2779C44.3152 54.8687 41.7105 56.4182 38.8632 57.4079C44.8421 52.5533 39.757 46.9563 39.757 46.9563L15.498 22.8125C16.9484 20.0788 19.2097 17.8282 21.9565 16.3848L47.3639 41.6715C50.7026 44.9944 50.3 50.503 46.4937 53.2779Z" fill="#3F1F58"/>
<path d="M184.691 30.5835C184.513 29.2874 183.975 28.1267 183.223 27.0603C183.098 26.8777 182.98 26.6597 182.678 26.6833C182.631 26.7363 182.548 26.7952 182.53 26.8659C182.353 27.6731 182.187 28.4802 182.021 29.2933C181.974 29.5112 182.092 29.6762 182.21 29.8412C182.512 30.2595 182.826 30.6719 183.098 31.1079C183.335 31.4908 183.56 31.8973 183.726 32.3215C183.992 32.9755 183.927 33.1817 183.365 33.547C181.968 34.4543 180.476 35.0611 178.753 34.8844C178.268 34.8372 177.782 34.7724 177.303 34.7017C177.143 34.6782 176.995 34.5898 176.806 34.5132C176.889 34.3482 176.948 34.2186 177.019 34.1008C177.901 32.6868 178.345 31.1491 178.44 29.4877C178.534 27.8969 177.96 26.5183 177.102 25.2398C176.676 24.6094 176.232 24.5328 175.527 24.8039C175.036 24.9924 174.633 25.3105 174.26 25.6699C173.325 26.5654 172.544 27.5847 171.934 28.7277C170.927 30.6071 170.708 32.5631 171.377 34.6075C171.425 34.7607 171.448 34.9256 171.49 35.1436C171.158 35.2497 170.862 35.3557 170.566 35.4382C169.897 35.6267 169.205 35.6326 168.518 35.609C166.914 35.5501 165.582 34.9197 164.534 33.7061C164.043 33.1405 163.67 32.4983 163.356 31.8207C162.746 30.4834 162.391 29.0753 162.202 27.6259C161.811 24.633 159.449 9.75673 158.384 5.49121C157.981 3.88281 157.413 2.32743 156.72 0.819177C156.631 0.624755 156.566 0.400874 156.329 0.3125C156.264 0.383199 156.211 0.412657 156.193 0.45979C155.903 1.38477 155.613 2.30975 155.341 3.24062C155.252 3.52342 155.347 3.78854 155.453 4.07134C155.779 4.94919 156.116 5.83292 156.383 6.73434C158.283 13.2387 159.804 24.3208 160.148 27.4845C160.308 28.9574 160.473 30.4362 160.828 31.8797C161.195 33.3526 161.693 34.7783 162.551 36.0509C164.037 38.2485 166.133 39.1499 168.755 38.9378C170.241 38.82 171.602 38.3251 172.881 37.5827C173.124 37.4413 173.372 37.294 173.591 37.1644C173.686 37.188 173.745 37.188 173.799 37.2116C175.74 38.1601 177.818 38.3722 179.92 38.1542C182.175 37.9186 183.714 36.6754 184.424 34.4896C184.839 33.2171 184.874 31.9032 184.697 30.5953L184.691 30.5835ZM174.521 33.5647C173.846 33.1464 173.319 32.7163 172.905 32.1625C172.33 31.3907 172.307 30.7485 172.887 29.9708C173.242 29.4936 173.68 29.0753 174.095 28.6452C174.231 28.5038 174.408 28.3977 174.58 28.3035C175.077 28.0383 175.45 28.0796 175.805 28.5097C176.462 29.3168 176.895 30.2418 177.048 31.2787C177.102 31.6322 176.966 31.8973 176.693 32.0859C175.989 32.569 175.278 33.0462 174.521 33.5588V33.5647Z" fill="#5E5E5E"/>
<path d="M130.668 26.9657C130.318 26.7183 129.951 26.4649 129.555 26.2057C129.525 26.188 129.495 26.1703 129.466 26.1468L129.561 26.0938L129.839 26.1468C130.123 26.1998 130.36 26.3471 130.514 26.5651C130.596 26.6829 130.65 26.8184 130.673 26.9657H130.668Z" fill="#5E5E5E"/>
<path d="M157.36 35.1964C157.153 35.6265 156.845 36.0272 156.508 36.3689C156.01 36.8814 155.484 37.3763 154.909 37.7946C151.079 40.5519 146.971 42.7907 142.466 44.2636C140.187 45.0118 137.849 45.3889 135.439 45.1945C134.315 45.1061 133.237 44.8351 132.219 44.3461C130.662 43.5979 129.543 42.4195 128.726 40.9231C127.531 38.7432 127.193 36.416 127.442 33.971C127.667 31.7616 128.283 29.6642 129.212 27.6552C129.342 27.3724 129.419 27.0602 129.709 26.8952C129.91 26.9305 129.946 27.0778 129.916 27.2192C129.857 27.5256 129.792 27.8378 129.685 28.1265C128.951 30.1827 128.792 32.3037 128.94 34.4541C129.005 35.3673 129.2 36.2569 129.526 37.1171C130.218 38.9199 131.461 40.1866 133.261 40.9113C134.226 41.3001 135.232 41.5063 136.268 41.5947C138.234 41.7597 140.157 41.524 142.046 40.982C143.757 40.493 145.414 39.8626 147.03 39.1202C149.558 37.9596 152.003 36.6517 154.383 35.2141C154.945 34.8724 155.484 34.4953 156.022 34.1124C156.253 33.9474 156.46 33.7471 156.668 33.5527C156.952 33.2935 157.029 32.9753 156.922 32.6159C156.792 32.1799 156.679 31.7322 156.52 31.308C155.975 29.8646 155.413 28.4329 154.868 26.9895C154.536 26.1116 154.229 25.222 153.909 24.3323C153.862 24.1968 153.856 24.026 153.767 23.9317C153.424 23.5723 153.453 23.154 153.524 22.7298C153.643 22.0582 153.767 21.3807 153.909 20.7149C153.962 20.4733 154.081 20.2436 154.158 20.055C154.388 19.9608 154.495 20.0668 154.584 20.1729C155.33 21.0036 156.081 21.8225 156.81 22.6709C157.029 22.9243 157.194 23.2365 157.348 23.537C157.402 23.643 157.419 23.8433 157.36 23.9258C157.301 24.0083 157.106 24.0378 156.987 24.0142C156.715 23.9671 156.454 23.8728 156.17 23.7962C156.07 24.0908 156.247 24.2734 156.318 24.4737C156.78 25.6992 157.265 26.9188 157.727 28.1501C157.869 28.5213 157.952 28.916 158.059 29.299C158.639 31.3551 158.284 33.3111 157.372 35.1906L157.36 35.1964Z" fill="#5E5E5E"/>
<path d="M190.841 37.135C190.752 37.4473 190.699 37.8066 190.338 38.0305C190.095 37.8479 190.072 37.5945 190.054 37.3471C189.995 36.5812 189.918 35.8094 189.894 35.0435C189.853 33.5883 189.651 32.1448 189.45 30.7073C189.006 27.5435 186.449 11.9661 185.987 9.08512C185.768 7.70648 185.555 6.32196 185.354 4.94333C185.306 4.62518 185.247 4.33649 184.998 4.10083C184.791 3.90641 184.738 3.66485 184.845 3.39384C185.235 2.41583 185.632 1.43194 186.028 0.459822C186.046 0.412689 186.111 0.389123 186.212 0.306641C186.863 1.1079 189.213 6.03327 189.799 7.80664C189.876 8.04231 190.03 8.27208 189.876 8.56666C189.379 8.57255 189.16 8.16603 188.864 7.88912C188.556 7.60044 188.272 7.28818 187.929 6.94058C187.775 7.23516 187.875 7.45315 187.905 7.65346C188.148 9.03209 188.408 10.4048 188.651 11.7776C189.184 14.8059 191.261 27.8322 191.546 30.2831C191.812 32.6103 191.486 34.8962 190.841 37.135Z" fill="#5E5E5E"/>
<path d="M177.102 19.2595C176.984 19.6484 176.777 19.9488 176.605 20.267C176.428 20.591 176.244 20.9151 176.066 21.2391C175.883 21.5631 175.699 21.8754 175.504 22.2171C174.847 22.0109 174.356 21.6162 173.811 21.3157C173.26 21.0152 172.728 20.6912 172.082 20.3141C171.585 21.1625 171.135 21.9166 170.674 22.7061C169.999 22.5411 169.496 22.0993 168.933 21.7929C168.359 21.4807 167.802 21.1331 167.252 20.8031C167.441 20.1492 168.353 18.4877 168.874 17.8338C169.999 18.3581 171.017 19.1063 172.171 19.6719C172.799 18.9767 173.071 18.0812 173.657 17.3389C174.296 17.5156 174.806 17.9339 175.368 18.2462C175.942 18.5643 176.499 18.906 177.102 19.2654V19.2595Z" fill="#5E5E5E"/>
<path d="M186.017 21.4164C185.886 21.9938 185.01 23.6317 184.46 24.3504C183.838 24.1325 181.666 22.8834 181.032 22.365C181.476 21.4046 182.08 20.5032 182.571 19.4781C181.642 18.8477 180.701 18.4235 179.878 17.8284C180.174 17.0567 181.091 15.4306 181.512 14.9121C182.258 15.2185 184.418 16.4911 184.927 16.927C184.412 17.8579 183.897 18.8065 183.353 19.8021C184.276 20.3618 185.152 20.8921 186.017 21.4105V21.4164Z" fill="#5E5E5E"/>
<path d="M143.093 27.5905C142.945 28.1325 142.14 29.6407 141.483 30.5775C140.341 29.9235 139.234 29.2931 138.156 28.6392C138.316 28.0264 139.103 26.5476 139.707 25.6934C140.276 25.8642 142.188 26.9306 143.093 27.5905Z" fill="#5E5E5E"/>
<path d="M168.773 29.8352C168.554 30.5304 168.358 31.2433 168.074 31.909C167.855 32.4157 167.458 32.7869 166.819 32.7103C166.28 32.6455 165.854 32.2743 165.783 31.585C165.706 30.8309 165.629 30.0178 165.83 29.3049C166.286 27.7083 166.908 26.1647 167.47 24.6034C167.5 24.5151 167.571 24.4326 167.624 24.3501C167.677 24.3678 167.731 24.3854 167.778 24.4031C167.683 24.7566 167.595 25.1042 167.494 25.4577C167.156 26.6537 166.784 27.8379 166.499 29.0457C166.411 29.4169 166.499 29.8528 166.606 30.2299C166.837 31.0194 167.482 31.1431 168.003 30.5186C168.258 30.2122 168.459 29.8528 168.749 29.4287C168.761 29.6231 168.796 29.7468 168.767 29.8411L168.773 29.8352Z" fill="#5E5E5E"/>
<path d="M163.9 5.79758C163.681 6.49278 163.486 7.20567 163.202 7.87142C162.983 8.37809 162.586 8.74926 161.947 8.67267C161.408 8.60787 160.982 8.2367 160.911 7.54738C160.834 6.79325 160.757 5.98021 160.958 5.26733C161.414 3.67071 162.036 2.12711 162.598 0.565839C162.628 0.477465 162.699 0.394982 162.752 0.3125C162.805 0.330175 162.859 0.34785 162.906 0.365524C162.811 0.71902 162.722 1.06662 162.622 1.42012C162.284 2.61611 161.911 3.80032 161.627 5.0081C161.539 5.37927 161.627 5.81525 161.734 6.19231C161.965 6.98179 162.61 7.10551 163.131 6.481C163.385 6.17464 163.587 5.81525 163.877 5.39105C163.889 5.58548 163.924 5.7092 163.895 5.80347L163.9 5.79758Z" fill="#5E5E5E"/>
<path d="M149.291 18.0403C149.072 18.7355 148.877 19.4483 148.593 20.1141C148.374 20.6208 147.977 20.9919 147.338 20.9153C146.799 20.8505 146.373 20.4794 146.302 19.7901C146.225 19.0359 146.148 18.2229 146.349 17.51C146.805 15.9134 147.426 14.3698 147.989 12.8085C148.018 12.7201 148.089 12.6377 148.143 12.5552C148.196 12.5729 148.249 12.5905 148.297 12.6082C148.202 12.9617 148.113 13.3093 148.012 13.6628C147.675 14.8588 147.302 16.043 147.018 17.2508C146.929 17.6219 147.018 18.0579 147.124 18.435C147.355 19.2245 148.001 19.3482 148.522 18.7237C148.776 18.4173 148.977 18.0638 149.267 17.6337C149.279 17.8282 149.315 17.9519 149.285 18.0461L149.291 18.0403Z" fill="#5E5E5E"/>
<path d="M155.105 14.9821C154.886 15.6774 154.69 16.3902 154.406 17.056C154.187 17.5627 153.79 17.9338 153.151 17.8572C152.612 17.7924 152.186 17.4213 152.115 16.7319C152.038 15.9778 151.961 15.1648 152.162 14.4519C152.618 12.8553 153.24 11.3117 153.802 9.75041C153.832 9.66203 153.903 9.57955 153.956 9.49707C154.009 9.51475 154.063 9.53242 154.11 9.55009C154.015 9.90359 153.927 10.2512 153.826 10.6047C153.488 11.8007 153.116 12.9849 152.831 14.1927C152.743 14.5638 152.831 14.9998 152.938 15.3769C153.169 16.1664 153.814 16.2901 154.335 15.6656C154.59 15.3592 154.791 15.0057 155.081 14.5756C155.093 14.77 155.128 14.8938 155.099 14.988L155.105 14.9821Z" fill="#5E5E5E"/>
<path d="M142.791 20.9333C142.572 21.6285 142.377 22.3414 142.093 23.0072C141.874 23.5138 141.477 23.885 140.838 23.8084C140.299 23.7436 139.873 23.3724 139.802 22.6831C139.725 21.929 139.648 21.116 139.849 20.4031C140.305 18.8065 140.926 17.2629 141.489 15.7016C141.518 15.6132 141.589 15.5307 141.643 15.4482C141.696 15.4659 141.749 15.4836 141.797 15.5013C141.702 15.8548 141.613 16.2024 141.512 16.5559C141.175 17.7519 140.802 18.9361 140.518 20.1438C140.429 20.515 140.518 20.951 140.624 21.3281C140.855 22.1175 141.501 22.2413 142.022 21.6167C142.276 21.3104 142.477 20.9569 142.767 20.5268C142.779 20.7212 142.815 20.8449 142.785 20.9392L142.791 20.9333Z" fill="#5E5E5E"/>
<path d="M139.831 11.9602C139.535 12.6259 139.263 13.3153 138.908 13.9457C138.635 14.4288 138.197 14.7528 137.576 14.6055C137.049 14.4818 136.664 14.0635 136.67 13.3742C136.67 12.6142 136.688 11.7952 136.966 11.1118C137.593 9.5741 138.387 8.1071 139.115 6.61652C139.156 6.52815 139.233 6.45745 139.298 6.38086C139.346 6.40443 139.399 6.42799 139.446 6.45156C139.316 6.78738 139.186 7.12909 139.05 7.46491C138.588 8.61377 138.085 9.75085 137.665 10.9233C137.54 11.2827 137.576 11.7245 137.641 12.1134C137.783 12.9205 138.41 13.115 138.996 12.5494C139.287 12.2725 139.523 11.9425 139.861 11.5478C139.849 11.7422 139.873 11.8659 139.831 11.9602Z" fill="#5E5E5E"/>
<path d="M108.421 20.5974C108.202 21.2926 108.007 22.0055 107.722 22.6712C107.503 23.1779 107.107 23.5491 106.467 23.4725C105.929 23.4077 105.503 23.0365 105.432 22.3472C105.355 21.5931 105.278 20.78 105.479 20.0671C105.935 18.4705 106.556 16.9269 107.119 15.3656C107.148 15.2773 107.219 15.1948 107.273 15.1123C107.326 15.13 107.379 15.1477 107.426 15.1653C107.332 15.5188 107.243 15.8664 107.142 16.2199C106.805 17.4159 106.432 18.6001 106.148 19.8079C106.059 20.1791 106.148 20.6151 106.254 20.9921C106.485 21.7816 107.13 21.9053 107.651 21.2808C107.906 20.9744 108.107 20.6209 108.397 20.1909C108.409 20.3853 108.445 20.509 108.415 20.6033L108.421 20.5974Z" fill="#5E5E5E"/>
<path d="M102.691 20.9333C102.472 21.6285 102.277 22.3414 101.993 23.0072C101.774 23.5138 101.377 23.885 100.738 23.8084C100.199 23.7436 99.7731 23.3724 99.702 22.6831C99.6251 21.929 99.5481 21.116 99.7494 20.4031C100.205 18.8065 100.827 17.2629 101.389 15.7016C101.419 15.6132 101.49 15.5307 101.543 15.4482C101.596 15.4659 101.65 15.4836 101.697 15.5013C101.602 15.8548 101.513 16.2024 101.413 16.5559C101.075 17.7519 100.702 18.9361 100.418 20.1438C100.33 20.515 100.418 20.951 100.525 21.3281C100.756 22.1175 101.401 22.2413 101.922 21.6167C102.176 21.3104 102.378 20.9569 102.668 20.5268C102.68 20.7212 102.715 20.8449 102.686 20.9392L102.691 20.9333Z" fill="#5E5E5E"/>
<path d="M69.8722 32.8933C69.6531 33.5885 69.4578 34.3014 69.1736 34.9671C68.9546 35.4738 68.558 35.845 67.9187 35.7684C67.38 35.7036 66.9537 35.3324 66.8827 34.6431C66.8057 33.889 66.7288 33.0759 66.9301 32.363C67.3859 30.7664 68.0075 29.2228 68.5698 27.6615C68.5994 27.5732 68.6705 27.4907 68.7237 27.4082C68.777 27.4259 68.8303 27.4436 68.8776 27.4612C68.7829 27.8147 68.6941 28.1623 68.5935 28.5158C68.2561 29.7118 67.8831 30.896 67.599 32.1038C67.5102 32.475 67.599 32.911 67.7055 33.288C67.9364 34.0775 68.5817 34.2012 69.1026 33.5767C69.3571 33.2703 69.5584 32.9168 69.8485 32.4868C69.8603 32.6812 69.8958 32.8049 69.8662 32.8992L69.8722 32.8933Z" fill="#5E5E5E"/>
<path d="M65.8819 25.5935C65.6629 26.2887 65.4675 27.0016 65.1834 27.6673C64.9644 28.174 64.5677 28.5452 63.9284 28.4686C63.3897 28.4038 62.9635 28.0326 62.8925 27.3433C62.8155 26.5892 62.7386 25.7761 62.9398 25.0632C63.3956 23.4666 64.0172 21.923 64.5796 20.3617C64.6092 20.2734 64.6802 20.1909 64.7335 20.1084C64.7868 20.1261 64.8401 20.1437 64.8874 20.1614C64.7927 20.5149 64.7039 20.8625 64.6033 21.216C64.2658 22.412 63.8929 23.5962 63.6088 24.804C63.52 25.1752 63.6088 25.6111 63.7153 25.9882C63.9462 26.7777 64.5914 26.9014 65.1124 26.2769C65.3669 25.9705 65.5682 25.617 65.8582 25.187C65.8701 25.3814 65.9056 25.5051 65.876 25.5994L65.8819 25.5935Z" fill="#5E5E5E"/>
<path d="M75.212 31.0368C74.993 31.732 74.7976 32.4449 74.5135 33.1107C74.2944 33.6174 73.8978 33.9885 73.2585 33.9119C72.7198 33.8471 72.2936 33.476 72.2225 32.7866C72.1456 32.0325 72.0686 31.2195 72.2699 30.5066C72.7257 28.91 73.3473 27.3664 73.9097 25.8051C73.9393 25.7167 74.0103 25.6342 74.0636 25.5518C74.1169 25.5694 74.1701 25.5871 74.2175 25.6048C74.1228 25.9583 74.034 26.3059 73.9333 26.6594C73.5959 27.8554 73.223 29.0396 72.9388 30.2474C72.85 30.6185 72.9388 31.0545 73.0454 31.4316C73.2763 32.221 73.9215 32.3448 74.4424 31.7203C74.697 31.4139 74.8983 31.0604 75.1883 30.6303C75.2002 30.8247 75.2357 30.9485 75.2061 31.0427L75.212 31.0368Z" fill="#5E5E5E"/>
<path d="M126.358 29.7351C126.139 30.4303 125.944 31.1432 125.66 31.8089C125.441 32.3156 125.044 32.6868 124.405 32.6102C123.866 32.5454 123.44 32.1742 123.369 31.4849C123.292 30.7308 123.215 29.9177 123.416 29.2048C123.872 27.6082 124.494 26.0646 125.056 24.5033C125.086 24.415 125.157 24.3325 125.21 24.25C125.263 24.2677 125.317 24.2853 125.364 24.303C125.269 24.6565 125.18 25.0041 125.08 25.3576C124.742 26.5536 124.369 27.7378 124.085 28.9456C123.997 29.3168 124.085 29.7527 124.192 30.1298C124.423 30.9193 125.068 31.043 125.589 30.4185C125.843 30.1121 126.045 29.7586 126.335 29.3286C126.347 29.523 126.382 29.6467 126.353 29.741L126.358 29.7351Z" fill="#5E5E5E"/>
<path d="M160.296 41.9719C160.077 42.6671 159.882 43.38 159.597 44.0457C159.378 44.5524 158.982 44.9236 158.342 44.847C157.804 44.7822 157.378 44.411 157.307 43.7217C157.23 42.9676 157.153 42.1545 157.354 41.4416C157.81 39.845 158.431 38.3014 158.994 36.7402C159.023 36.6518 159.094 36.5693 159.148 36.4868C159.201 36.5045 159.254 36.5222 159.301 36.5398C159.207 36.8933 159.118 37.2409 159.017 37.5944C158.68 38.7904 158.307 39.9746 158.023 41.1824C157.934 41.5536 158.023 41.9896 158.129 42.3666C158.36 43.1561 159.005 43.2798 159.526 42.6553C159.781 42.349 159.982 41.9896 160.272 41.5654C160.284 41.7598 160.32 41.8835 160.29 41.9778L160.296 41.9719Z" fill="#5E5E5E"/>
<path d="M188.201 41.9719C187.982 42.6671 187.787 43.38 187.503 44.0457C187.284 44.5524 186.887 44.9236 186.248 44.847C185.709 44.7822 185.283 44.411 185.212 43.7217C185.135 42.9676 185.058 42.1545 185.259 41.4416C185.715 39.845 186.337 38.3014 186.899 36.7402C186.929 36.6518 187 36.5693 187.053 36.4868C187.106 36.5045 187.159 36.5222 187.207 36.5398C187.112 36.8933 187.023 37.2409 186.923 37.5944C186.585 38.7904 186.212 39.9746 185.928 41.1824C185.839 41.5536 185.928 41.9896 186.035 42.3666C186.266 43.1561 186.911 43.2798 187.432 42.6553C187.686 42.349 187.888 41.9896 188.178 41.5654C188.189 41.7598 188.225 41.8835 188.195 41.9778L188.201 41.9719Z" fill="#5E5E5E"/>
<path d="M173.591 1.83846C173.473 2.06234 173.348 2.0918 173.165 1.90327C172.508 1.23752 172.241 1.28465 171.951 2.17428C171.738 2.83414 171.578 3.51168 171.448 4.1951C171.052 6.28662 170.033 7.95394 168.257 9.19706C166.701 10.287 164.948 10.8938 163.184 11.5066C163.119 11.5301 163.042 11.5066 162.971 11.5066C162.959 11.483 162.947 11.4594 162.93 11.4359C163.095 11.318 163.261 11.1943 163.433 11.0883C165.244 9.96297 167.073 8.86124 168.861 7.69471C169.424 7.32943 169.868 6.78151 170.353 6.30429C170.43 6.2277 170.471 6.06274 170.454 5.9449C170.329 4.81961 169.879 3.81215 169.341 2.83414C169.246 2.66329 169.122 2.59848 168.915 2.72809C168.512 2.98143 168.228 2.68096 167.961 2.45119C167.707 2.22731 167.476 1.96219 167.707 1.57923C167.825 1.38481 167.944 1.19039 168.044 0.984181C168.21 0.636577 168.5 0.530529 168.802 0.724951C169.175 0.966507 169.56 1.23752 169.82 1.58512C170.389 2.35103 170.649 3.25245 170.868 4.20099C170.904 4.04781 170.933 3.88874 170.969 3.73556C171.158 2.98143 171.312 2.22142 171.555 1.48497C171.697 1.05488 171.945 0.630686 172.235 0.27719C172.561 -0.123438 172.987 -0.0763057 173.354 0.294865C173.804 0.760301 173.887 1.29054 173.597 1.83846H173.591Z" fill="#5E5E5E"/>
<path d="M129.229 1.48452C129.134 1.66716 129.034 1.69072 128.886 1.53754C128.359 1.00141 128.14 1.03676 127.909 1.76142C127.737 2.29167 127.607 2.84548 127.507 3.3934C127.187 5.08428 126.364 6.42757 124.931 7.43503C123.676 8.31877 122.262 8.80188 120.841 9.29677C120.788 9.31445 120.723 9.29677 120.669 9.29677C120.657 9.2791 120.646 9.25553 120.64 9.23786C120.776 9.14359 120.906 9.04343 121.042 8.95506C122.504 8.04186 123.984 7.15812 125.423 6.21547C125.879 5.92089 126.24 5.47902 126.624 5.09017C126.69 5.02537 126.719 4.89575 126.707 4.80149C126.607 3.89418 126.246 3.07525 125.808 2.29167C125.731 2.15027 125.63 2.10314 125.464 2.20329C125.139 2.4095 124.908 2.16794 124.695 1.97941C124.493 1.79677 124.304 1.58468 124.487 1.27831C124.582 1.11924 124.677 0.966058 124.76 0.801093C124.896 0.518297 125.127 0.435815 125.37 0.588996C125.671 0.783419 125.979 1.00141 126.192 1.2842C126.654 1.90282 126.861 2.63338 127.039 3.3934C127.068 3.26967 127.092 3.14006 127.122 3.01633C127.276 2.4095 127.4 1.79088 127.595 1.20172C127.714 0.854118 127.909 0.512405 128.146 0.229609C128.412 -0.094429 128.756 -0.0590794 129.046 0.241392C129.413 0.612562 129.478 1.04265 129.241 1.48452H129.229Z" fill="#5E5E5E"/>
<path d="M96.8663 5.79758C96.6473 6.49278 96.4519 7.20567 96.1678 7.87142C95.9487 8.37809 95.5521 8.74926 94.9128 8.67267C94.3741 8.60787 93.9479 8.2367 93.8768 7.54738C93.7999 6.79325 93.7229 5.98021 93.9242 5.26733C94.38 3.67071 95.0016 2.12711 95.564 0.565839C95.5936 0.477465 95.6646 0.394982 95.7179 0.3125C95.7712 0.330175 95.8244 0.34785 95.8718 0.365524C95.7771 0.71902 95.6883 1.06662 95.5876 1.42012C95.2502 2.61611 94.8773 3.80032 94.5931 5.0081C94.5043 5.37927 94.5931 5.81525 94.6997 6.19231C94.9306 6.98179 95.5758 7.10551 96.0967 6.481C96.3513 6.17464 96.5526 5.81525 96.8426 5.39105C96.8545 5.58548 96.89 5.7092 96.8604 5.80347L96.8663 5.79758Z" fill="#5E5E5E"/>
<path d="M121.871 4.96683C121.682 5.55599 121.522 6.15693 121.279 6.72841C121.096 7.1585 120.759 7.47665 120.214 7.41184C119.758 7.35882 119.397 7.04067 119.338 6.4574C119.273 5.81522 119.208 5.1259 119.379 4.52496C119.764 3.16989 120.297 1.86196 120.77 0.536348C120.8 0.459758 120.859 0.389059 120.901 0.318359C120.942 0.336034 120.989 0.347817 121.031 0.359601C120.954 0.65418 120.877 0.954652 120.794 1.25512C120.51 2.26848 120.19 3.27594 119.948 4.30108C119.871 4.61333 119.948 4.99039 120.036 5.30854C120.232 5.98018 120.776 6.08034 121.22 5.5501C121.439 5.29087 121.611 4.99039 121.854 4.62512C121.86 4.79008 121.895 4.89024 121.866 4.97272L121.871 4.96683Z" fill="#5E5E5E"/>
<path d="M105.527 2.14462C105.408 2.3685 105.284 2.39795 105.1 2.20942C104.443 1.54367 104.177 1.59081 103.887 2.48044C103.674 3.14029 103.514 3.81783 103.384 4.50125C102.987 6.59277 101.969 8.26009 100.193 9.50322C98.6361 10.5932 96.8839 11.2 95.1198 11.8127C95.0547 11.8363 94.9777 11.8127 94.9067 11.8127C94.8948 11.7892 94.883 11.7656 94.8652 11.742C95.031 11.6242 95.1967 11.5005 95.3684 11.3944C97.1798 10.2691 99.009 9.1674 100.797 8.00086C101.359 7.63558 101.803 7.08766 102.289 6.61044C102.366 6.53385 102.407 6.36889 102.389 6.25106C102.265 5.12576 101.815 4.1183 101.276 3.14029C101.182 2.96944 101.057 2.90463 100.85 3.03425C100.448 3.28758 100.163 2.98711 99.897 2.75734C99.6424 2.53346 99.4116 2.26834 99.6424 1.88538C99.7608 1.69096 99.8792 1.49654 99.9799 1.29033C100.146 0.94273 100.436 0.836681 100.738 1.0311C101.111 1.27266 101.495 1.54367 101.756 1.89128C102.324 2.65718 102.585 3.5586 102.804 4.50714C102.839 4.35396 102.869 4.19489 102.904 4.04171C103.094 3.28758 103.248 2.52757 103.49 1.79112C103.632 1.36103 103.881 0.936838 104.171 0.583342C104.497 0.182714 104.923 0.229847 105.29 0.601017C105.74 1.06645 105.823 1.5967 105.533 2.14462H105.527Z" fill="#5E5E5E"/>
<path d="M152.796 2.07381C152.677 2.2977 152.553 2.32715 152.369 2.13862C151.712 1.47287 151.446 1.52 151.156 2.41553C150.943 3.07539 150.783 3.75292 150.653 4.43634C150.44 5.57931 150.037 6.59267 149.427 7.4823C149.338 7.61191 149.244 7.72385 149.066 7.94773C148.35 8.84915 147.811 9.35583 147.107 10.0628C145.538 11.6418 145.39 11.9422 144.141 13.0675C143.851 13.3327 143.602 13.5448 143.437 13.6861C143.478 13.5683 143.561 13.3562 143.673 13.1088C144.68 10.9348 146.521 9.71521 148.332 7.73564C148.516 7.53532 148.918 7.08167 149.149 6.38057C149.19 6.25685 149.303 5.89157 149.321 5.39667C149.321 5.39667 149.35 4.56007 148.545 3.06949C148.522 3.02236 148.462 2.9281 148.368 2.89864C148.303 2.88096 148.22 2.89864 148.119 2.96345C147.716 3.21678 147.432 2.91631 147.166 2.68654C146.911 2.46266 146.681 2.19754 146.911 1.81458C147.03 1.62016 147.148 1.42574 147.249 1.21953C147.415 0.871929 147.705 0.76588 148.001 0.960303C148.374 1.20186 148.758 1.47287 149.019 1.82048C149.587 2.58638 149.848 3.4878 150.067 4.43634C150.102 4.28316 150.132 4.12409 150.167 3.97091C150.357 3.21678 150.511 2.45677 150.753 1.72032C150.895 1.29023 151.144 0.866037 151.434 0.512542C151.76 0.111913 152.186 0.159046 152.553 0.530216C153.003 0.995652 153.086 1.5259 152.79 2.07381H152.796Z" fill="#5E5E5E"/>
<path d="M152.281 26.9307C152.162 27.1546 152.038 27.1841 151.854 26.9956C151.197 26.3298 150.931 26.3769 150.641 27.2666C150.428 27.9264 150.268 28.604 150.138 29.2874C149.741 31.3789 148.723 33.0462 146.947 34.2893C145.39 35.3793 143.638 35.9861 141.874 36.5989C141.809 36.6224 141.732 36.5989 141.661 36.5989C141.649 36.5753 141.637 36.5517 141.619 36.5282C141.785 36.4103 141.951 36.2866 142.122 36.1805C143.934 35.0553 145.763 33.9535 147.551 32.787C148.113 32.4217 148.557 31.8738 149.042 31.3966C149.119 31.32 149.161 31.155 149.143 31.0372C149.019 29.9119 148.569 28.9044 148.03 27.9264C147.935 27.7556 147.811 27.6908 147.604 27.8204C147.201 28.0737 146.917 27.7732 146.651 27.5435C146.396 27.3196 146.165 27.0545 146.396 26.6715C146.515 26.4771 146.633 26.2827 146.734 26.0765C146.9 25.7289 147.19 25.6228 147.491 25.8172C147.864 26.0588 148.249 26.3298 148.51 26.6774C149.078 27.4433 149.338 28.3447 149.557 29.2933C149.593 29.1401 149.623 28.981 149.658 28.8278C149.848 28.0737 150.001 27.3137 150.244 26.5773C150.386 26.1472 150.635 25.723 150.925 25.3695C151.251 24.9688 151.677 25.016 152.044 25.3871C152.494 25.8526 152.577 26.3828 152.286 26.9307H152.281Z" fill="#5E5E5E"/>
<path d="M83.553 28.0445C83.4346 28.2684 83.3103 28.2979 83.1268 28.1093C82.4697 27.4436 82.2033 27.4907 81.9132 28.3803C81.7001 29.0402 81.5403 29.7177 81.4101 30.4012C81.0135 32.4927 79.9953 34.16 78.2193 35.4031C76.6625 36.4931 74.9102 37.0999 73.1461 37.7126C73.081 37.7362 73.0041 37.7126 72.933 37.7126C72.9212 37.6891 72.9094 37.6655 72.8916 37.6419C73.0574 37.5241 73.2231 37.4004 73.3948 37.2943C75.2062 36.169 77.0354 35.0673 78.8232 33.9008C79.3855 33.5355 79.8295 32.9876 80.3149 32.5103C80.3919 32.4338 80.4333 32.2688 80.4156 32.151C80.2912 31.0257 79.8414 30.0182 79.3027 29.0402C79.2079 28.8693 79.0836 28.8045 78.8764 28.9341C78.4739 29.1875 78.1898 28.887 77.9234 28.6572C77.6688 28.4334 77.4379 28.1682 77.6688 27.7853C77.7872 27.5909 77.9056 27.3964 78.0062 27.1902C78.172 26.8426 78.4621 26.7366 78.764 26.931C79.1369 27.1726 79.5217 27.4436 79.7822 27.7912C80.3504 28.5571 80.6109 29.4585 80.8299 30.407C80.8655 30.2539 80.8951 30.0948 80.9306 29.9416C81.12 29.1875 81.2739 28.4275 81.5166 27.691C81.6587 27.2609 81.9073 26.8367 82.1974 26.4832C82.523 26.0826 82.9492 26.1297 83.3162 26.5009C83.7661 26.9664 83.849 27.4966 83.5589 28.0445H83.553Z" fill="#5E5E5E"/>
<path d="M172.609 11.3706C166.878 13.851 163.64 15.3298 162.888 15.8247C162.551 16.0721 162.391 16.6024 162.403 17.4154C162.403 17.6393 162.675 17.9457 163.214 18.3286C163.753 18.7116 164.149 18.906 164.404 18.9001C164.694 18.9001 164.86 18.6055 164.901 18.0281C164.155 17.8278 163.528 17.4802 163.001 16.9735C163.652 16.4669 166.251 15.2178 170.797 13.2206C174.923 11.3883 178.487 9.91541 181.482 8.8019C181.956 8.07723 182.062 7.71195 181.808 7.71784C181.376 7.71784 178.309 8.94329 172.609 11.3706Z" fill="#5E5E5E"/>
<path d="M105.083 10.6109C99.3529 13.0912 96.1148 14.57 95.363 15.0649C95.0256 15.3124 94.8657 15.8426 94.8776 16.6556C94.8776 16.8795 95.1499 17.1859 95.6886 17.5688C96.2273 17.9518 96.6239 18.1462 96.8784 18.1403C97.1685 18.1403 97.3342 17.8457 97.3757 17.2684C96.6298 17.0681 96.0023 16.7205 95.4755 16.2138C96.1266 15.7071 98.7254 14.4581 103.272 12.4608C107.398 10.6285 110.961 9.15564 113.957 8.04213C114.43 7.31746 114.537 6.95219 114.282 6.95808C113.85 6.95808 110.784 8.18353 105.083 10.6109Z" fill="#5E5E5E"/>
<path d="M75.6259 13.4627C71.2039 15.3716 68.7058 16.5205 68.1257 16.8975C67.8652 17.0861 67.7409 17.4985 67.7527 18.1289C67.7527 18.2997 67.9658 18.5354 68.3743 18.8359C68.7887 19.1363 69.0965 19.2777 69.2919 19.2777C69.5168 19.2777 69.6411 19.048 69.6766 18.6061C69.1024 18.4529 68.617 18.1819 68.2145 17.793C68.7176 17.4042 70.7244 16.438 74.2289 14.8944C77.4137 13.4804 80.1605 12.3433 82.4751 11.489C82.8421 10.9293 82.925 10.6465 82.7237 10.6524C82.3863 10.6524 80.0243 11.5951 75.6259 13.4686" fill="#5E5E5E"/>
<path d="M75.6259 19.1893C71.2039 21.0982 68.7058 22.247 68.1257 22.6241C67.8652 22.8126 67.7409 23.225 67.7527 23.8554C67.7527 24.0263 67.9658 24.2619 68.3743 24.5624C68.7887 24.8629 69.0965 25.0043 69.2919 25.0043C69.5168 25.0043 69.6411 24.7745 69.6766 24.3326C69.1024 24.1795 68.617 23.9085 68.2145 23.5196C68.7176 23.1308 70.7244 22.1645 74.2289 20.6209C77.4137 19.207 80.1605 18.0699 82.4751 17.2156C82.8421 16.6559 82.925 16.3731 82.7237 16.379C82.3863 16.379 80.0243 17.3217 75.6259 19.1952" fill="#5E5E5E"/>
<path d="M181.009 0.306585C180.494 0.277127 180.121 0.95466 179.884 2.34508C179.736 3.09331 179.618 3.83565 179.529 4.58388C179.31 4.15969 179.139 3.78852 179.02 3.46448C178.215 1.90321 177.451 1.13141 176.729 1.16087C176.333 1.16087 176.179 1.56739 176.268 2.38632C176.297 2.56307 176.516 2.76338 176.919 2.98726C177.321 3.21114 177.576 3.3113 177.676 3.28184C177.736 3.22292 177.777 3.15812 177.807 3.08742C178.381 3.57053 178.783 4.24806 179.02 5.12591C179.227 5.81523 179.423 6.15694 179.612 6.15694C179.76 6.1864 179.92 5.4146 180.098 3.84154C180.275 2.26849 180.577 1.4849 181.003 1.4849C181.21 1.4849 181.495 1.72057 181.862 2.186C181.98 2.186 182.069 2.00926 182.128 1.66165C182.217 1.29637 182.217 1.07249 182.128 0.984118C181.773 0.530465 181.4 0.306585 181.003 0.306585H181.009Z" fill="#5E5E5E"/>
<path d="M111.778 0.306585C111.263 0.277127 110.89 0.95466 110.653 2.34508C110.505 3.09331 110.387 3.83565 110.298 4.58388C110.079 4.15969 109.907 3.78852 109.789 3.46448C108.984 1.90321 108.22 1.13141 107.498 1.16087C107.101 1.16087 106.947 1.56739 107.036 2.38632C107.066 2.56307 107.285 2.76338 107.687 2.98726C108.09 3.21114 108.344 3.3113 108.445 3.28184C108.504 3.22292 108.546 3.15812 108.575 3.08742C109.149 3.57053 109.552 4.24806 109.789 5.12591C109.996 5.81523 110.191 6.15694 110.381 6.15694C110.529 6.1864 110.689 5.4146 110.866 3.84154C111.044 2.26849 111.346 1.4849 111.772 1.4849C111.979 1.4849 112.263 1.72057 112.63 2.186C112.749 2.186 112.837 2.00926 112.897 1.66165C112.985 1.29637 112.985 1.07249 112.897 0.984118C112.541 0.530465 112.168 0.306585 111.772 0.306585H111.778Z" fill="#5E5E5E"/>
<path d="M80.1487 2.40975C80.0303 2.63363 79.906 2.66309 79.7225 2.47456C79.0654 1.80881 78.799 1.85594 78.5089 2.74557C78.2958 3.40543 78.136 4.08296 78.0058 4.76639C77.6092 6.85791 76.591 8.52523 74.815 9.76835C73.2582 10.8583 71.5059 11.4651 69.7419 12.0779C69.6767 12.1014 69.5998 12.0779 69.5287 12.0779C69.5169 12.0543 69.5051 12.0307 69.4873 12.0072C69.6531 11.8893 69.8188 11.7656 69.9905 11.6596C71.8019 10.5343 73.6311 9.43253 75.4189 8.266C75.9812 7.90072 76.4252 7.3528 76.9106 6.87558C76.9876 6.79899 77.029 6.63403 77.0113 6.51619C76.8869 5.3909 76.4371 4.38344 75.8984 3.40543C75.8036 3.23458 75.6793 3.16977 75.4721 3.29938C75.0696 3.55272 74.7854 3.25225 74.5191 3.02248C74.2645 2.7986 74.0336 2.53348 74.2645 2.15052C74.3829 1.9561 74.5013 1.76168 74.6019 1.55547C74.7677 1.20787 75.0578 1.10182 75.3597 1.29624C75.7326 1.5378 76.1174 1.80881 76.3779 2.15641C76.9461 2.92232 77.2066 3.82373 77.4256 4.77228C77.4612 4.6191 77.4908 4.46003 77.5263 4.30685C77.7157 3.55272 77.8696 2.79271 78.1123 2.05626C78.2544 1.62617 78.503 1.20197 78.7931 0.848479C79.1187 0.447851 79.5449 0.494983 79.9119 0.866154C80.3618 1.33159 80.4447 1.86183 80.1546 2.40975H80.1487Z" fill="#5E5E5E"/>
<path d="M125.772 40.1218C125.346 40.0982 125.038 40.6638 124.843 41.8127C124.718 42.4313 124.624 43.0499 124.553 43.6685C124.369 43.315 124.227 43.0087 124.132 42.7436C123.464 41.4474 122.83 40.8111 122.232 40.8347C121.901 40.8347 121.776 41.1764 121.847 41.8539C121.871 42.0012 122.049 42.1662 122.386 42.3547C122.724 42.5432 122.931 42.6257 123.014 42.6022C123.061 42.555 123.096 42.502 123.126 42.4372C123.6 42.8378 123.937 43.4034 124.132 44.1281C124.304 44.6996 124.47 44.9824 124.624 44.9824C124.748 45.0059 124.878 44.3696 125.026 43.0676C125.174 41.7656 125.423 41.1116 125.772 41.1116C125.944 41.1116 126.181 41.306 126.483 41.6949C126.577 41.6949 126.654 41.5476 126.702 41.2589C126.773 40.9584 126.773 40.7699 126.702 40.6933C126.412 40.3162 126.098 40.1277 125.772 40.1277V40.1218Z" fill="#5E5E5E"/>
<path d="M66.9537 0.571289C66.344 0.571289 65.9711 1.21347 65.8349 2.49784C65.7994 3.74686 65.7876 4.64827 65.7876 5.1903V5.23743C65.3081 4.15338 64.7102 3.26964 63.9998 2.59211C63.3546 2.01473 62.7863 1.72604 62.289 1.72604C61.9753 1.72604 61.8154 2.18559 61.8154 3.11057C61.8154 3.24018 62.0877 3.47585 62.6324 3.81167C63.177 4.14749 63.5144 4.31834 63.6505 4.31834C63.7157 4.31834 63.7808 4.17694 63.8518 3.90004C64.1656 4.08268 64.5385 4.5599 64.9706 5.3317C65.3495 5.97388 65.5567 6.40986 65.5922 6.63963C65.2785 6.63963 65.0062 6.88119 64.7753 7.35841C64.574 7.72368 64.4793 8.07718 64.4793 8.41889C64.4793 8.58386 64.4971 8.66634 64.5267 8.66634C64.5918 8.66634 64.6924 8.53083 64.8226 8.25982C64.9529 7.98881 65.1305 7.8533 65.3436 7.8533C65.6751 7.8533 65.9237 7.91811 66.0895 8.05361C65.4797 8.15377 64.9588 8.44246 64.5267 8.91968C64.0116 9.4617 63.7571 10.0921 63.7571 10.7991C63.7571 11.3765 64.0294 12.7728 64.574 14.9998C65.1186 17.5214 65.5093 19.4538 65.7402 20.803C65.7757 20.9857 65.8231 21.0917 65.8882 21.1271C65.9888 21.1271 66.0362 20.9209 66.0362 20.5084C66.0362 19.9664 65.4087 16.6612 64.1478 10.6047C64.1123 10.3278 64.4852 10.0332 65.2548 9.72683C66.0243 9.42046 66.7643 9.23782 67.4747 9.17302C67.5398 9.17302 67.6345 9.0434 67.747 8.77828C67.8654 8.51316 67.9068 8.29517 67.8713 8.11253C67.8358 7.98291 67.5753 7.70601 67.0781 7.28771C66.5808 6.8694 66.2493 6.65731 66.0835 6.65731C66.1487 5.14317 66.2138 3.82345 66.2848 2.70405C66.2848 2.09721 66.5394 1.79085 67.0544 1.79085C67.4036 1.79085 67.6937 1.96171 67.9246 2.30931C68.0903 2.53908 68.2028 2.53908 68.2738 2.30931C68.3745 1.73193 68.3745 1.39611 68.2738 1.29596C67.8121 0.818736 67.374 0.577181 66.9597 0.577181L66.9537 0.571289Z" fill="#5E5E5E"/>
<path d="M173.307 44.1161L175.527 41.6122C175.527 41.6122 176.113 40.0156 175.071 39.9331C174.029 39.8506 172.022 41.8773 168.441 41.8243C164.86 41.7713 164.001 40.2807 163.818 40.1747C163.634 40.0686 163.202 41.1055 163.522 41.3471C163.841 41.5887 164.67 43.1558 164.457 44.2458C164.457 44.2458 165.422 43.2324 164.83 42.1955C164.83 42.1955 166.541 43.58 169.885 42.8848C173.23 42.1955 174.219 41.0466 174.781 41.1291C175.343 41.2116 174.592 42.007 174.325 42.3251C174.059 42.6432 173.39 43.7096 173.307 44.1103V44.1161Z" fill="#5E5E5E"/>
<path d="M89.5968 41.9719C89.3777 42.6671 89.1824 43.38 88.8982 44.0457C88.6792 44.5524 88.2826 44.9236 87.6433 44.847C87.1046 44.7822 86.6783 44.411 86.6073 43.7217C86.5304 42.9676 86.4534 42.1545 86.6547 41.4416C87.1105 39.845 87.7321 38.3014 88.2944 36.7402C88.324 36.6518 88.3951 36.5693 88.4483 36.4868C88.5016 36.5045 88.5549 36.5222 88.6023 36.5398C88.5075 36.8933 88.4187 37.2409 88.3181 37.5944C87.9807 38.7904 87.6077 39.9746 87.3236 41.1824C87.2348 41.5536 87.3236 41.9896 87.4302 42.3666C87.661 43.1561 88.3063 43.2798 88.8272 42.6553C89.0818 42.349 89.283 41.9896 89.5731 41.5654C89.5849 41.7598 89.6204 41.8835 89.5908 41.9778L89.5968 41.9719Z" fill="#5E5E5E"/>
<path d="M101.371 44.1161L103.591 41.6122C103.591 41.6122 104.177 40.0156 103.136 39.9331C102.094 39.8506 100.087 41.8773 96.5054 41.8243C92.924 41.7713 92.0657 40.2807 91.8821 40.1747C91.6986 40.0686 91.2665 41.1055 91.5862 41.3471C91.9058 41.5887 92.7346 43.1558 92.5215 44.2458C92.5215 44.2458 93.4864 43.2324 92.8944 42.1955C92.8944 42.1955 94.6052 43.58 97.9498 42.8848C101.294 42.1955 102.283 41.0466 102.845 41.1291C103.408 41.2116 102.656 42.007 102.39 42.3251C102.123 42.6432 101.454 43.7096 101.371 44.1103V44.1161Z" fill="#5E5E5E"/>
<path d="M61.8154 58.1795V57.8614C62.7448 57.7907 62.8455 57.7259 62.8455 56.7715V52.3999C62.8455 51.4396 62.7448 51.3689 61.8154 51.3099V50.9741H64.9233V51.3099C63.9998 51.3689 63.9051 51.4396 63.9051 52.3999V56.7715C63.9051 57.7259 64.0057 57.7966 64.9233 57.8614V58.1795H61.8154Z" fill="#3F1F58"/>
<path d="M75.6614 52.7594C75.5371 52.2055 75.4187 51.911 75.2707 51.7224C75.0812 51.4632 74.88 51.3807 74.0157 51.3807H73.2402V56.7833C73.2402 57.6612 73.3408 57.7908 74.4182 57.8615V58.1796H71.044V57.8615C72.0859 57.7908 72.1865 57.6729 72.1865 56.7833V51.3807H71.5235C70.5349 51.3807 70.2981 51.4868 70.1442 51.7224C70.0021 51.911 69.9015 52.235 69.7535 52.7594H69.4102C69.4634 52.0406 69.5167 51.3041 69.5404 50.6914H69.7831C69.9488 50.9742 70.0968 50.9742 70.4283 50.9742H75.0398C75.3536 50.9742 75.4601 50.9035 75.6318 50.6914H75.8745C75.8745 51.1981 75.9337 52.0583 75.987 52.724L75.6436 52.7594H75.6614Z" fill="#3F1F58"/>
<path d="M88.3118 60.0005C87.7316 60.024 87.1219 59.9474 86.7726 59.8473C86.4056 59.7471 85.494 59.3229 84.0851 58.3331C83.4102 58.3096 82.3802 58.0503 81.6343 57.3787C80.924 56.7365 80.4326 55.788 80.4326 54.698C80.4326 52.6301 81.9421 50.8096 84.4699 50.8096C86.4648 50.8096 88.2466 52.2884 88.2466 54.5154C88.2466 56.4655 86.9502 57.7499 85.5769 58.1623C86.2517 58.6042 87.3232 59.2699 88.4124 59.753L88.3236 60.0005H88.3118ZM84.8606 57.6438C84.973 57.7027 85.0796 57.7734 85.1802 57.85C86.0682 57.6085 86.9917 56.6305 86.9917 54.8276C86.9917 52.5476 85.7485 51.2279 84.1739 51.2279C82.8715 51.2279 81.6758 52.3355 81.6758 54.3976C81.6758 56.2711 82.6762 57.6261 84.0377 57.8972L84.8606 57.6497V57.6438Z" fill="#3F1F58"/>
<path d="M96.9198 58.18V57.8618C97.6302 57.7617 97.7249 57.6674 97.5769 57.2196C97.4171 56.7778 97.2099 56.2298 96.9672 55.5877H94.5223C94.3329 56.0943 94.179 56.5303 94.0369 56.9663C93.7942 57.6379 93.883 57.7675 94.7473 57.8618V58.18H92.2373V57.8618C92.9773 57.7499 93.1371 57.6733 93.5396 56.6894L95.9312 50.9097L96.3278 50.8096C97.056 52.7715 97.79 54.7452 98.5418 56.6894C98.9088 57.6674 99.0687 57.7852 99.8027 57.8618V58.18H96.9257H96.9198ZM95.801 52.3296H95.7773C95.4103 53.2487 95.0551 54.1913 94.7117 55.0869H96.7955L95.801 52.3296Z" fill="#3F1F58"/>
<path d="M112.115 51.3042C111.482 51.3336 111.21 51.4632 111.156 51.9699C111.121 52.3234 111.085 52.8242 111.085 53.8552V58.2857H110.718L105.716 52.512H105.698V55.2162C105.692 56.2413 105.734 56.7598 105.769 57.0779C105.823 57.6553 106.083 57.7908 106.865 57.8497V58.1679H104.136V57.8497C104.793 57.8026 105.083 57.6612 105.13 57.1074C105.177 56.7598 105.219 56.2354 105.219 55.2103V52.8301C105.219 52.0171 105.183 51.9581 104.976 51.693C104.739 51.422 104.497 51.3277 103.964 51.2924V50.9566H105.716L110.564 56.4299H110.594V53.8435C110.594 52.8124 110.547 52.3116 110.517 51.9935C110.464 51.4691 110.197 51.3277 109.38 51.2865V50.9507H112.098V51.2865L112.115 51.3042Z" fill="#3F1F58"/>
<path d="M130.496 56.2765C130.342 56.8068 130.034 57.6787 129.833 58.0322C129.496 58.1088 128.495 58.3504 127.649 58.3504C124.707 58.3504 123.398 56.4179 123.398 54.6681C123.398 52.335 125.293 50.8032 127.939 50.8032C128.916 50.8032 129.738 51.0683 130.058 51.1214C130.147 51.7518 130.236 52.229 130.301 52.8594L129.957 52.936C129.644 51.7105 128.886 51.2215 127.643 51.2215C125.701 51.2215 124.665 52.7828 124.665 54.4324C124.665 56.524 125.95 57.9203 127.744 57.9203C128.922 57.9203 129.573 57.2899 130.171 56.1469L130.496 56.2765Z" fill="#3F1F58"/>
<path d="M139.399 58.18V57.8618C140.11 57.7617 140.204 57.6674 140.056 57.2196C139.897 56.7778 139.689 56.2298 139.447 55.5877H137.002C136.812 56.0943 136.659 56.5303 136.516 56.9663C136.274 57.6379 136.363 57.7675 137.227 57.8618V58.18H134.711V57.8618C135.451 57.7499 135.611 57.6733 136.013 56.6894L138.405 50.9097L138.801 50.8096C139.53 52.7715 140.264 54.7452 141.015 56.6894C141.382 57.6674 141.542 57.7852 142.282 57.8618V58.18H139.405H139.399ZM138.281 52.3296H138.257C137.89 53.2487 137.535 54.1913 137.191 55.0869H139.275L138.281 52.3296Z" fill="#3F1F58"/>
<path d="M149.67 50.9741C150.487 50.9741 151.138 51.1037 151.594 51.4337C152.05 51.7695 152.34 52.2821 152.34 53.0126C152.34 54.4619 151.227 55.1572 150.114 55.2868C149.937 55.3103 149.706 55.3103 149.581 55.3044L148.729 55.0923V56.7832C148.729 57.7318 148.83 57.7907 149.865 57.8673V58.1854H146.681V57.8673C147.586 57.7907 147.687 57.7023 147.687 56.7773V52.4058C147.687 51.416 147.586 51.3689 146.74 51.3158V50.98H149.664L149.67 50.9741ZM148.735 54.7035C148.877 54.7565 149.191 54.839 149.552 54.839C150.262 54.839 151.156 54.4619 151.156 53.048C151.156 51.8402 150.38 51.3453 149.481 51.3453C149.167 51.3453 148.93 51.4042 148.859 51.4808C148.782 51.5574 148.735 51.6752 148.735 51.9875V54.7035Z" fill="#3F1F58"/>
<path d="M156.868 58.1795V57.8614C157.798 57.7907 157.898 57.7259 157.898 56.7715V52.3999C157.898 51.4396 157.798 51.3689 156.868 51.3099V50.9741H159.976V51.3099C159.053 51.3689 158.958 51.4396 158.958 52.3999V56.7715C158.958 57.7259 159.058 57.7966 159.976 57.8614V58.1795H156.868Z" fill="#3F1F58"/>
<path d="M170.714 52.7594C170.59 52.2055 170.471 51.911 170.323 51.7224C170.134 51.4632 169.933 51.3807 169.068 51.3807H168.293V56.7833C168.293 57.6612 168.394 57.7908 169.471 57.8615V58.1796H166.097V57.8615C167.139 57.7908 167.239 57.6729 167.239 56.7833V51.3807H166.576C165.588 51.3807 165.351 51.4868 165.197 51.7224C165.055 51.911 164.954 52.235 164.806 52.7594H164.463C164.516 52.0406 164.569 51.3041 164.593 50.6914H164.836C165.002 50.9742 165.15 50.9742 165.481 50.9742H170.093C170.406 50.9742 170.513 50.9035 170.685 50.6914H170.927C170.927 51.1981 170.986 52.0583 171.04 52.724L170.696 52.7594H170.714Z" fill="#3F1F58"/>
<path d="M179.162 58.18V57.8618C179.872 57.7617 179.967 57.6674 179.819 57.2196C179.659 56.7778 179.452 56.2298 179.209 55.5877H176.764C176.575 56.0943 176.421 56.5303 176.279 56.9663C176.036 57.6379 176.125 57.7675 176.989 57.8618V58.18H174.479V57.8618C175.219 57.7499 175.379 57.6733 175.782 56.6894L178.173 50.9097L178.57 50.8096C179.298 52.7715 180.032 54.7452 180.784 56.6894C181.151 57.6674 181.311 57.7852 182.051 57.8618V58.18H179.174H179.162ZM178.043 52.3296H178.019C177.652 53.2487 177.297 54.1913 176.954 55.0869H179.038L178.043 52.3296Z" fill="#3F1F58"/>
<path d="M192.067 56.3885C191.99 56.7656 191.753 57.8378 191.64 58.1795H186.384V57.8614C187.361 57.7907 187.455 57.72 187.455 56.7479V52.3999C187.455 51.4396 187.378 51.3689 186.437 51.3099V50.9741H189.521V51.3099C188.621 51.3689 188.515 51.4337 188.515 52.3999V56.7125C188.515 57.3194 188.568 57.5315 188.781 57.6434C189 57.7671 189.391 57.7848 189.841 57.7848C190.445 57.7848 190.847 57.7141 191.108 57.4313C191.321 57.2192 191.534 56.8539 191.723 56.3237L192.067 56.3944V56.3885Z" fill="#3F1F58"/>
<path d="M125.778 36.7345C125.778 38.1249 125.417 38.826 124.683 38.8437H124.665C121.782 38.8437 119.983 35.8802 119.26 29.9533L117.934 19.3661C116.993 12.249 115.803 6.13946 114.608 3.41165C114.572 3.31149 114.673 2.79892 114.915 1.86216C115.158 0.925397 115.312 0.459961 115.371 0.459961C115.448 0.459961 115.679 0.93718 116.046 1.89162C116.496 2.96389 116.857 4.03616 117.135 5.10843C117.656 7.1646 118.272 10.8115 118.722 13.6748C118.509 14.0813 118.343 14.5114 118.213 14.9533C118 15.6779 117.893 16.4733 117.893 17.3217C117.893 18.1701 118.165 18.7593 118.692 18.9831C118.799 19.0303 118.905 19.0833 119.03 19.154C119.189 19.2424 119.355 19.3484 119.527 19.4662C120.285 25.187 120.752 28.5452 120.936 29.5527C121.64 33.8005 123.12 35.9274 125.37 35.9274H125.393C125.648 35.945 125.778 36.2161 125.778 36.7463V36.7345Z" fill="#5E5E5E"/>
<path d="M144.745 2.81059C144.745 3.9241 144.354 5.23792 143.567 6.75795C142.566 8.72575 141.258 10.829 139.63 13.0737C139.002 13.9104 138.647 14.3051 138.57 14.2462C138.535 14.2285 138.511 14.1873 138.511 14.1283C138.511 13.8986 138.931 12.9795 139.772 11.377C140.613 9.78034 141.536 8.29566 142.537 6.92881C143.123 6.12755 143.419 5.52661 143.419 5.1142C143.419 4.4131 143.016 4.0596 142.211 4.0596C140.411 4.0596 135.942 6.03918 128.809 9.99833C122.972 13.2151 120.053 15.0062 120.053 15.3774C120.053 15.6307 121.338 16.538 123.901 18.0934C124.428 18.4056 124.653 18.6413 124.576 18.7945C124.499 18.9536 124.221 18.9418 123.753 18.765C123.593 18.7297 123.315 18.6767 122.901 18.6236C123.564 19.2658 126.032 20.992 130.306 23.8023C133.657 26.0058 135.332 28.1975 135.332 30.3833C135.332 32.2155 135.024 33.5294 134.421 34.3306C133.55 35.5148 132.23 36.5282 130.454 37.3766C130.366 37.2057 130.295 37.0231 130.224 36.8404C129.999 36.2513 129.839 35.6268 129.75 34.9964C130.318 34.7725 130.892 34.5015 131.484 34.1892C133.479 33.1346 134.48 32.2862 134.48 31.6441C134.48 30.342 133.207 28.7807 130.656 26.9661C130.306 26.7187 129.939 26.4653 129.543 26.2061C129.513 26.1884 129.484 26.1708 129.454 26.1472C125.275 23.4253 122.528 21.3691 121.226 19.9787C120.61 19.3188 119.994 18.818 119.379 18.4763C119.248 18.4056 119.118 18.3349 118.988 18.2819C118.757 18.1818 118.639 17.8636 118.639 17.3157C118.639 16.5439 118.733 15.8251 118.929 15.1594C119.142 14.4288 119.467 13.769 119.905 13.1621C121.119 11.5243 125.026 9.04979 131.632 5.73282C137.665 2.71043 141.507 1.19629 143.152 1.19629C144.212 1.19629 144.739 1.73242 144.739 2.80469L144.745 2.81059Z" fill="#5E5E5E"/>
<path d="M126.601 35.8389C126.198 35.8919 125.801 35.9155 125.411 35.9155H125.393C124.659 35.9272 124.298 36.6283 124.298 38.0246C124.298 38.5549 124.428 38.8259 124.689 38.8436H124.712C125.399 38.8436 126.109 38.7729 126.831 38.6315C126.66 37.7419 126.583 36.8169 126.612 35.8448L126.601 35.8389Z" fill="#5E5E5E"/>
<path d="M93.7822 29.0165C93.7407 28.7809 93.3441 25.3696 92.5746 18.7828C92.0063 14.0283 91.3432 8.70819 90.5204 5.31464C90.2481 4.20112 89.8752 3.06994 89.4016 1.92108C89.0109 0.948963 88.7623 0.459961 88.6675 0.459961C88.6083 0.459961 88.4307 0.948963 88.1407 1.92108C87.8447 2.89908 87.7204 3.43522 87.7559 3.52948C89.3246 6.68738 90.7335 16.1611 92.0418 29.4584C92.6693 35.6976 94.9424 38.8201 98.8613 38.8201C99.6072 38.8201 99.9801 38.119 99.9801 36.7168C99.9801 36.1689 99.844 35.8979 99.5657 35.8979C96.4283 35.8979 94.4985 33.6061 93.7763 29.0224" fill="#5E5E5E"/>
<path d="M104.994 25.5459L103.744 27.7258L100.779 25.9937L99.3047 28.639L102.365 30.4241L103.62 28.2384L106.592 29.9764L108.06 27.3369L104.994 25.5459Z" fill="#5E5E5E"/>
<path d="M111.304 39.6094L110.055 41.7893L107.089 40.0571L105.615 42.6966L108.682 44.4876L109.931 42.3018L112.902 44.034L114.37 41.4004L111.304 39.6094Z" fill="#5E5E5E"/>
<path d="M105.829 34.248C105.124 33.488 104.935 32.728 105.272 31.968C105.349 31.7736 105.349 31.6557 105.272 31.6145C105.095 31.5143 104.84 31.7029 104.509 32.1683C103.863 33.1227 103.343 33.9122 102.952 34.5367C102.111 35.3557 100.992 35.8034 99.6012 35.88C98.8554 35.88 98.4824 36.5811 98.4824 37.9833C98.4824 38.5312 98.6186 38.8022 98.8909 38.8022C100.91 38.8022 102.662 37.5179 104.154 34.9433C104.331 35.9213 104.586 36.5929 104.917 36.9641C105.444 37.5709 106.143 37.889 107.001 37.9303C107.747 37.9303 108.12 37.2292 108.12 35.827C108.12 35.2791 107.984 35.0081 107.711 35.0081C106.965 35.0081 106.338 34.7547 105.829 34.248Z" fill="#5E5E5E"/>
<path d="M117.094 40.1221L115.626 42.7556L118.692 44.5467L120.16 41.9131L117.094 40.1221Z" fill="#5E5E5E"/>
<path d="M117.686 29.894C117.372 29.2518 117.135 28.9277 116.982 28.9277C116.905 28.9277 116.78 29.3284 116.615 30.1296C116.449 30.9309 116.366 31.3963 116.366 31.5318C116.934 32.5628 117.218 33.1815 117.218 33.3759C117.218 33.5703 116.952 33.7765 116.425 33.9886C115.875 34.2596 115.259 34.3951 114.572 34.3951C113.809 34.3951 113.424 35.0962 113.424 36.4984C113.424 37.0051 113.56 37.2585 113.832 37.2585C116.81 37.2585 118.302 35.7679 118.302 32.7808C118.302 31.6909 118.094 30.7247 117.686 29.8881V29.894Z" fill="#5E5E5E"/>
<path d="M112.263 33.3172C111.814 32.7929 111.589 32.351 111.589 32.0034C111.63 31.5557 111.589 31.3141 111.47 31.2729C111.31 31.2316 111.085 31.5733 110.795 32.298L110.269 33.7297C109.742 34.5663 108.877 34.9846 107.682 34.9846C106.918 34.9846 106.533 35.6857 106.533 37.0879C106.533 37.6535 106.669 37.9363 106.942 37.9363C108.546 37.9363 109.635 37.2352 110.203 35.833C110.44 35.2261 110.612 34.8903 110.73 34.8078C111.34 36.4457 112.388 37.2646 113.874 37.2646C114.596 37.2646 114.963 36.5635 114.963 35.1613C114.963 34.6546 114.815 34.4013 114.525 34.4013C113.601 34.4013 112.85 34.0419 112.263 33.3172Z" fill="#5E5E5E"/>
<path d="M85.1214 6.15717C85.5713 6.64617 85.9324 7.02323 86.2106 7.30014C86.5066 7.61239 86.7079 7.76557 86.8263 7.76557C86.8677 7.61239 86.9032 7.49456 86.9447 7.41207C86.6309 6.49299 86.2284 5.47963 85.7371 4.37201C84.6597 1.76204 84.0795 0.454102 84.0026 0.454102C83.9019 0.454102 83.7184 0.754573 83.4461 1.36141C83.0909 2.19801 82.8305 2.84609 82.6529 3.29385C82.5759 3.45292 82.7239 3.66502 83.0909 3.93603C83.0909 5.18505 83.677 9.88065 84.9083 17.0979C86.2817 24.7393 87.0216 29.6941 87.14 31.9565C87.1815 32.5986 87.14 33.1289 87.0216 33.5354C86.6664 34.4545 84.5413 36.0217 80.6461 38.2428C76.3543 40.7173 72.9682 41.9545 70.476 41.9545C65.5804 41.9545 63.1297 39.5861 63.1297 34.8492C63.1297 33.4058 63.4138 31.8858 63.9821 30.2891C64.1005 29.8826 64.1597 29.5763 64.1597 29.3818C64.1597 29.2287 64.1183 29.1462 64.0413 29.1462C63.8282 29.1462 63.5618 29.4702 63.2481 30.1124C62.2891 32.2569 61.8096 34.5311 61.8096 36.929C61.8096 37.3767 61.851 37.8539 61.928 38.3606C62.5732 42.8854 65.0062 45.1477 69.2151 45.1477C72.1335 45.1477 75.6972 43.9105 79.9121 41.436C83.3573 39.3917 85.7075 37.6065 86.9506 36.0983C88.1937 34.59 88.7561 32.3512 88.6377 29.3877C87.4064 20.3618 86.2521 12.308 85.1155 6.16306L85.1214 6.15717Z" fill="#5E5E5E"/>
<path d="M131.065 12.8615C130.875 13.0559 130.68 13.2798 130.49 13.5213C130.129 13.9868 129.81 14.4875 129.537 15.0355C129.265 15.5834 129.147 16.1608 129.194 16.7794C129.212 16.9384 129.289 17.0563 129.419 17.127C129.549 17.1977 129.685 17.2625 129.822 17.3155C130.295 17.4274 130.769 17.4333 131.242 17.3391C131.716 17.2448 132.178 17.1741 132.639 17.1211C133.077 17.0681 133.51 16.9974 133.936 16.8972C134.362 16.8029 134.788 16.8265 135.22 16.9797C135.404 17.0327 135.558 17.18 135.7 17.4274C135.836 17.669 135.883 17.8045 135.836 17.8281C135.86 17.8281 135.688 17.8575 135.321 17.9106C134.954 17.9636 134.504 18.0402 133.977 18.1285C133.444 18.2228 132.888 18.3112 132.302 18.4054C131.716 18.4938 131.213 18.5763 130.798 18.6529C130.479 18.6882 130.153 18.7177 129.833 18.7531C129.514 18.7884 129.194 18.7531 128.874 18.647C128.555 18.5881 128.265 18.4879 127.992 18.3406C127.726 18.1934 127.43 18.0578 127.116 17.9282C127.241 18.1816 127.389 18.4231 127.548 18.647C127.708 18.8709 127.88 19.1007 128.052 19.3304C128.229 19.4954 128.436 19.6132 128.673 19.678C128.91 19.7428 129.141 19.7723 129.372 19.7546C130.289 19.678 131.213 19.5661 132.148 19.4188C133.077 19.2715 133.983 19.0948 134.859 18.8768C135.043 18.8414 135.208 18.8061 135.362 18.7766C135.51 18.7472 135.67 18.6824 135.836 18.5704C136.002 18.4408 136.12 18.2699 136.197 18.0578C136.274 17.8457 136.286 17.616 136.238 17.3744C136.191 17.1329 136.096 16.9031 135.96 16.6792C135.818 16.4553 135.641 16.2609 135.416 16.0959C135.238 15.9545 135.037 15.878 134.806 15.8662C134.575 15.8544 134.35 15.8662 134.119 15.9074C133.521 15.9958 132.923 16.1018 132.326 16.2138C131.728 16.3257 131.13 16.3964 130.532 16.4141C130.348 16.4318 130.123 16.4141 129.863 16.3728C129.602 16.3257 129.484 16.2138 129.514 16.037C129.567 15.7896 129.668 15.5539 129.816 15.33C129.964 15.1062 130.106 14.8764 130.254 14.6289C130.449 14.3638 130.65 14.0928 130.869 13.8159C131.088 13.539 131.343 13.3387 131.651 13.215C131.769 13.1501 131.852 13.1619 131.905 13.2444C131.959 13.3269 132.018 13.3917 132.089 13.4388C132.142 13.2562 132.201 13.0677 132.266 12.8674C132.331 12.667 132.308 12.4844 132.201 12.3194C132.136 12.2016 132.059 12.1604 131.964 12.1898C131.87 12.2193 131.781 12.2546 131.686 12.2959C131.449 12.4667 131.236 12.6553 131.047 12.8497L131.065 12.8615Z" fill="#5E5E5E"/>
<path d="M114.11 24.1381C113.962 24.1381 113.885 24.2854 113.885 24.58C113.885 25.2811 113.625 25.6345 113.104 25.6345C112.583 25.6345 112.322 25.1927 112.322 24.303C112.322 23.3074 112.6 22.1232 113.157 20.7563C113.34 20.2025 113.435 19.4071 113.435 18.3702C113.435 16.5615 112.967 14.8411 112.044 13.2151C111.784 12.7732 111.6 12.5493 111.488 12.5493C111.411 12.5493 111.31 12.7614 111.18 13.1856C111.049 13.6098 110.984 13.8808 110.984 13.9869C110.984 14.0929 111.055 14.2284 111.209 14.3757C112.251 15.5246 112.772 16.9798 112.772 18.7591C112.772 19.5367 112.677 20.2025 112.494 20.7563C111.973 22.0878 111.713 23.3604 111.713 24.58C111.713 25.2457 111.878 25.8172 112.216 26.3003C112.476 26.7422 112.754 26.966 113.05 26.966C113.867 26.966 114.276 26.3003 114.276 24.9688C114.276 24.415 114.222 24.1381 114.11 24.1381Z" fill="#5E5E5E"/>
</g>
<defs>
<linearGradient id="paint0_linear_1229_190" x1="3.14311" y1="5.57346" x2="20.0427" y2="19.7276" gradientUnits="userSpaceOnUse">
<stop stop-color="#B5B5B5"/>
<stop offset="0.15" stop-color="#B1B0B2"/>
<stop offset="0.31" stop-color="#A6A2A9"/>
<stop offset="0.49" stop-color="#948C9B"/>
<stop offset="0.67" stop-color="#7B6C87"/>
<stop offset="0.86" stop-color="#5C436E"/>
<stop offset="1" stop-color="#3F1F58"/>
</linearGradient>
<linearGradient id="paint1_linear_1229_190" x1="15.8357" y1="-1.42565" x2="56.6601" y2="20.4936" gradientUnits="userSpaceOnUse">
<stop stop-color="#B5B5B5"/>
<stop offset="0.13" stop-color="#AFADB0"/>
<stop offset="0.31" stop-color="#9F9AA4"/>
<stop offset="0.53" stop-color="#867990"/>
<stop offset="0.78" stop-color="#634D74"/>
<stop offset="1" stop-color="#3F1F58"/>
</linearGradient>
<linearGradient id="paint2_linear_1229_190" x1="-1.36745" y1="30.6129" x2="39.4569" y2="52.5322" gradientUnits="userSpaceOnUse">
<stop stop-color="#B5B5B5"/>
<stop offset="0.15" stop-color="#B1B0B2"/>
<stop offset="0.31" stop-color="#A6A2A9"/>
<stop offset="0.49" stop-color="#948C9B"/>
<stop offset="0.67" stop-color="#7B6C87"/>
<stop offset="0.86" stop-color="#5C436E"/>
<stop offset="1" stop-color="#3F1F58"/>
</linearGradient>
<clipPath id="clip0_1229_190">
<rect width="192" height="60" fill="white"/>
</clipPath>
</defs>
</svg>
